<svg xmlns="http://www.w3.org/2000/svg" width="81" height="37" viewBox="0 0 81 37"><g><g><path fill="#535353" d="M40.004 21.385h.024v.001h-.024zm1.26.001v2.837h.91l1.635-2.837h1.377l-1.96 3.33v.023l2.077 3.634h-1.424l-1.68-3.048h-.91v3.048h-1.261v-6.987zm6.863 1.853c1.516 0 2.754 1.102 2.754 2.626 0 1.548-1.214 2.626-2.73 2.626-1.518 0-2.732-1.078-2.732-2.626-.023-1.548 1.19-2.626 2.708-2.626zm4.924.116v3.94h1.564v-3.939h1.19v3.94h1.564v-3.94h1.19v5.017h-6.652v-5.018zm9.033-.116c1.424 0 2.217 1.055 2.217 2.368-.004.165-.02.33-.046.492h-3.431c.07.868.747 1.337 1.494 1.337.513 0 1.026-.235 1.423-.54l.49.892c-.513.445-1.283.727-2.007.727-1.657 0-2.684-1.196-2.684-2.627 0-1.57 1.05-2.65 2.544-2.65zm2.8 4.08c.608-.094 1.051-.61 1.051-2.392v-1.57h3.642v5.016h-1.238v-4.01h-1.214v.563c0 2.18-.583 3.447-2.24 3.494zm8.24-4.08c1.423 0 2.217 1.055 2.217 2.368-.004.165-.02.33-.047.492h-3.43c.07.868.746 1.337 1.494 1.337.512 0 1.026-.235 1.423-.54l.49.892c-.513.445-1.284.727-2.007.727-1.657 0-2.684-1.196-2.684-2.627 0-1.57 1.05-2.65 2.544-2.65zm4.481.116v1.924h.607l1.214-1.923h1.377l-1.587 2.391v.024l1.773 2.602h-1.446l-1.307-2.039h-.653v2.04h-1.239v-5.019zm-29.478 4.058c.817 0 1.494-.634 1.494-1.572 0-.914-.677-1.57-1.495-1.57-.816 0-1.47.633-1.47 1.57 0 .938.653 1.572 1.471 1.572zm14.914-2.18c0-.658-.444-1.056-1.004-1.056-.63 0-1.097.422-1.213 1.055zm11.04 0c0-.658-.443-1.056-1.004-1.056-.63 0-1.097.422-1.214 1.055z"/></g><g><path fill="#ff8c00" d="M57.058 17.526a.32.32 0 0 1-.326.328h-2.404a.319.319 0 0 1-.327-.328V5.684a.324.324 0 0 1 .2-.305.319.319 0 0 1 .127-.023h2.404a.318.318 0 0 1 .326.328zm18.766-12.17a.55.55 0 0 1 .326.141c.07.07.07.187.047.281L72.23 17.644a.333.333 0 0 1-.303.211h-2.147c-.14 0-.257-.07-.303-.211l-2.312-6.918-2.31 6.917a.334.334 0 0 1-.304.211h-2.147c-.14 0-.257-.07-.304-.211L58.131 5.778c-.023-.094-.023-.188.047-.281.047-.094.164-.14.256-.14h2.685c.14 0 .256.093.304.233l2.123 7.012L65.88 5.59a.334.334 0 0 1 .304-.211h1.89c.14 0 .257.07.303.211l2.335 7.012 2.124-7.012a.324.324 0 0 1 .303-.234zm4.06 0c.164 0 .304.141.327.328v11.842a.32.32 0 0 1-.326.328H77.48a.316.316 0 0 1-.304-.201.32.32 0 0 1-.023-.127V5.684a.32.32 0 0 1 .327-.328zM52.602 17.433a.24.24 0 0 1-.188.398h-2.94a.375.375 0 0 1-.304-.14l-.49-.61c-1.027.656-2.241 1.055-3.524 1.055-3.594 0-6.512-2.931-6.512-6.542 0-3.612 2.918-6.543 6.512-6.543 3.594 0 6.512 2.931 6.512 6.543 0 1.29-.374 2.509-1.027 3.54l1.96 2.298zm-24.578 5.745c.607.234.84 1.148.887 1.547.093.727-.116 1.009-.35 1.009-.233 0-.56-.282-.91-.844-.35-.564-.49-1.196-.303-1.525.116-.211.372-.305.676-.187zm-3.548 2.65c.374 0 .794.164 1.168.492.723.61.933 1.313.56 1.83-.21.257-.56.421-.957.421-.397 0-.817-.14-1.097-.399-.654-.562-.84-1.501-.42-2.016.163-.212.42-.328.746-.328zm-8.169 6.777C7.436 32.605.25 25.38.25 16.47S7.438.338 16.306.338c8.87 0 16.058 7.223 16.058 16.133 0 3.025-.84 5.863-2.263 8.278-.047.07-.164.047-.187-.047-.56-3.963-2.964-6.144-6.465-6.8-.304-.048-.35-.235.046-.282 1.074-.094 2.59-.07 3.384.07.047-.398.07-.82.07-1.242 0-5.886-4.76-10.67-10.62-10.67-5.857 0-10.62 4.784-10.62 10.67s4.763 10.67 10.621 10.67h.49a14.46 14.46 0 0 1-.21-2.885c.023-.657.163-.75.443-.235 1.47 2.556 3.572 4.854 7.68 5.77 3.36.75 6.721 1.617 10.339 6.236.326.4-.163.821-.537.493-3.687-3.283-7.048-4.362-10.106-4.362-3.431.024-5.765.47-8.122.47zm29.175-19.37c-.14-.164-.022-.422.187-.422h2.708c.14-.375.21-.797.21-1.22 0-1.945-1.447-3.634-3.431-3.634s-3.432 1.689-3.432 3.635c0 1.946 1.448 3.611 3.432 3.611.56.023 1.12-.14 1.61-.399z"/></g></g></svg>