<svg xmlns="http://www.w3.org/2000/svg" width="91" height="22" viewBox="0 0 91 22"><g><g><g><path fill="#32448c" d="M36.546 7.48c.71.718.96 1.813.645 2.85-.342.941-1.145 1.73-2.185 2.107a5.07 5.07 0 0 1-1.776.306 6.868 6.868 0 0 1-2.027-.318l-.5-.153v3.58H28.15c0-1.072 0-4.44.013-6.276-.026-1.036.658-2.084 1.777-2.744.816-.494 1.842-.765 2.895-.765 1.474 0 2.816.518 3.71 1.413zm-1.369 2.308c.066-.448-.079-.86-.42-1.213-.422-.424-1.133-.695-1.856-.695-.277 0-.553.036-.79.118-.526.153-1 .494-1.237.918-.197.33-.224.683-.092 1.013.29.777 1.158 1.283 2.21 1.283 1.106 0 1.975-.565 2.185-1.4zm3.12-.353V9.41c-.04-.919.512-1.872 1.473-2.496.83-.542 1.882-.848 2.987-.848 1.356 0 2.659.46 3.553 1.248.698.612 1.106 1.378 1.106 2.108.013.624.013 1.271.013 1.895 0 .518-.013 1.048 0 1.578h-.776c-.882 0-1.803-.012-2.698-.012h-.08c-.302.048-.604.071-.92.071-1.25 0-2.448-.365-3.343-1.048-.868-.66-1.369-1.578-1.316-2.472zm2.21.73c.355.647 1.145 1.06 2.066 1.06 1.421 0 2.211-.837 2.33-1.602v-.047c-.027-1.072-1.172-1.708-2.264-1.708a2.61 2.61 0 0 0-.816.13c-.566.141-1.092.542-1.33 1.013-.183.388-.183.812.014 1.154zm18.884 5.698c-.329 0-.592 0-.842.036a75.728 75.728 0 0 1-.013-3.462c.013-.918.013-1.872 0-2.814-.053-1.366 1.105-2.508 2.276-3.026.711-.33 1.54-.506 2.382-.506 1.672 0 3.159.647 3.975 1.754.868 1.142.645 2.826-.514 3.85-.763.695-1.868 1.083-3.119 1.083a6.155 6.155 0 0 1-1.96-.33l-.5-.176v3.591zm1.816-5.828c.33.73 1.185 1.201 2.185 1.201 1.105 0 1.987-.565 2.21-1.413v-.047c.053-.447-.118-.86-.46-1.201-.434-.424-1.145-.683-1.842-.683-.237 0-.472.032-.698.094-.566.118-1.066.471-1.329.919-.21.365-.25.765-.066 1.13zm11.12-.577v-.023c-.04-.93.527-1.884 1.487-2.509.83-.553 1.882-.847 2.974-.847 1.277 0 2.514.4 3.409 1.107.79.635 1.25 1.448 1.263 2.237.013.577 0 1.165 0 1.742a37.089 37.089 0 0 0 0 1.708h-2.434c-.869 0-1.54.011-2.172.035h-.184c-1.184 0-2.198-.471-2.83-.871-.973-.648-1.552-1.637-1.513-2.579zm2.25.73c.356.648 1.146 1.048 2.067 1.048.92 0 1.974-.424 2.276-1.39v-.023c.08-.447-.052-.871-.381-1.224-.421-.448-1.132-.719-1.856-.719-.29 0-.553.036-.79.118-.592.141-1.118.542-1.355 1.024-.197.389-.197.801.04 1.166zm-5.79-2.284V4.042c.513-.012 1.014-.012 1.395-.012h1.158v3.556c-.013 1.73-.013 3.52.013 5.287h-2.566c.013-1.66.013-3.344 0-4.97zm-15.594 0c-.605 0-1.145.165-1.553.482-.303.2-.645.601-.618 1.402v3.12h-2.58c0-.73 0-2.496.014-3.485.013-.766.46-1.578 1.223-2.202.895-.73 2.158-1.154 3.461-1.154.224 0 .435.012.645.035l.027 1.86a2.753 2.753 0 0 0-.619-.058zm4.303-1.813v1.813h-2.553V6.09zm32.663.506v7.241c-.198 1.06-.869 1.943-1.79 2.379-.908.447-2 .694-3.185.694a8.73 8.73 0 0 1-.96-.047c.026-.636.013-1.26 0-1.837.24.024.482.035.723.036 1 0 1.83-.224 2.461-.671.658-.436.645-1.213.645-1.46v-.377l-.42.047-.133.012c-.368.035-.737.082-1.092.082-.316 0-.579-.035-.829-.094h-.026c-1.395-.306-2.527-1.378-2.83-2.673-.118-.424-.092-2.12-.052-3.32h2.224c-.013.694-.026 2.284.04 3.19.052.66.75 1.225 1.513 1.225.158 0 .302-.024.434-.07.658-.189 1.132-.766 1.119-1.39.026-.836.026-2.308.013-2.967zM54.943 8.928h2.553v3.956h-2.553z"/></g><g><path fill="#32448c" d="M70.207 4.11c-.395 0-.895 0-1.382.011v3.862c.013 1.625.013 3.309 0 4.97h2.553a236.383 236.383 0 0 1-.013-5.287V4.11zm-9.383 2.496c-1.171.53-2.33 1.66-2.276 3.026.013.942.013 1.896 0 2.814a75.79 75.79 0 0 0 .013 3.462h2.526v-3.592l.5.177c.619.212 1.303.33 1.961.33 1.25 0 2.356-.377 3.119-1.083 1.158-1.025 1.382-2.709.513-3.85-.829-1.096-2.303-1.755-3.974-1.755a6.31 6.31 0 0 0-2.382.47zm.355 3.509a1.233 1.233 0 0 1 .08-1.13c.262-.448.776-.801 1.328-.92.224-.058.448-.093.698-.093.71 0 1.408.259 1.842.683.342.341.5.753.46 1.2v.048c-.223.847-1.105 1.413-2.21 1.413-1 0-1.856-.483-2.198-1.201zM49.691 7.3c-.763.624-1.21 1.436-1.224 2.201-.013.99-.013 2.756-.013 3.486h2.58v-3.12c-.027-.801.315-1.202.618-1.402.408-.318.947-.483 1.553-.483.197 0 .408.012.618.048l-.026-1.86a5.723 5.723 0 0 0-.645-.036c-1.303 0-2.566.424-3.461 1.166zm-19.766-.377c-1.119.66-1.803 1.707-1.777 2.743-.013 1.825-.013 5.205-.013 6.276h2.553v-3.58l.5.154a6.869 6.869 0 0 0 2.027.318c.645 0 1.237-.106 1.776-.307 1.027-.376 1.843-1.165 2.185-2.107.316-1.036.066-2.131-.645-2.85-.868-.906-2.21-1.424-3.684-1.424-1.053 0-2.08.27-2.922.777zm.869 3.108c-.132-.33-.093-.683.092-1.012.237-.424.71-.778 1.237-.919.237-.082.5-.118.79-.118.723 0 1.434.271 1.855.695.329.342.473.754.42 1.201v.024c-.21.836-1.078 1.4-2.184 1.4-1.052 0-1.921-.505-2.21-1.27zm43.032-3.05c-.96.625-1.54 1.578-1.487 2.509v.023c-.053.954.526 1.943 1.513 2.59.632.4 1.645.872 2.83.872h.184a56.817 56.817 0 0 1 2.171-.036h2.435v-1.707a38.06 38.06 0 0 0 0-1.742c-.013-.79-.474-1.602-1.264-2.238-.894-.706-2.132-1.106-3.408-1.106-1.105 0-2.158.294-2.974.836zm.71 3.298a1.22 1.22 0 0 1-.013-1.166c.25-.483.777-.883 1.356-1.025.25-.07.513-.117.79-.117.723 0 1.434.27 1.855.718.329.353.46.777.382 1.225v.023c-.303.954-1.356 1.39-2.277 1.39s-1.71-.413-2.093-1.048zM39.77 7.006c-.961.624-1.514 1.578-1.474 2.496v.024c-.04.883.46 1.801 1.329 2.46.895.672 2.079 1.049 3.342 1.049.303 0 .619-.024.921-.07h.08c.907.01 1.815.01 2.697.01h.777v-1.577c0-.624 0-1.26-.014-1.896 0-.73-.408-1.495-1.105-2.107-.895-.801-2.198-1.248-3.553-1.248-1.106 0-2.172.306-3 .86zm.75 3.274c-.211-.365-.211-.778-.014-1.166.237-.471.764-.872 1.33-1.013.25-.082.526-.13.815-.13 1.093 0 2.238.636 2.264 1.708v.047c-.132.777-.908 1.601-2.33 1.601-.92 0-1.71-.412-2.065-1.047zm16.989-4.11h-2.553v1.813h2.553zm32.662.506h-2.145c0 .66 0 2.132-.013 2.968.013.624-.46 1.2-1.119 1.389a1.28 1.28 0 0 1-.434.07c-.763 0-1.46-.564-1.513-1.224-.066-.907-.053-2.496-.04-3.19h-2.224c-.04 1.2-.065 2.896.053 3.32.303 1.295 1.434 2.366 2.83 2.672h.026c.25.06.513.095.829.095.355 0 .724-.047 1.092-.083l.132-.012.42-.047v.377c0 .247.014 1.025-.644 1.46-.632.448-1.46.671-2.461.671-.242 0-.483-.012-.724-.035.013.577.027 1.201 0 1.837.316.035.645.047.96.047 1.185 0 2.278-.247 3.186-.695.92-.435 1.592-1.318 1.79-2.378zM54.955 9.008v3.956h2.553V9.008zM70.97 3.792h.75v.33c.013 1.189 0 2.39 0 3.555 0 1.72-.013 3.51.013 5.275v.342H68.43V3.792h.369c.526-.012 1.026-.012 1.408-.012.25 0 .5 0 .763.012zm-3.474 3.932c.974 1.26.724 3.144-.566 4.275-.829.765-2.026 1.189-3.382 1.189-.71 0-1.434-.118-2.092-.342v3.45h-3.264l-.013-.33a77.117 77.117 0 0 1-.013-3.485c0-.918.013-1.872 0-2.802-.053-1.519 1.21-2.767 2.487-3.332a6.113 6.113 0 0 1 2.553-.542c1.79 0 3.395.707 4.29 1.92zM65.233 9.82a1.152 1.152 0 0 0-.369-.942c-.368-.353-.96-.577-1.566-.577a2.36 2.36 0 0 0-.579.083h-.026c-.46.106-.869.388-1.08.753a.889.889 0 0 0-.065.848c.263.6.987.99 1.829.99.934 0 1.671-.46 1.856-1.155zM53.863 5.83l.328.035v.294l.027 1.86v.413l-.448-.07a2.93 2.93 0 0 0-.552-.048c-.527 0-.974.141-1.316.4l-.013.012-.014.012c-.329.212-.487.6-.473 1.119v3.45h-3.317v-.33c0-.718 0-2.496.013-3.485.014-.86.5-1.743 1.343-2.438.96-.8 2.316-1.248 3.71-1.248.225 0 .461.012.711.024zM36.806 7.348c.79.8 1.067 2.013.724 3.155v.024c-.368 1.036-1.263 1.895-2.395 2.308a5.683 5.683 0 0 1-1.921.33 7.293 7.293 0 0 1-2.145-.342v3.438h-3.29v-.33c0-1.012 0-4.439.013-6.276-.013-1.142.724-2.307 1.948-3.026.881-.53 1.974-.824 3.106-.824 1.579 0 3.026.565 3.96 1.543zM34.82 9.844c.053-.353-.065-.671-.329-.942-.355-.353-.96-.577-1.579-.577-.237 0-.46.023-.658.094h-.026c-.434.118-.816.4-1.013.742-.145.259-.171.518-.066.765.237.636.96 1.048 1.855 1.048.922 0 1.658-.46 1.816-1.13zm45.625-2.838c.869.695 1.382 1.601 1.395 2.485.013.588 0 1.177 0 1.754a36.808 36.808 0 0 0 0 1.707l.013.342h-2.816c-.869 0-1.54.011-2.158.035h-.198c-1.29 0-2.368-.506-3.053-.942-1.079-.706-1.71-1.813-1.658-2.873-.052-1.036.58-2.107 1.632-2.79.895-.59 2.027-.907 3.198-.907 1.355 0 2.698.436 3.645 1.19zm-1.908 2.838a1.04 1.04 0 0 0-.29-.954c-.355-.377-.947-.6-1.565-.6-.237 0-.461.035-.658.106h-.027c-.474.117-.908.447-1.105.835a.915.915 0 0 0 .013.884c.29.541.948.87 1.724.87s1.671-.352 1.908-1.141zM46.598 7.159c.777.671 1.224 1.53 1.224 2.343.013.636.013 1.284.013 1.908 0 .506-.013 1.036 0 1.566v.341h-1.158c-.881 0-1.803-.012-2.697-.012-.33.048-.658.071-.987.071-1.356 0-2.62-.4-3.593-1.13-.96-.73-1.513-1.755-1.46-2.732-.053-1.024.565-2.096 1.618-2.779.882-.588 2.026-.918 3.21-.918 1.448 0 2.843.483 3.83 1.342zm-2.04 2.532c-.026-.872-.986-1.39-1.894-1.39-.25 0-.474.036-.685.106h-.026c-.474.118-.895.436-1.092.824a.882.882 0 0 0 0 .884c.29.541.947.87 1.724.87 1.197 0 1.855-.682 1.974-1.294zm13.318-3.862V8.3h-3.29V5.83zm32.676.518v7.63c-.224 1.154-.96 2.13-1.987 2.614-.96.47-2.132.73-3.37.73a9.47 9.47 0 0 1-1-.06l-.341-.035.013-.306a41.61 41.61 0 0 0 0-1.813l-.013-.388.42.047c.237.023.461.035.685.035.908 0 1.658-.2 2.237-.6.46-.295.5-.825.5-1.19l-.131.012c-.382.035-.764.082-1.145.082-.356 0-.658-.035-.935-.106-1.526-.341-2.776-1.519-3.105-2.931-.158-.59-.08-2.944-.066-3.415l.013-.33h2.974v.342c-.013.647-.026 2.249.04 3.155.04.495.579.919 1.144.919.106 0 .211-.012.316-.047.5-.142.869-.59.856-1.06.013-.836.013-2.343.013-2.955v-.33zm-32.676 6.935h-3.29V8.666h3.29z"/></g><g><path fill="#32448c" d="M15.242 21.564C8.255 22.836 1.86 19.398.518 14.052c-1.33-5.31 1.5-10.48 8.935-13.175 6.606-2.39 14.37 1.59 15.687 7.358 1.316 5.77-2.896 12.046-9.897 13.33zm8.265-12.952C22.362 3.608 15.637.17 9.913 2.242 3.465 4.574 1.017 9.06 2.175 13.652c.487 1.92 1.724 3.556 3.448 4.733 0-.012.013-.012.013-.012-.08-.86-.066-9.36-.066-9.36.198-.707.448-1.425.908-2.037 2.698-3.497 8.857-3.756 12.291-.99.921.766 2.567 2.838 2.014 5.017-.171.635-.487 1.224-.856 1.79-1.75 2.26-5.08 3.072-8.04 2.696-.5-.071-1.58-.377-1.685-.412.04 1.707-.013 3.414.027 5.122 1.474.247 3.066.247 4.698-.048 6.053-1.106 9.725-6.534 8.58-11.539zm-13.2 1.99c.132.318.303.636.566.883 1.316 1.296 3.817 1.366 5.199.118.54-.483.75-1.201.605-1.872l-.158-.365a3.366 3.366 0 0 0-.737-.848c-1.592-1.166-4.461-.918-5.382.848a3.09 3.09 0 0 0-.132.365c-.053.294-.026.589.04.871z"/></g><g><path fill="#32448c" d="M12.33 21.985c-5.803 0-10.79-3.144-11.988-7.9-.684-2.732-.276-5.393 1.198-7.69C3.093 3.983 5.804 2.016 9.383.722c3.145-1.142 6.777-.919 9.962.612 3.106 1.495 5.343 4.062 5.988 6.876.645 2.85-.027 5.934-1.856 8.478-1.895 2.637-4.803 4.439-8.185 5.051-1.013.165-2 .247-2.961.247zM13.556.332c-1.384 0-2.755.236-4.04.695C2.58 3.535-.724 8.397.698 14.014c1.158 4.604 6 7.642 11.633 7.642.947 0 1.908-.083 2.882-.26 3.277-.6 6.093-2.343 7.935-4.898 1.777-2.472 2.435-5.463 1.803-8.23-.619-2.72-2.79-5.193-5.79-6.64A12.975 12.975 0 0 0 13.555.331zM12.41 20.549c-.75 0-1.5-.059-2.224-.188l-.145-.024v-.141c-.013-.86-.013-1.731-.013-2.58 0-.835.013-1.695-.013-2.542v-.236l.25.07c.184.06 1.184.342 1.658.401 3.224.412 6.303-.624 7.856-2.626.29-.447.658-1.06.816-1.73.5-1.967-.895-3.98-1.96-4.851-1.712-1.366-4.199-2.037-6.646-1.778-2.277.235-4.185 1.212-5.356 2.743-.448.6-.685 1.307-.869 1.966 0 .471-.013 8.502.066 9.326l.013.2-.131-.012-.066.07-.145-.093c-1.816-1.248-3.027-2.92-3.514-4.84-.592-2.378-.237-4.686 1.04-6.676C4.369 4.912 6.725 3.205 9.83 2.075c2.738-.99 5.883-.8 8.646.53 2.698 1.295 4.646 3.52 5.199 5.97 1.197 5.286-2.79 10.655-8.712 11.738-.856.153-1.71.236-2.553.236zm-2.014-.495c1.461.224 2.974.2 4.488-.07 5.724-1.048 9.58-6.24 8.422-11.34-.54-2.342-2.408-4.485-5-5.733-2.659-1.284-5.699-1.46-8.33-.518-6.002 2.166-8.844 6.37-7.62 11.22.434 1.732 1.5 3.25 3.08 4.428-.067-1.802-.054-8.701-.054-9.02v-.035c.198-.694.448-1.436.935-2.096 1.25-1.613 3.237-2.637 5.632-2.884 2.566-.271 5.159.424 6.949 1.86.973.8 2.645 2.908 2.066 5.18-.185.707-.566 1.355-.869 1.838-1.645 2.12-4.869 3.202-8.225 2.779-.394-.048-1.092-.236-1.474-.342a67.94 67.94 0 0 1 0 2.32c-.013.804-.013 1.609 0 2.413zm3.066-7.394c-1.065-.024-2.065-.412-2.737-1.06-.25-.235-.434-.53-.605-.93l-.013-.023a2.622 2.622 0 0 1-.053-.942V9.68l.132-.389c.42-.8 1.237-1.354 2.29-1.566 1.197-.235 2.487.012 3.382.672.355.306.605.588.79.894l.012.012c.04.094.119.271.158.365l.014.024a2.078 2.078 0 0 1-.659 2.025c-.644.6-1.605.942-2.631.942zm-2.973-2.096c.144.353.315.612.513.812.605.59 1.5.943 2.474.954.947.024 1.842-.294 2.46-.847a1.812 1.812 0 0 0 .553-1.708c-.04-.094-.118-.259-.145-.341a2.938 2.938 0 0 0-.697-.79c-.79-.576-1.96-.812-3.04-.588-.934.189-1.658.671-2.026 1.378l-.119.341c-.066.212-.04.471.027.79z"/></g></g></g></svg>