<svg xmlns="http://www.w3.org/2000/svg" width="91" height="18" viewBox="0 0 91 18"><g><g><g><g><path fill="#32448c" d="M9.905 4.92l1.35.015v6.518h7.552l-.016 1.178H9.922zm20.305.03l3.184 3.475L36.56 4.95h1.617l-4.117 4.803v2.878h-1.334V9.753L28.609 4.95zm8.051 1.104c0-.642.767-1.104 1.517-1.119 1.784 0 5.935-.03 6.218.045.55.134 1.017.552 1.134 1.059.067.238.033.73.033.73H45.78v-.551c0-.105-.184-.12-.3-.12h-5.585c-.167-.015-.317.12-.3.269v1.551c-.017.15.133.283.3.283h5.818c.784.045 1.45.657 1.45 1.358v1.7c-.016.537-.433 1.044-.983 1.238-.317.12-4.551.12-6.352.12-.616-.016-1.216-.344-1.467-.866-.15-.313-.133-.999-.133-.999h1.35s-.083.522.167.686h5.785c.133 0 .283-.104.266-.224V9.872c0-.164.034-.343-.083-.477a1.443 1.443 0 0 0-.367-.045h-5.534c-.734 0-1.55-.388-1.55-1.119.016-.313 0-2.177 0-2.177zm19.454-1.119h1.634l5.918 6.115V4.935l1.367.015-.033 7.681h-1.55l-5.985-6.13-.017 6.13h-1.334zM9.272 6.277v2.238c0 .76-.784 1.342-1.634 1.342L1.72 9.842l-.033 2.774H.37V4.95h7.335c.783 0 1.55.596 1.567 1.327zm-1.35 2.208V6.352c0-.134-.1-.254-.267-.254H2.054c-.15 0-.334.06-.334.21v2.177c-.016.12.084.194.184.224h5.734c.15 0 .284-.09.284-.224zm20.537 2.625l-.016 1.506h-1.3l-.034-.581V9.932h-6.218v2.684h-1.334V6.277c0-.716.717-1.327 1.517-1.342h6.235c.567 0 1.15.641 1.15 1.387-.016 1.596 0 4.788 0 4.788zm-1.35-2.342s0-1.596-.017-2.401a.247.247 0 0 0-.266-.269h-5.651c-.167-.015-.317.12-.284.269v2.401zm29.656 2.909c-.216.552-.85.94-1.5.94h-5.751c-.8-.016-1.55-.627-1.567-1.358V6.203c0-.522.883-1.268 1.567-1.268h5.818c.717.015 1.517.507 1.517 1.119 0 .656.016 3.922.016 4.907 0 .238.017.492-.1.716zm-1.4-.224c.117 0 .167-.12.15-.224V6.247c0-.149-.133-.208-.3-.208h-5.551c-.35 0-.317.119-.35.208v4.982c-.017.105.066.224.166.224z"/></g></g><g><path fill="#32448c" d="M70.75.74l6.768 2.76-6.768 2.774z"/></g><g><path fill="#32448c" d="M77.52 3.5l6.752 2.76-6.752 2.759V3.5z"/></g><g><path fill="#32448c" d="M70.75 6.28l6.768 2.745-6.768 2.744z"/></g><g><path fill="#32448c" d="M90.888 8.99l-6.618 2.789V6.26z"/></g><g><path fill="#32448c" d="M84.272 11.78l-6.752 2.759V9.02z"/></g><g><path fill="#32448c" d="M77.518 14.534L70.75 17.28V11.76z"/></g></g></g></svg>