<svg xmlns="http://www.w3.org/2000/svg" width="54" height="54" viewBox="0 0 54 54"><g><g><g><path fill="#32448c" fill-opacity=".2" d="M16.377 15.19H12.72c-1.431 0-2.12.266-2.12 1.434v1.328c0 1.168.742 1.434 2.12 1.434h.848c.53 0 .742.265.742 1.115v17.42c0 1.434.265 2.124 1.431 2.124h1.378c1.166 0 1.431-.744 1.431-2.124V16.624c-.053-1.168-.795-1.434-2.173-1.434z"/></g><g><path fill="#32448c" fill-opacity=".2" d="M51.095 12.54c1.484 1.487 2.28 3.452 2.28 5.63v18.216c0 2.496-.902 4.461-2.545 6.108l-9.01 9.028c-1.856 1.806-3.87 2.55-6.308 2.55h-17.65c-2.544.052-4.558-.797-6.307-2.55l-9.01-9.028C.847 40.847 0 38.882 0 36.386V18.17c0-2.178.795-4.143 2.28-5.63l9.487-9.453C13.304 1.547 15.318.75 17.703.75h17.862c2.385 0 4.346.797 5.937 2.337zm-1.272 11.844v-5.79c0-1.486-.53-2.761-1.59-3.876l-9.17-9.294c-.954-.956-2.12-1.222-3.445-1.222H17.65c-1.325 0-2.544.319-3.445 1.222l-9.117 9.294c-1.113 1.115-1.59 2.39-1.59 3.877v17.791c-.053 1.487.424 2.55 1.484 3.611l9.01 9.03c1.06 1.061 2.227 1.54 3.658 1.54h18.021c1.431 0 2.597-.479 3.657-1.54l9.011-9.03c1.06-1.008 1.484-2.124 1.484-3.61v-6.162c-.053-.53-.318-.796-.848-.796h-2.703v1.912c0 1.38-.212 2.124-1.431 2.124h-1.22c-1.218 0-1.43-.69-1.43-2.124v-1.912h-1.909c-1.378 0-2.12-.213-2.12-1.434V26.72c0-1.221.69-1.434 2.12-1.434h1.856v-1.912c0-1.38.212-2.124 1.43-2.124h1.22c1.219 0 1.43.69 1.43 2.124v1.912h2.704c.583 0 .848-.318.848-.903z"/></g><g><path fill="#32448c" fill-opacity=".2" d="M36.675 33.51c0 4.462-1.537 6.692-7.633 6.798-6.042-.106-7.632-2.336-7.632-6.797 0-3.028.212-5.311 2.915-6.374-2.226-1.646-2.279-3.345-2.279-4.726V21.03c.265-4.567 1.75-6.32 7.05-6.32s6.784 1.753 7.049 6.32v1.38c0 1.382 0 3.081-2.28 4.727 2.704 1.063 2.916 3.346 2.81 6.374zM26.02 21.987c0 2.602.901 3.505 3.127 3.505 2.227 0 3.128-.903 3.128-3.505 0-2.709-.901-3.505-3.128-3.505-2.226 0-3.127.796-3.127 3.505zm6.626 10.994c0-2.55-.901-3.718-3.499-3.718-2.597 0-3.498 1.168-3.498 3.718 0 2.549.901 3.558 3.498 3.558 2.545 0 3.499-1.01 3.499-3.558z"/></g></g></g></svg>