<svg xmlns="http://www.w3.org/2000/svg" width="156" height="41" viewBox="0 0 156 41"><g><g><path fill="#524da3" d="M65.058 12.64c2.078 0 3.882.514 5.173 2.065.262 0 .262.252 0 .514l-1.553 1.803c-.252.262-.514.262-.514 0a5.003 5.003 0 0 0-3.095-1.027c-2.581 0-4.396 2.065-4.396 4.393 0 2.59 1.815 4.655 4.396 4.655 1.028 0 2.319-.525 3.095-1.038 0-.262.252-.262.514 0l1.805 1.813c0 .263 0 .525-.263.525-1.3 1.551-3.368 2.327-5.172 2.327-4.648 0-8.268-3.617-8.268-8.01s3.62-8.01 8.278-8.02zm12.664.524c0-.262.252-.262.514-.262h2.581c.252 0 .515 0 .515.262v9.037c0 1.552 1.028 2.842 2.58 2.842 1.805 0 2.844-1.29 2.844-2.842v-9.037c0-.262.262-.262.514-.262h2.592c.252 0 .514 0 .514.262v9.3c0 3.355-2.843 6.196-6.463 6.196-3.358 0-6.201-2.841-6.201-6.196zm21.195 0c0-.262.251-.262.514-.262h5.172c2.592 0 4.659 1.552 4.659 4.13 0 1.552-1.564 2.842-2.592 3.356 1.301.513 3.106 1.551 3.106 3.617 0 2.579-2.319 4.393-4.91 4.393H99.43c-.252 0-.514-.252-.514-.514zm3.357 5.955h1.815c.777 0 1.553-.776 1.553-1.551 0-1.038-.776-1.552-1.553-1.552h-1.815zm0 6.196h2.067c1.039 0 1.815-.776 1.815-1.814 0-.775-1.039-1.551-2.067-1.551h-1.815zm15.256-12.15c0-.263.262-.263.262-.263h2.843c.252 0 .252 0 .252.262v14.72c0 .252 0 .514-.252.514h-2.843s-.262-.252-.262-.514zm14.206 2.84h-3.095c-.252 0-.514-.262-.514-.262v-2.579c0-.262.251-.262.514-.262h9.82c.252 0 .514 0 .514.262v2.58s-.251.261-.514.261h-3.105v11.879c0 .252-.252.514-.514.514h-2.582c-.262 0-.524-.252-.524-.514zm13.461 10.338l1.029-2.066c.262-.262.514 0 .776 0 0 0 1.553 1.29 3.106 1.29 1.038 0 1.552-.514 1.552-1.29 0-1.038-.776-1.813-2.329-2.327-1.804-.776-4.396-2.328-4.396-4.907 0-2.327 1.794-4.393 5.162-4.393 2.33 0 4.145 1.038 4.921 1.552.262.262.262.514 0 .776l-1.039 1.803c-.262 0-.514.262-.776.262-.262-.262-1.815-1.551-3.106-1.551-.776 0-1.553.775-1.553 1.29 0 .775.787 1.289 2.592 2.065 1.553.775 4.396 2.065 4.396 5.168 0 2.328-2.077 4.655-5.172 4.655-3.106 0-4.659-1.3-5.173-1.814-.262-.262-.262-.262.01-.513z"/></g><g><path fill="#f7ce39" d="M32.996 37.71l-6.715-11.889h-4.658l-1.291-.765-2.33-3.88v-1.551l2.33-3.869 1.29-.776h4.66l6.714-12.14h-18.35l-1.302.776L4.3 19.625v1.552l9.044 15.757 1.301.776z"/></g><g><path fill="#524da3" d="M35.59 0l5.948 10.075 5.95 10.338-5.95 10.075-5.949 10.337H12.066L6.379 30.488.43 20.402l5.949-10.337L12.066 0zm-9.307 14.982l6.725-12.14h-18.35l6.966 12.14zm8.005-11.365l-7.24 12.654h-4.647l2.067 3.355h19.127l-4.648-8.01zm.01 33.318l4.66-8.01 4.647-7.747H24.468L22.4 24.28h4.658zm-1.3.776l-6.726-11.878h-4.648L14.647 37.71zM4.302 19.626h13.702l1.29-2.065 1.03-1.803-6.978-12.141-4.396 8.01zm13.702 1.552H4.302l4.648 7.748 4.396 8.01 6.988-11.88zm3.106 2.327l2.067-3.103-2.067-3.355-1.805 3.355z"/></g></g></svg>