<svg xmlns="http://www.w3.org/2000/svg" width="164" height="29" viewBox="0 0 164 29"><g><g><path fill="#83ba3b" d="M160.271 2.163c2.01 1.371 2.986 3.335 2.986 6.004 0 2.293-.59 4.201-1.748 5.688-1.159 1.473-2.824 2.456-4.958 2.913l-.969.208 4.235 11.256h-9.246l-4.087-13.775-2.527 13.775H56.81L60.837 6.41h-5.18L51.63 28.232H18.51l-6.116-17.764L9.24 28.232H0L5.208.02h9.677l6.302 17.287L24.352.02h55.6l-1.161 6.393h-8.885l-.908 4.937 8.556.009-1.012 5.527h-8.564l-.901 4.95h14.261L85.362.02h9.322l-3.845 20.693h6.379L101.033.02h9.327l-3.841 20.694h6.548L116.882.022h17.842l-1.169 6.39h-8.786l-.913 4.927 8.525-.012-1.011 5.559h-8.529l-.91 4.95h14.16L140.109.02h10.809c4.127 0 7.276.72 9.356 2.144zM43.586 21.835l2.833-15.422H32.293l-.846 4.898h8.788l-1.006 5.575h-8.873l-.914 4.95h14.146zm109.067-9.503c.699-.49 1.531-1.445 1.533-3.22 0-1.469-.715-2.245-1.316-2.638-.77-.5-1.887-.746-3.417-.746h-1.345l-1.402 7.571h1.828c1.843 0 3.192-.316 4.121-.966z"/></g></g></svg>