<svg xmlns="http://www.w3.org/2000/svg" width="85" height="30" viewBox="0 0 85 30"><defs><linearGradient id="6rnda" x1="23.05" x2="67.38" y1=".85" y2="29.85" gradientUnits="userSpaceOnUse"><stop offset="0" stop-color="#8c257d"/><stop offset="1" stop-color="#76348f"/></linearGradient></defs><g><g><path fill="url(#6rnda)" d="M57.588 4.335a3.484 3.484 0 1 1 6.968-.002 3.484 3.484 0 0 1-6.968.002zM42.722 9.697c-.237.76-1.727 5.342-5.119 9.642 0 0 3.78 6.623 4.644 10.215h-8.735s-1.043-4.769-3.155-7.937v7.937h-7.293V3.877l7.293-1.442v14.166c2.737-3.313 3.869-6.51 4.026-6.904zM55.43 9.53v5.797c-4.14.142-4.596 1.637-4.596 5.126v9.1h-7.126v-11.16c0-5.825 3.316-8.756 9.847-8.965 0 0 1.178-.046 1.875.102zM21.287 21.104c0 4.352-3.488 8.742-11.278 8.742-3.61 0-6.689-.358-9.421-1.074v-6.337c1.825.75 4.83 1.54 7.927 1.54 2.826 0 4.507-.937 4.507-2.526 0-1.923-2.053-2.042-2.826-2.09C1.072 18.739.09 13.345.09 11.053c0-3.976 2.823-8.617 10.789-8.617 4.62 0 7.112.722 9.256 1.472l.11.032v6.153l-.08-.022c-.863-.366-1.876-.723-1.876-.723-1.816-.543-4.359-1.123-6.322-1.123-1.117 0-4.094 0-4.094 2.246 0 1.862 2.068 1.996 2.961 2.054 6.55.44 10.453 3.645 10.453 8.58zm36.25-11.385h7.068v19.835h-7.068zm27.447-7.284v27.12h-7.07V3.7zM67.6 3.7l7.062-1.265v27.12H67.6z"/></g></g></svg>