<svg xmlns="http://www.w3.org/2000/svg" width="77" height="75" viewBox="0 0 77 75"><g><g><path fill="#87e389" d="M70.455 5.433a7.62 7.62 0 0 1 5.006 3.063 7.61 7.61 0 0 1 1.387 5.7l-4.837 30.86c-.592 3.777-3.868 6.485-7.58 6.485-.39 0-.785-.03-1.182-.092l-16.333-2.557v17.733c0 4.23-3.442 7.672-7.672 7.672H7.982c-4.23 0-7.672-3.441-7.672-7.672V35.392c0-4.228 3.442-7.668 7.672-7.668h19.575l3.247-20.731a7.618 7.618 0 0 1 3.068-5.007A7.609 7.609 0 0 1 39.574.605l10.733 1.687a1.495 1.495 0 0 1-.464 2.954L39.11 3.558a4.638 4.638 0 0 0-3.476.845 4.647 4.647 0 0 0-1.875 3.053l-3.175 20.268h8.66c4.231 0 7.673 3.44 7.673 7.668v10.473l16.793 2.63a4.692 4.692 0 0 0 5.347-3.901l4.837-30.86a4.638 4.638 0 0 0-.848-3.476 4.65 4.65 0 0 0-3.053-1.87l-8.404-1.315a1.494 1.494 0 1 1 .462-2.954zM39.243 71.307c2.582 0 4.683-2.1 4.683-4.682V35.392c0-2.58-2.1-4.678-4.683-4.678H7.983A4.685 4.685 0 0 0 3.3 35.392v31.233c0 2.581 2.1 4.682 4.682 4.682zM37.368 13.39a4.4 4.4 0 0 1 5.012-3.656h.002l.003.001a4.396 4.396 0 0 1 3.648 5.01 4.39 4.39 0 0 1-5.009 3.65 4.354 4.354 0 0 1-2.866-1.745 4.352 4.352 0 0 1-.79-3.26zm4.117 2.051c.76.119 1.475-.4 1.593-1.158a1.401 1.401 0 0 0-1.374-1.61c-.676 0-1.273.493-1.383 1.181a1.38 1.38 0 0 0 .252 1.032c.219.3.543.498.912.555zm6.522 12.56a4.342 4.342 0 0 1-.783-3.258 4.389 4.389 0 0 1 5.008-3.65 4.353 4.353 0 0 1 2.867 1.748c.69.947.97 2.105.79 3.262a4.4 4.4 0 0 1-5.013 3.65 4.356 4.356 0 0 1-2.869-1.752zm4.928-2.363a1.387 1.387 0 0 0-.252-1.035 1.385 1.385 0 0 0-1.128-.573 1.396 1.396 0 0 0-1.13 2.211c.22.303.544.5.912.558a1.403 1.403 0 0 0 1.598-1.161zm3.848 11.664a4.388 4.388 0 0 1 7.875-1.903c.69.946.971 2.103.79 3.26a4.351 4.351 0 0 1-1.749 2.864 4.354 4.354 0 0 1-3.26.79 4.354 4.354 0 0 1-2.866-1.749 4.36 4.36 0 0 1-.79-3.262zm3.206 1.5c.22.302.543.499.911.556.368.058.737-.032 1.038-.252.301-.219.499-.542.556-.91a1.382 1.382 0 0 0-.251-1.034 1.385 1.385 0 0 0-.912-.556 1.394 1.394 0 0 0-1.341 2.196zm-43.43 1.892a4.39 4.39 0 0 1-4.388 4.383 4.388 4.388 0 0 1-4.385-4.383 4.388 4.388 0 0 1 4.385-4.382 4.39 4.39 0 0 1 4.388 4.382zm-2.99 0a1.397 1.397 0 0 0-2.793 0 1.397 1.397 0 0 0 2.793 0zm5.711 9.697a4.388 4.388 0 0 1 4.384-4.382 4.388 4.388 0 0 1 4.385 4.382 4.39 4.39 0 0 1-4.385 4.386 4.39 4.39 0 0 1-4.384-4.386zm2.99 0c0 .77.626 1.397 1.394 1.397a1.395 1.395 0 1 0-1.394-1.396zm17.17-9.65a4.39 4.39 0 0 1-4.389 4.382 4.388 4.388 0 0 1-4.384-4.382 4.388 4.388 0 0 1 4.384-4.382 4.39 4.39 0 0 1 4.389 4.382zm-2.99 0a1.397 1.397 0 0 0-2.793 0 1.397 1.397 0 0 0 2.793 0zM7.786 61.275a4.388 4.388 0 0 1 4.385-4.382 4.39 4.39 0 0 1 4.388 4.382 4.39 4.39 0 0 1-4.388 4.383 4.389 4.389 0 0 1-4.385-4.383zm2.99 0a1.397 1.397 0 0 0 2.793 0 1.397 1.397 0 0 0-2.793 0zm28.664.046a4.39 4.39 0 0 1-4.389 4.383 4.388 4.388 0 0 1-4.384-4.383 4.388 4.388 0 0 1 4.384-4.382 4.39 4.39 0 0 1 4.389 4.382zm-2.99 0a1.397 1.397 0 0 0-2.793 0 1.397 1.397 0 0 0 2.793 0zM55.739 6.16a1.495 1.495 0 1 1 .491-2.95l.026.005a1.495 1.495 0 0 1-.492 2.949z"/></g></g></svg>