<svg xmlns="http://www.w3.org/2000/svg" width="71" height="71"><path fill="#87e389" d="M7.79 25.854L.587 9.502a1.378 1.378 0 011.947-1.75c8.884 5.09 19.922 5.09 28.806 0a31.774 31.774 0 0115.773-4.2c4.747 0 9.441 1.073 13.71 3.117V3.288A3.035 3.035 0 0163.855.257h4.133a3.035 3.035 0 013.032 3.031v66.14c0 .76-.617 1.378-1.378 1.378H62.2c-.76 0-1.378-.617-1.378-1.378v-7.441a1.378 1.378 0 012.756 0v6.063h4.685V44.855h-4.685v6.109a1.378 1.378 0 01-2.756 0v-6.49c-8.76-4.703-19.458-4.577-28.113.382a31.774 31.774 0 01-15.773 4.2 31.776 31.776 0 01-15.774-4.2 1.378 1.378 0 01-.586-1.726zM63.855 3.013a.276.276 0 00-.276.275v4.28h4.685v-4.28a.276.276 0 00-.276-.275zm4.409 7.312h-4.685v31.774h4.685zM31.34 42.465a31.774 31.774 0 0115.773-4.199c4.747 0 9.441 1.072 13.71 3.116V18.953c-8.76-4.703-19.458-4.577-28.113.382a1.378 1.378 0 01-1.37-2.391 31.775 31.775 0 0115.773-4.199c4.747 0 9.441 1.073 13.71 3.117V9.758c-8.76-4.703-19.458-4.575-28.113.384a31.774 31.774 0 01-15.773 4.2c-4.23 0-8.418-.852-12.3-2.483l5.913 13.425c.152.346.156.739.01 1.087L3.6 43.046c8.69 4.502 19.209 4.308 27.74-.58z"/><path fill="#87e389" d="M62.202 55.098c.362 0 .717.147.974.403.256.257.404.612.404.975 0 .362-.148.717-.404.974a1.389 1.389 0 01-.974.403c-.363 0-.718-.147-.974-.403a1.388 1.388 0 01-.404-.974c0-.363.147-.718.404-.975.256-.256.611-.403.974-.403zM27.014 19.057a1.382 1.382 0 011.378 1.378c0 .362-.148.718-.404.974-.257.256-.61.404-.974.404-.363 0-.718-.148-.974-.404a1.388 1.388 0 01-.404-.974 1.384 1.384 0 011.378-1.378z"/></svg>