<svg xmlns="http://www.w3.org/2000/svg" width="129" height="14" viewBox="0 0 129 14"><g><g><g/><g><path fill="#32448c" d="M12.23 1.08h8.996l.233 2.718h-.533c-.2-1.135-.233-1.344-.7-1.792-.466-.448-1.366-.388-2.099-.388h-2.299c-.166 0-.3.03-.433.149-.1.12-.166.269-.133.418V5.65h1c.5 0 1-.18 1.299-.508a2.335 2.335 0 0 0 .533-1.613h.533v4.869h-.533c-.033-.807-.2-1.374-.533-1.733-.367-.358-.866-.537-1.4-.537h-.932v3.912c0 .12.066.269.166.359.167.09.367.149.567.12h1.832c1.966 0 3.099-.568 3.399-2.838h.566l-.2 3.375H12.23v-.538h.5c.233.03.466-.03.666-.15.133-.119.2-.268.2-.417V2.155a.525.525 0 0 0-.167-.418.997.997 0 0 0-.533-.15h-.666z"/></g><g><path fill="#32448c" d="M21.05 4.4h4.065v.478c-.3-.03-.633.03-.933.12-.133.059-.2.178-.2.298 0 .09.033.209.067.299l1.965 3.942 1.833-3.823c.033-.06.033-.12.033-.209 0-.358-.366-.568-1.133-.657V4.37h3.099v.478c-.267 0-.533.09-.733.239-.2.12-.333.299-.433.508l-2.732 5.674h-.433l-2.932-5.824a.887.887 0 0 0-.4-.448c-.367-.09-.733-.15-1.1-.12z"/></g><g><path fill="#32448c" d="M32.718 4.182a3.426 3.426 0 0 1 2.533.985 3.42 3.42 0 0 1 1.032 2.569c.034.657-.133 1.284-.466 1.882-.3.507-.733.925-1.3 1.224-.566.299-1.199.448-1.832.448-.933 0-1.832-.358-2.465-.985-1.333-1.494-1.333-3.614 0-5.108.633-.657 1.532-1.015 2.498-1.015zm0 .507c-.6 0-1.132.27-1.466.717-.366.478-.566 1.255-.566 2.27 0 1.046.2 1.822.566 2.33.3.448.867.747 1.466.747.6 0 1.167-.27 1.5-.747.4-.478.566-1.284.566-2.39 0-1.045-.2-1.762-.566-2.24-.333-.418-.9-.687-1.5-.687z"/></g><g><path fill="#32448c" d="M38.715.96v9.14c0 .119.034.208.134.298.133.09.3.15.5.15h.466v.537h-3.599v-.538h.434c.2 0 .4-.03.533-.149.133-.12.2-.269.166-.448V2.334c.034-.18-.066-.388-.2-.508-.2-.15-.466-.239-.733-.239h-.666V1.05z"/></g><g><path fill="#32448c" d="M42.512 4.28V8.7c-.033.448.133.896.467 1.255.3.298.733.448 1.166.448.6 0 1.133-.24 1.499-.657a2.272 2.272 0 0 0 .633-1.613v-2.51a.67.67 0 0 0-.266-.537c-.334-.15-.7-.239-1.067-.209V4.37l2.632-.119v5.496c0 .209.067.418.234.597.2.15.433.209.666.209h.467v.478l-2.5.06-.166-1.315c-.366.419-.833.777-1.333 1.076-.4.239-.9.358-1.366.358-.633.03-1.232-.209-1.699-.597-.466-.389-.7-1.075-.7-2.031V5.684a.59.59 0 0 0-.333-.598c-.3-.12-.633-.179-.966-.15V4.43z"/></g><g><path fill="#32448c" d="M50.44 1.68h.532v2.718h4.531v.657h-4.53v4.271c-.034.299.066.597.299.866.2.21.466.299.733.299.366 0 .7-.18.933-.448.3-.448.466-.956.433-1.494h.533c-.033.896-.266 1.554-.666 1.972-.4.418-1 .657-1.633.657a2.192 2.192 0 0 1-1.432-.448 1.56 1.56 0 0 1-.534-1.195v-4.48H48.34v-.508c.533-.06 1-.298 1.333-.657.533-.657.8-1.433.766-2.21z"/></g><g><path fill="#32448c" d="M53.903 4.396l2.966-.09v5.735c0 .12.033.239.133.328.133.09.3.15.466.15h.533v.537H54.37v-.537h.466c.2.03.367-.03.5-.15s.167-.268.167-.448V5.86a.644.644 0 0 0-.267-.597c-.2-.15-.5-.209-.766-.209h-.6v-.657zM55.97 1.23c.233 0 .467.09.633.239.167.15.267.358.267.567 0 .21-.1.419-.267.568-.366.299-.9.299-1.266 0a.77.77 0 0 1 0-1.135c.2-.15.4-.239.633-.239z"/></g><g><path fill="#32448c" d="M61.738 4.182a3.426 3.426 0 0 1 2.533.985 3.42 3.42 0 0 1 1.032 2.569c.034.657-.133 1.284-.466 1.882-.3.507-.733.925-1.3 1.224-.566.299-1.199.448-1.832.448-.933 0-1.832-.358-2.465-.985-1.333-1.494-1.333-3.614 0-5.108.633-.657 1.566-1.015 2.498-1.015zm0 .507c-.6 0-1.132.27-1.466.717-.366.478-.566 1.255-.566 2.27 0 1.046.2 1.822.566 2.33.3.448.867.747 1.466.747.6 0 1.167-.27 1.5-.747.4-.478.566-1.284.566-2.39 0-1.045-.2-1.762-.566-2.24-.3-.418-.9-.687-1.5-.687z"/></g><g><path fill="#32448c" d="M65.14 4.4l2.466-.15c.1.478.2.986.233 1.464.3-.449.7-.807 1.166-1.076.466-.239 1-.358 1.533-.358.433 0 .866.09 1.232.269.367.209.633.478.8.836.2.388.3.836.3 1.254v3.256a.571.571 0 0 0 .166.508c.167.12.4.179.6.149h.2v.538h-3.232v-.538h.067c.266.03.5-.03.733-.15.133-.119.233-.268.2-.447V7.087c.033-.477-.1-.955-.333-1.373-.3-.419-.8-.658-1.367-.628-.6 0-1.132.24-1.499.657a2.31 2.31 0 0 0-.6 1.703v2.479a.516.516 0 0 0 .2.508c.167.119.4.179.633.149h.2v.537h-3.331v-.537h.2c.2 0 .433-.03.6-.15.132-.09.199-.209.199-.358v-4.36c.033-.24-.067-.478-.266-.658-.2-.149-.467-.239-.733-.209h-.367z"/></g><g><path fill="#32448c" d="M83.523 1.915L84.189.87h.533l.3 4.211h-.5c-.4-1.194-.866-2.09-1.399-2.628-.566-.627-1.433-1.016-2.365-1.045-.667 0-1.333.179-1.866.537-.567.388-1 .926-1.233 1.553-.333.837-.467 1.762-.433 2.659-.034.866.1 1.762.433 2.598a3.276 3.276 0 0 0 1.2 1.523 3.106 3.106 0 0 0 1.799.478c.8.06 1.566-.209 2.165-.687.5-.478.8-1.135.767-1.792v-.986a.413.413 0 0 0-.2-.358 1.26 1.26 0 0 0-.667-.12h-1v-.507h4.532v.508h-.333a.95.95 0 0 0-.633.149c-.133.09-.2.239-.2.418v4.002h-.533c-.2-.627-.4-1.224-.6-1.792-.333.538-.833.986-1.433 1.314a3.97 3.97 0 0 1-1.865.448 5.884 5.884 0 0 1-2.766-.687c-2.632-1.493-3.498-4.57-1.999-7.018a5.292 5.292 0 0 1 2.032-1.972c.767-.477 1.666-.716 2.6-.746.5 0 .966.06 1.432.239.566.12 1.1.388 1.566.746z"/></g><g><path fill="#32448c" d="M94.323 10.754c0 .388-.5.329-.966.329-.367 0-1.066-.03-1.333-.18-.266-.149-.333-.358-.533-.806a4.542 4.542 0 0 1-1.333.956c-.433.179-.9.239-1.366.239-.633.03-1.233-.12-1.732-.448-.4-.269-.6-.687-.6-1.135 0-.687.466-1.284 1.366-1.733a10.77 10.77 0 0 1 3.632-.925V6.035c0-.358-.167-.687-.5-.926-.333-.269-.766-.388-1.233-.388-.4 0-.833.09-1.2.269-.233.12-.366.269-.366.388.034.12.1.239.2.329.133.149.2.328.233.507 0 .21-.066.389-.233.538-.166.15-.366.209-.6.209a.99.99 0 0 1-.666-.239.91.91 0 0 1-.266-.627c0-.478.3-.896.9-1.284.699-.419 1.498-.628 2.331-.598.733-.03 1.433.15 2.033.508.433.299.7.777.7 1.254V9.59c0 .21.033.448.166.628.1.119.233.238.433.268.233.03.533.06.8.06zm-2.899-3.226c-1.332.18-2.299.448-2.865.807-.433.299-.666.747-.633 1.224-.033.329.1.628.333.867.233.209.533.298.833.298.633 0 1.2-.239 1.633-.627.466-.418.7-1.015.7-1.613z"/></g><g><path fill="#32448c" d="M93.92 4.393l2.132-.12c.1.479.2.956.234 1.404.3-.448.733-.806 1.199-1.105.4-.209.866-.328 1.333-.328.466-.03.9.12 1.266.358.4.329.666.717.766 1.195.3-.448.7-.866 1.166-1.165a3.007 3.007 0 0 1 1.433-.388c.566-.03 1.133.15 1.533.537.466.538.7 1.165.666 1.852v3.315c-.033.15.033.3.167.419.2.119.433.179.666.149h.333v.538h-3.732v-.538h.367c.233.03.466-.03.666-.15.134-.119.2-.268.2-.418V6.633c.034-.418-.1-.836-.4-1.165-.266-.268-.666-.418-1.066-.418-.333 0-.633.09-.9.24-.266.178-.5.417-.632.686-.2.329-.3.687-.334 1.075V9.92c0 .149.034.328.167.448.167.09.333.149.533.149h.5v.538h-3.798v-.538h.433c.2 0 .433-.03.6-.15.133-.089.2-.209.2-.358V6.962c.033-.508-.1-.986-.4-1.434-.234-.299-.634-.448-1.033-.448-.5-.03-.967.18-1.3.508-.433.478-.666 1.075-.633 1.702v2.658c-.033.15.034.3.167.419.2.119.433.179.666.149h.4v.538H93.72v-.538h.566c.167 0 .367-.03.5-.15.1-.089.167-.238.167-.358v-4.36c.033-.21-.067-.389-.2-.538a1.576 1.576 0 0 0-.833-.239v-.478z"/></g><g><path fill="#32448c" d="M107.016 4.396l2.666-.09v5.735c0 .12.033.239.133.328.133.09.3.15.467.15h.833v.537h-4.565v-.537h1.1c.2.03.366-.03.5-.15.133-.12.166-.268.166-.448V5.74a.644.644 0 0 0-.267-.597c-.2-.15-.5-.21-.766-.21h-.3zm1.766-3.166c.234 0 .467.09.633.239.167.15.267.358.267.567 0 .21-.1.419-.267.568-.366.299-.9.299-1.266 0a.77.77 0 0 1 0-1.135c.2-.15.4-.239.633-.239z"/></g><g><path fill="#32448c" d="M110.88 4.4l2.465-.15c.1.478.2.986.234 1.464.3-.449.7-.807 1.166-1.076.466-.239 1-.358 1.533-.358.433 0 .866.09 1.232.269.367.209.633.478.8.836.2.388.3.836.3 1.254v3.256a.571.571 0 0 0 .166.508c.167.12.4.179.6.149h.233v.538h-3.298v-.538h.066c.267.03.5-.03.733-.15.134-.119.234-.268.2-.447V7.087c.034-.477-.1-.955-.333-1.373-.3-.419-.8-.658-1.366-.628-.6 0-1.133.24-1.5.657a2.31 2.31 0 0 0-.599 1.703v2.479a.516.516 0 0 0 .2.508c.167.119.4.179.6.149h.2v.537h-3.632v-.537h.5c.2 0 .433-.03.6-.15.133-.09.2-.209.2-.358v-4.36c.033-.24-.067-.478-.267-.658-.2-.149-.467-.239-.733-.209h-.4z"/></g><g><path fill="#32448c" d="M125.304 4.752c.533-.478 2-1.195 2.5-1.195.266-.03.532.03.765.18.167.149-.133.507-.133.716 0 .15-.066.329-.166.448-.1.12-.267.18-.4.18-.3 0-.5-.18-.6-.508-.033-.15-.1-.21-.2-.21-.466.15-.933.39-1.3.688.2.209.367.478.467.747.1.209.133.448.133.657 0 .388-.1.776-.333 1.105a2.658 2.658 0 0 1-1.1.836 3.242 3.242 0 0 1-1.499.358h-.866c-.433-.03-.833.03-1.233.18-.2.119-.3.298-.3.507 0 .18.1.329.234.418.3.12.6.18.933.15l1.965-.03c1 0 1.7.15 2.133.448.433.269.7.747.666 1.225 0 .567-.266 1.075-.733 1.433-.7.538-1.732.836-3.098.836-1.133 0-2-.179-2.533-.567-.4-.21-.633-.597-.666-.986 0-.298.167-.567.4-.776.4-.269.9-.448 1.4-.508-.434-.09-.834-.239-1.2-.508-.267-.209-.4-.507-.4-.836 0-.299.133-.567.333-.806.3-.27.7-.478 1.1-.598a2.53 2.53 0 0 1-1-.806 1.866 1.866 0 0 1-.333-1.075c0-.628.3-1.225.833-1.613a3.568 3.568 0 0 1 2.199-.657c.366 0 .733.06 1.066.149.333.09.666.239.966.418zm-1.632 6.332c-.967 0-1.666.12-2.1.358-.366.18-.6.508-.632.867 0 .298.166.597.466.746.533.27 1.166.418 1.766.359.7.03 1.433-.09 2.066-.418.466-.27.7-.568.7-.896a.78.78 0 0 0-.2-.538 1.32 1.32 0 0 0-.667-.388c-.466-.06-.933-.12-1.4-.09zm-.467-6.451c-.433 0-.866.149-1.166.478-.333.358-.5.836-.466 1.314-.034.507.133.985.466 1.403.533.568 1.533.658 2.166.15.066-.06.133-.09.166-.15.334-.388.5-.896.467-1.373a1.754 1.754 0 0 0-.467-1.315c-.266-.328-.7-.507-1.166-.507z"/></g><g><path fill="#32448c" d="M128.073 3.62c.233 0 .466.09.633.239.167.15.267.358.267.567 0 .21-.1.419-.267.568-.367.299-.9.299-1.266 0a.77.77 0 0 1 0-1.135c.2-.18.4-.239.633-.239z"/></g><g><path fill="#32448c" d="M8.896 11.147v-.24h.234c.033.03.066.06.066.09.034.09-.033.12-.133.15 0-.03 0-.03 0 0zm.467-.12c0-.06-.034-.149-.1-.179-.067-.06-.167-.06-.267-.06H8.73v.777h.166v-.299h.134l.166.299h.167l-.2-.299c.166-.06.233-.149.2-.239zm-.3.747c-.367 0-.666-.269-.666-.597 0-.329.3-.598.666-.598.366 0 .666.27.666.598 0 .328-.3.597-.666.597zm0-1.344c-.467 0-.833.329-.833.747s.366.746.833.746c.466 0 .833-.328.833-.746s-.4-.747-.833-.747z"/></g><g><path fill="#32448c" d="M.3.747c3.965-1.912 9.096.09 9.462 4.928"/></g><g><path fill="#32448c" d="M.3 11.082c3.965 1.911 9.063-.12 9.462-4.929"/></g><g><path fill="#32448c" d="M7.663 5.735C2.233 5.585 1.4 2.957.3.747 3.032-.627 6.497.03 8.396 2.24a4.97 4.97 0 0 1-.733 3.495zm-.266.388c-1.2 1.583-3.165 2.539-5.298 2.539-.166 0-.3-.03-.466-.03.966-1.314 2.499-2.36 5.764-2.51z"/></g></g></g></svg>