<svg xmlns="http://www.w3.org/2000/svg" width="77" height="17" viewBox="0 0 77 17"><g><g><g><path fill="#32448c" d="M9.46.05C4.246.05.02 3.838.02 8.527c0 .839.139 1.662.416 2.454.173-.218.346-.435.502-.652.658-.87 1.299-1.74 1.94-2.624l.468-.668c.155-.217.311-.45.45-.668.312-.45.606-.9.883-1.35.139-.233.277-.45.433-.684.156-.233.277-.45.416-.683.138-.233.277-.466.398-.683l.381-.699.035-.046c.208-.373.71-.528 1.143-.357.312.155.502.45.485.776 0 .404-.087.823-.121 1.227-.035.403-.052.822-.087 1.242a59.432 59.432 0 0 0-.052 2.484c0 .823.052 1.646.139 2.437.052.389.121.777.208 1.165.069.342.19.683.363.994.052.093.122.186.208.264.052.03.018.015.052.015h.035l.034-.015h.018l.052-.016c.017-.015.052-.031.069-.046a2.41 2.41 0 0 0 .381-.327c.277-.295.537-.59.762-.916.243-.326.468-.683.693-1.04.45-.714.866-1.444 1.264-2.19.19-.372.399-.744.59-1.117.19-.373.38-.76.553-1.133.174-.389.676-.575 1.109-.42.277.094.468.31.52.575 0 .093.017.217.034.341l.035.358c.035.232.07.465.121.698.087.466.19.932.33 1.382.138.45.311.9.519 1.335.208.435.467.839.797 1.211.069.094.052.218-.035.28-.087.062-.208.062-.277 0a6.844 6.844 0 0 1-1.143-1.15c-.33-.418-.607-.869-.866-1.319-.174-.31-.312-.62-.468-.931-.104.186-.19.372-.294.543-.416.76-.832 1.522-1.317 2.282-.225.373-.467.746-.745 1.118-.277.389-.588.761-.918 1.103-.19.202-.415.372-.64.543-.07.047-.139.093-.226.124l-.155.078-.087.031h-.017l-.052.016H9.32l-.07.015c-.051.016-.086.031-.138.031l-.312.047a1.964 1.964 0 0 1-.675-.078 1.954 1.954 0 0 1-.572-.295 2.454 2.454 0 0 1-.64-.73 4.999 4.999 0 0 1-.52-1.382 11.671 11.671 0 0 1-.225-1.32 26.035 26.035 0 0 1-.156-2.592V6.338c-.173.295-.347.59-.52.87-.138.233-.277.465-.433.698l-.433.7a70.789 70.789 0 0 1-1.836 2.763c-.398.59-.814 1.18-1.23 1.754 2.858 3.913 8.713 5 13.077 2.438 4.365-2.562 5.577-7.81 2.72-11.723C15.608 1.494 12.646.05 9.46.05z"/></g><g><path fill="#32448c" d="M27.084 11.57V5.95h-.156l-2.01 5.62h-.502l-2.009-5.62h-.156v5.62h-.831V5.36h1.472l1.784 4.937 1.75-4.937h1.49v6.226h-.832z"/></g><g><path fill="#32448c" d="M30.02 6.167V5.36h-.9v.807zm0 5.404V6.773h-.883v4.798z"/></g><g><path fill="#32448c" d="M35.374 9.993c0 .931-.398 1.645-2.13 1.645-2.183 0-2.304-1.117-2.304-2.484 0-1.366.121-2.484 2.304-2.484 1.732 0 2.13.714 2.13 1.646h-.831c0-.761-.295-1.134-1.3-1.134-1.35 0-1.42.652-1.42 1.957 0 1.304.07 1.956 1.42 1.956 1.005 0 1.3-.373 1.3-1.133z"/></g><g><path fill="#32448c" d="M37.094 7.284c.416-.232.953-.543 1.455-.558.104-.016.208-.016.312-.016.138 0 .26 0 .415.016l-.069.574c-.138-.016-.26-.016-.38-.016-.105 0-.209 0-.33.016-.468.016-.97.326-1.334.512v3.773h-.883V6.772h.693z"/></g><g><path fill="#32448c" d="M44.226 9.174c0 1.367-.12 2.484-2.338 2.484-2.217 0-2.338-1.117-2.338-2.484 0-1.366.121-2.484 2.338-2.484s2.338 1.118 2.338 2.484zm-3.793 0c0 1.304.07 1.957 1.455 1.957 1.386 0 1.455-.637 1.455-1.957s-.07-1.956-1.455-1.956-1.455.636-1.455 1.956z"/></g><g><path fill="#32448c" d="M45.834 12.683c.33.031.762.047 1.247.047 1.351 0 1.524-.326 1.542-1.6-.399.202-.953.435-1.525.45-1.957.032-2.078-.915-2.078-2.406 0-1.49.104-2.484 1.992-2.484.64 0 1.23.264 1.697.528l.087-.435h.693v4.254c0 1.724-.433 2.252-2.2 2.252-.52 0-1.04-.047-1.542-.109zm2.789-5.03c-.381-.218-.866-.435-1.334-.435-1.3 0-1.386.652-1.386 1.956 0 1.273.087 1.879 1.386 1.879.468 0 .97-.233 1.334-.404z"/></g><g><path fill="#32448c" d="M54.293 11.565l-.086-.434c-.433.248-1.005.527-1.629.527-1.957.032-2.078-.962-2.078-2.484 0-1.521.104-2.484 2.044-2.484.64 0 1.212.264 1.645.497l.087-.42h.693v4.798zm-.173-3.943c-.364-.187-.866-.404-1.334-.404-1.299 0-1.385.652-1.385 1.956 0 1.304.086 1.957 1.385 1.957.468 0 .953-.233 1.334-.435z"/></g><g><path fill="#32448c" d="M56.837 7.19c.398-.218.935-.482 1.507-.497.9-.031 1.368.186 1.593.528.416-.233.97-.513 1.576-.528 1.836-.047 1.94.792 1.94 1.956v2.92h-.883V8.695c0-.994-.07-1.475-1.265-1.475-.433 0-.883.233-1.247.435.087.341.122.698.104 1.055v2.873H59.4V8.696c0-.994-.07-1.475-1.264-1.475-.416 0-.866.233-1.213.404v3.943h-.883V6.771h.693z"/></g><g><path fill="#32448c" d="M65.46 6.167V5.36h-.9v.807zm0 5.404V6.773h-.883v4.798z"/></g><g><path fill="#32448c" d="M67.33 7.189c.432-.218 1.004-.482 1.628-.497 1.957-.047 2.078.792 2.078 1.956v2.92h-.883V8.694c0-.994-.087-1.475-1.386-1.475-.468 0-.97.233-1.334.419v3.944h-.883V6.769h.693z"/></g><g><path fill="#32448c" d="M72.754 12.683c.33.031.762.047 1.247.047 1.351 0 1.524-.326 1.542-1.6-.399.202-.953.435-1.525.45-1.957.032-2.078-.915-2.078-2.406 0-1.49.104-2.484 1.992-2.484.64 0 1.23.264 1.697.528l.087-.435h.693v4.254c0 1.724-.433 2.252-2.2 2.252-.52 0-1.04-.047-1.542-.109zm2.771-5.03c-.38-.218-.866-.435-1.333-.435-1.3 0-1.386.652-1.386 1.956 0 1.273.087 1.879 1.386 1.879.467 0 .97-.233 1.333-.404z"/></g></g></g></svg>