<svg xmlns="http://www.w3.org/2000/svg" width="92" height="36" viewBox="0 0 92 36"><g><g><g><path fill="#32448c" d="M72.503 35.588c-7.617 0-13.813-5.544-13.813-12.36 0-6.814 6.196-12.358 13.813-12.358 7.616 0 13.813 5.544 13.813 12.359s-6.197 12.359-13.813 12.359zm0-23.198c-6.678 0-12.122 4.864-12.122 10.846 0 5.983 5.435 10.847 12.122 10.847 6.686 0 12.122-4.864 12.122-10.847 0-5.982-5.444-10.846-12.122-10.846z"/></g><g><path fill="#32448c" d="M71.983 3.004c.026-.007.051.023.034.046-1.834 2.783-.879 6.792-.778 7.178.009.015-.008.03-.025.03-2.265.182-4.379.817-6.222 1.815-.025.008-.042 0-.05-.015-.153-.431-1.75-4.795-5.064-6.323-.025-.008-.025-.045.009-.053.532-.068 3.296-.136 5.697 3.29.017.023.06.015.05-.015-.54-1.876-1.284-8.237-.878-8.365.355-.121 3.795 6.073 4.176 7.556.008.03.05.022.05-.008.102-3.698 2.528-4.992 3.001-5.136zm-.146 12.104c.578-1.371 2.833-1.882 5.033-1.14 2.201.741 3.519 2.457 2.941 3.828-.577 1.371-2.833 1.882-5.033 1.14s-3.518-2.457-2.94-3.828z"/></g><g><path fill="#32448c" d="M6.122 20.257h1.886c.667 0 1.285.144 1.623.37.566.387.718 1.052.718 1.438 0 .582-.22.938-.44 1.195-.185.212-.659.408-.98.522.431.56 1.733 2.806 1.733 2.806H9.123S7.678 23.97 7.534 23.97h-.228v2.534H6.122zm1.184 1.09v1.429h.6c.38 0 .592-.06.803-.19.212-.128.321-.302.321-.521 0-.22-.101-.393-.312-.522-.212-.129-.423-.197-.812-.197zM.67 20.256h1.885c.668 0 1.285.144 1.623.37.567.387.719 1.052.719 1.438 0 .93-.677 1.58-1.32 1.732-.709.166-1.723.174-1.723.174v2.534H.67zm1.192 1.09v1.429h.6c.38 0 .592-.06.803-.19.212-.128.321-.302.321-.521 0-.22-.101-.393-.312-.522-.212-.129-.423-.197-.812-.197zm60.577-1.007h1.97c.667 0 1.285.144 1.623.371.566.386.718 1.051.718 1.437 0 .582-.22.938-.44 1.195-.185.212-.659.409-.98.522-.422.144-1.53.114-1.53.114l-.008 2.616h-1.353zm1.361 1.09v1.43h.516c.38 0 .591-.061.803-.19.211-.129.321-.302.321-.522 0-.22-.101-.393-.313-.522-.211-.136-.422-.196-.811-.196zm-39.038.499c-.558-.462-1.428-.862-2.164-.862-.33 0-.642.052-.93.158-.287.106-.55.25-.769.447a1.95 1.95 0 0 0-.516.726c-.127.295-.194.62-.194.968 0 .696.22 1.255.66 1.679.439.431 1.022.643 1.74.643a2.4 2.4 0 0 0 1.455-.462c.236-.174.524-.325.65-.824l-2.087-.008-.017-1.074h3.61c0 1.165-.237 1.732-.905 2.413-.66.68-1.564 1.021-2.714 1.021-.55 0-1.056-.083-1.53-.257a3.71 3.71 0 0 1-1.217-.703 3.165 3.165 0 0 1-1.082-2.42c0-.651.169-1.226.499-1.733a3.346 3.346 0 0 1 1.378-1.195 4.41 4.41 0 0 1 1.935-.423 4.62 4.62 0 0 1 1.547.242c.448.159 1.26.62 1.573.854zm10.559 4.576h-1.336l-.634-3.964-1.547 3.964h-1.226l-1.58-4.017-.618 4.017h-1.318l1.107-6.248h1.226l1.809 4.637 1.8-4.637h1.226zm55.868-4.122h-.406l-.194-1.203-.465 1.203h-.372l-.473-1.218-.186 1.218h-.398l.33-1.891h.372l.541 1.407.541-1.407h.38zm-52.014-2.201h1.21l2.907 6.406H41.78l-.592-1.301h-2.79l-.591 1.3h-1.454zm1.116 2.889c-.152-.348-.33-.802-.524-1.362h-.034a30.724 30.724 0 0 1-.49 1.362l-.473 1.013h2zm.478 1.013l.004.008v-.008zm33.708-3.902h1.217l2.908 6.406h-1.513l-.592-1.301h-2.79l-.591 1.3h-1.454zm1.116 2.889c-.152-.348-.33-.802-.525-1.362h-.033a30.683 30.683 0 0 1-.49 1.362l-.474 1.013h2zm.478 1.013l.003.008v-.008zm-61.647-3.902h1.209l2.907 6.406h-1.513l-.591-1.301h-2.79l-.592 1.3H11.6zm1.107 2.889c-.152-.348-.33-.802-.524-1.362h-.034a30.724 30.724 0 0 1-.49 1.362l-.473 1.013h2zm.478 1.013l.004.008v-.008zM43.123 21.4v-1.202h4.176v1.202h-1.395v5.174H44.51v-5.174zm44.186-.56v-.362h1.26v.363h-.423v1.565h-.423V20.84zm-39.055 5.794v-6.368h1.387v6.368zm19.283 0V20.34h1.394v5.128h1.936v1.165zm12.18-2.806l-2.13-3.524h1.285l1.463 2.458h.025l1.463-2.458h1.285l-2.164 3.524v2.753h-1.226zm-22.874.855l.87.771a3.52 3.52 0 0 1-1.124.885 4.267 4.267 0 0 1-1.952.447c-.727 0-1.378-.144-1.962-.44a3.428 3.428 0 0 1-1.369-1.217 3.2 3.2 0 0 1-.499-1.74l.017-.007c0-.635.17-1.218.499-1.732a3.41 3.41 0 0 1 1.37-1.21c.583-.295 1.242-.439 1.96-.439.72 0 1.378.144 1.953.439.44.227.812.514 1.108.87l-.863.68s-.634-.93-2.206-.93c-.71 0-1.285.22-1.733.65-.448.432-.668.991-.668 1.672 0 .688.22 1.248.668 1.679.44.431 1.023.673 1.733.65 1.37-.037 2.198-1.028 2.198-1.028z"/></g></g></g></svg>