<svg xmlns="http://www.w3.org/2000/svg" width="91" height="22" viewBox="0 0 91 22"><g><g><g><path fill="#32448c" d="M31.45 9.697c.063 1.467-.327 2.813-1.478 3.916-.915.875-2.057 1.354-3.407 1.394-.644.016-1.314.049-1.94-.065-2.238-.38-3.787-1.848-4.159-3.9-.208-1.143-.2-2.286.181-3.413.77-2.295 3.081-3.592 5.89-3.324 2.918.275 4.794 2.083 4.921 4.718 0 .228-.009.455-.009.674zm-8.79-.195c.072.576.09.98.171 1.37.281 1.33 1.269 2.23 2.565 2.352 1.577.154 2.782-.382 3.326-1.557.607-1.306.598-2.652.009-3.965-.49-1.087-1.532-1.622-2.91-1.59-1.331.025-2.337.617-2.754 1.72-.227.583-.3 1.216-.408 1.67z"/></g><g><path fill="#32448c" d="M9.484 7.498c-.671 0-1.305.008-1.93-.009-.11 0-.282-.113-.3-.202-.208-.835-.86-1.208-1.721-1.265a6.053 6.053 0 0 0-1.668.146c-.507.113-.78.494-.806.973-.028.454.262.746.688.9.58.21 1.196.365 1.795.527.76.202 1.558.348 2.301.592 2.311.77 2.8 3.454.979 4.962-1.44 1.2-5.582 1.248-7.023-.049-.752-.673-1.106-1.46-1.169-2.44.707 0 1.386-.009 2.066.008.09 0 .236.113.263.202.254.965 1.024 1.37 2.039 1.42a6.844 6.844 0 0 0 1.676-.122c.553-.106.88-.463.952-.981.072-.495-.254-.827-.689-.99-.879-.316-1.785-.56-2.682-.819-.471-.137-.97-.227-1.441-.364C1.609 9.638.938 8.884.829 7.757c-.136-1.265.227-2.36 1.595-2.96.544-.243 1.16-.372 1.758-.462 1.015-.137 2.03-.097 3.009.211 1.459.462 2.347 1.581 2.293 2.952z"/></g><g><path fill="#32448c" d="M11.07 4.548c1.83 0 3.634-.05 5.437.016 1.894.065 2.954.965 3.163 2.643a5.1 5.1 0 0 1-.109 1.776c-.335 1.37-1.45 2.1-3.19 2.148-.997.025-1.993.008-3.035.008v3.56H11.07zm5.274 4.645c.716-.064 1.024-.551 1.06-1.313.037-.738-.299-1.37-.951-1.451-1.024-.13-2.066-.114-3.108-.154v2.943c1.014 0 2.02.065 3-.025z"/></g><g><path fill="#32448c" d="M40.61 6.354h-3.281v8.36h-2.347V6.37H31.62v-1.8h8.99z"/></g><g><path fill="#32448c" d="M83.382 14.544h-.952V4.782c.942-.179 1.042-.146 1.54.543 1.804 2.457 3.607 4.914 5.401 7.362.1.138.209.268.39.51V4.742h.97v9.738c-.816.227-1.07.154-1.495-.438-1.82-2.48-3.641-4.958-5.465-7.435-.1-.13-.2-.26-.399-.348.01 2.748.01 5.497.01 8.286z"/></g><g><path fill="#32448c" d="M70.97 9.62c.118-.673.154-1.37.362-2.019.69-2.149 2.538-3.235 5.202-3.146 2.157.073 3.915 1.451 4.422 3.486.336 1.346.308 2.7-.19 4.014-.68 1.784-2.257 2.821-4.35 2.886-3.144.098-5.247-1.67-5.346-4.5-.01-.235 0-.478 0-.713-.037 0-.064 0-.1-.008zm9.307.09c-.046-.009-.1-.025-.145-.033-.01-.892-.127-1.76-.59-2.562-.715-1.233-1.848-1.873-3.416-1.882-1.577-.008-2.755.6-3.434 1.849-.906 1.67-.906 3.414-.064 5.1.662 1.305 1.885 1.938 3.48 1.93 1.595-.008 2.827-.649 3.453-1.962.362-.77.489-1.622.716-2.44z"/></g><g><path fill="#32448c" d="M41.14 9.623c.154-.746.218-1.508.471-2.222.662-1.856 2.374-2.943 4.513-2.95 2.438-.009 4.114.98 4.84 2.918.597 1.622.606 3.276-.128 4.857-.743 1.613-2.102 2.53-4.105 2.61-3.298.13-5.455-1.727-5.473-4.702v-.495a.59.59 0 0 1-.118-.016zm1.015-.024c.136.68.19 1.321.39 1.937.516 1.614 1.903 2.555 3.697 2.579 1.812.016 3.244-.916 3.797-2.522.444-1.289.444-2.594-.018-3.875-.562-1.573-1.903-2.465-3.67-2.482-1.795-.016-3.145.82-3.734 2.392-.236.64-.317 1.33-.462 1.97z"/></g><g><path fill="#32448c" d="M53.596 13.885c0 .77 0 .77-.906.648v-9.77c.109-.008.235-.032.362-.032 1.296 0 2.601-.033 3.897.016.553.024 1.106.186 1.64.332.218.057.417.195.59.325 1.603 1.224 1.087 3.997-.907 4.58-.834.244-1.767.26-2.655.333-.634.04-1.287 0-2.02 0zm.045-4.42c.127.017.19.025.254.025.834 0 1.667.016 2.501-.008.426-.016.87-.065 1.278-.17 1.024-.26 1.45-.892 1.395-2.003-.036-.908-.543-1.565-1.53-1.67-1.279-.138-2.575-.122-3.898-.17z"/></g><g><path fill="#32448c" d="M63.526 5.504H60.11V4.75h7.83v.754h-3.39v9.024h-1.024V5.504z"/></g><g><path fill="#32448c" d="M11.33.4c.979.584 2.048.81 3.217.778.797-.016 1.595.008 2.392.081 1.16.106 2.112.609 2.9 1.363.127.113.245.235.48.47.082-.13.118-.251.209-.34 1.042-1.087 2.383-1.557 3.969-1.582.933-.016 1.867-.008 2.79-.105.518-.049 1.007-.276 1.532-.43-.643.86-1.567 1.224-2.682 1.265-.58.016-1.169 0-1.749 0-1.948 0-3.452.997-4.014 2.66a5.142 5.142 0 0 0-.118.372c-.082-.235-.136-.38-.19-.535-.562-1.516-2.066-2.489-3.843-2.505-.86-.008-1.74.008-2.591-.097-1.015-.106-1.75-.65-2.302-1.395z"/></g><g><path fill="#32448c" d="M68.72 4.74h.915v9.803h-.915V4.74z"/></g><g><path fill="#32448c" d="M51.855 18.824c.59-.333.87-.325 1.423.073.136-.081.254-.179.408-.235.534-.22 1.05.008 1.105.527.055.47.037.948.028 1.427 0 .08-.127.17-.19.25-.064-.088-.182-.17-.182-.259-.027-.405-.018-.802-.018-1.208 0-.284-.109-.519-.48-.51-.336.008-.571.17-.599.494-.027.39-.009.778-.036 1.16-.009.113-.136.218-.208.324-.064-.106-.172-.203-.172-.316-.028-.373-.01-.746-.01-1.12 0-.275-.054-.534-.434-.542-.363-.009-.607.17-.635.502-.036.39-.027.77-.063 1.16-.01.105-.109.21-.172.316-.073-.106-.2-.219-.2-.324a23.738 23.738 0 0 1 0-1.606c0-.097.09-.194.136-.292.073.049.172.106.3.179zm23.86-1.006c.68 0 1.314-.032 1.93.008.444.033.716.422.716.844 0 .462-.308.81-.806.883-.245.033-.499.033-.743.033-.662.008-.662 0-.662.616 0 .146.027.3-.009.446-.018.09-.136.154-.217.227-.073-.065-.2-.13-.209-.195-.009-.948 0-1.889 0-2.862zm.471 1.42c.426 0 .816.024 1.206-.009.371-.032.534-.268.516-.592-.018-.316-.217-.494-.562-.502-.38-.017-.76-.009-1.16-.009zm-49.17-.455c.155-.057.272-.105.39-.146.036.09.109.179.109.268 0 .673.036 1.346-.027 2.01-.064.763-1.033 1.16-1.758.738-.163-.097-.254-.283-.372-.421.037-.04.064-.073.1-.114.118.04.272.057.335.138.272.349.662.34.97.17.208-.121.29-.43.371-.68-.87.226-1.295.153-1.613-.285-.317-.454-.253-1.24.127-1.597.354-.332.843-.348 1.369-.08zm-1.295.949c0 .624.435.997.951.81.38-.137.58-.648.435-1.126-.109-.35-.344-.584-.78-.544-.389.049-.606.381-.606.86zM1.408 19.57c0 .43.009.754-.01 1.078 0 .073-.108.146-.163.219-.072-.073-.217-.146-.217-.219C1 19.716 1 18.783 1 17.818c.67 0 1.305-.04 1.921.016.462.041.716.422.689.892-.018.47-.327.795-.852.835-.417.033-.843.009-1.35.009zm1.26-.341c.353-.024.525-.26.516-.56-.01-.3-.172-.518-.535-.534-.39-.017-.788 0-1.214 0v1.102c.444 0 .843.025 1.232-.008zm28.671-1.427c.644 0 1.187-.016 1.73.008.545.024.853.325.88.795.027.527-.263.892-.807.956-.326.041-.661.041-.996.025-.3-.008-.435.08-.408.357.018.218.018.446-.01.664-.008.09-.117.17-.171.26-.073-.081-.209-.154-.209-.235-.018-.925-.009-1.857-.009-2.83zm.426 1.443c.417 0 .797.017 1.178-.008.372-.024.58-.235.571-.56-.009-.316-.19-.534-.58-.542-.38-.009-.752 0-1.169 0zM18 18.76c0-.251-.018-.479.01-.697.008-.09.117-.179.171-.268.073.081.2.162.2.243.018.868.018 1.727 0 2.595 0 .08-.1.154-.154.235-.327-.292-.598.089-.906.049-.127-.017-.272-.017-.39-.057-.635-.211-.897-1.006-.598-1.703.217-.503.942-.754 1.495-.413.018.024.054.016.172.016zm.154 1.094c-.118-.535-.299-.9-.652-.932a1.044 1.044 0 0 0-.69.21c-.298.26-.289.998.01 1.25.172.145.58.275.716.194.263-.154.417-.47.616-.722zm21.187 1.038a11.461 11.461 0 0 0-.39-.154c-.371.057-.734.154-1.096.17-.38.009-.68-.219-.644-.543.027-.235.245-.519.471-.64.272-.146.644-.122.961-.195.109-.024.299-.122.29-.17-.018-.13-.082-.316-.19-.373-.345-.179-.689-.17-.997.113-.1.09-.227.154-.453.308.154-.673.534-.85 1.323-.786.516.04.716.235.716.73.018.478.009.965.009 1.54zm-.453-1.119c-.336.057-.653.09-.943.187-.136.048-.317.243-.299.34.027.138.2.308.354.349.48.122 1.142-.3.888-.876zm28.735-.6c.28-.551 1.241-.802 1.767-.438.154.106.254.35.272.536.036.519.009 1.03.009 1.605-.116-.044-.23-.09-.344-.138-.426.065-.798.154-1.16.162-.354.008-.59-.21-.635-.527-.045-.316.127-.567.453-.665.308-.097.653-.113.97-.186.118-.032.326-.154.317-.195-.045-.137-.127-.324-.262-.38-.336-.155-.671-.13-.943.153-.09.09-.236.138-.353.203-.037-.032-.064-.081-.091-.13zm1.604.592c-.344.065-.662.09-.952.187-.136.04-.317.243-.299.34.027.138.2.308.354.349.553.146.978-.26.897-.876zm-4.767-.924c.182-.081.3-.146.417-.187.662-.218 1.178.073 1.214.698.028.405.028.802.01 1.208-.01.105-.118.203-.182.308-.072-.114-.19-.219-.199-.333-.027-.356-.01-.713-.01-1.07 0-.308-.117-.543-.489-.567-.407-.025-.688.17-.733.535-.046.373-.01.746-.037 1.119-.009.113-.127.219-.2.324-.054-.105-.162-.203-.162-.308a55.95 55.95 0 0 1 0-2.465c0-.105.108-.203.172-.3.063.097.181.187.19.284.027.227.01.462.01.754zm-19.292.908c.009-.73.453-1.151 1.205-1.143.707.008 1.15.446 1.15 1.151 0 .738-.443 1.168-1.177 1.168s-1.178-.446-1.178-1.176zm1.939 0c0-.527-.308-.876-.761-.876s-.761.357-.77.884c0 .543.326.916.797.9.453-.024.743-.373.734-.908zm37.353.016c-.01.73-.453 1.16-1.196 1.152-.725-.009-1.17-.463-1.16-1.192.018-.722.471-1.144 1.223-1.127.707.016 1.142.47 1.133 1.167zm-1.948-.016c-.01.519.29.884.743.908.47.016.797-.357.797-.9 0-.519-.317-.876-.761-.884-.453-.008-.77.349-.78.876zm-60.217-.957c.281-.065.544-.17.807-.186.498-.025.78.219.806.665.028.446.018.891 0 1.337 0 .09-.117.17-.18.252-.064-.081-.182-.162-.191-.252-.018-.389-.01-.778-.018-1.159-.01-.324-.154-.568-.544-.568-.372 0-.643.17-.67.536-.028.373 0 .745-.037 1.118-.009.114-.136.22-.208.333-.064-.106-.182-.203-.182-.308a23.738 23.738 0 0 1 0-1.606c0-.105.082-.21.118-.316.118.065.227.122.3.154zM9.717 19.797c-.009.737-.453 1.143-1.214 1.127-.707-.017-1.114-.454-1.105-1.176.009-.738.435-1.151 1.196-1.143.725 0 1.133.438 1.123 1.192zm-1.92-.033c0 .649.443 1.022.987.843.417-.137.643-.632.508-1.135-.1-.373-.354-.616-.807-.592-.435.017-.689.357-.689.884zm48.39.365c.217.122.335.203.471.268.2.097.408.251.598.235.2-.016.38-.211.571-.325-.145-.121-.263-.275-.435-.348-.236-.106-.516-.122-.752-.22-.408-.161-.507-.6-.227-.891.435-.454 1.468-.268 1.758.438-.235-.106-.362-.17-.498-.22-.19-.072-.39-.186-.58-.177-.154.008-.3.178-.444.275.118.106.217.252.362.308.254.106.544.138.807.227.471.17.58.608.254.94-.327.333-.77.325-1.206.252-.38-.056-.616-.275-.68-.762zm-45.319-1.5c.662.024.544.486.698.738.172.3.263.632.435 1.07.172-.421.281-.762.453-1.078.145-.26.064-.697.698-.754-.326.762-.598 1.46-.915 2.132-.118.243-.372.203-.48-.032-.3-.649-.562-1.322-.889-2.076zm75.513-.057c.172.049.317.09.607.17-.29.114-.444.17-.625.244 0 .51.009 1.03-.01 1.557-.008.113-.126.219-.198.332-.064-.105-.164-.203-.173-.308-.027-.34-.009-.69-.009-1.03 0-.3.127-.648-.29-.697.118-.26.245-.47.317-.69.1-.315.526-.543.861-.413.055.024.136.122.127.154a.325.325 0 0 1-.181.154c-.426.114-.426.106-.426.527zm-42.736 0l.462.13c.01.032.01.073.018.105-.154.05-.299.106-.498.17 0 .52.01 1.047-.01 1.582 0 .105-.108.21-.162.308-.073-.106-.19-.21-.2-.324a8.87 8.87 0 0 1-.008-.982c.018-.324.054-.64-.3-.737.118-.244.236-.454.309-.673.1-.316.516-.544.851-.414.064.024.145.114.127.146-.027.065-.109.154-.172.154-.417 0-.462.22-.417.535zm-2.256-.016c.154.057.299.106.48.17-.2.146-.462.244-.471.365-.045.43-.01.86.009 1.29 0 .064.118.121.181.186.082.081.154.162.236.243-.118.033-.236.09-.354.09-.326-.017-.462-.212-.47-.48-.01-.34.017-.688-.02-1.029-.017-.219-.126-.43-.207-.697l.444-.795c.045.017.081.033.127.049.009.203.027.405.045.608zm29.705.154c.136-.243.29-.527.444-.802.045.016.081.032.127.048l.054.608c.154.057.299.106.471.17-.2.146-.462.252-.471.365-.036.446 0 .892.027 1.338 0 .049.109.097.172.146.082.065.163.138.245.203-.127.04-.254.121-.372.121-.326-.008-.462-.21-.47-.478-.01-.34.017-.69-.019-1.03-.027-.219-.127-.43-.208-.689zm-9.352-.016c.127-.227.28-.519.49-.908.198.421-.119.908.534 1.005-.136.065-.263.122-.426.203 0 .405-.018.819.009 1.232.009.122.163.244.254.357.054.073.108.146.154.227-.082.033-.163.097-.245.097-.326.009-.544-.105-.553-.437 0-.34.01-.69-.018-1.03-.018-.227-.118-.454-.2-.746zm28.155 0c.118-.219.263-.51.417-.803.045.017.09.025.136.04.009.204.027.398.036.625.127.049.263.106.49.195-.717.21-.463.68-.508 1.062-.045.413-.045.803.689.932-.798.26-1.052.122-1.07-.397-.009-.268.018-.535-.009-.803-.018-.267-.108-.543-.181-.851zm-39.637.09c-.108.056-.217.17-.326.17-.417-.017-.57.194-.598.518-.027.373-.009.746-.036 1.111-.01.105-.127.195-.2.292-.063-.097-.19-.203-.19-.3a24.95 24.95 0 0 1 0-1.646c0-.097.1-.195.154-.284.09.065.181.122.19.13.306-.057.611-.117.916-.178.036.056.063.121.09.186zm-44.829-.017c.254-.057.48-.122.707-.146.054-.008.127.122.19.186-.081.05-.163.154-.235.146-.453-.04-.598.203-.635.527-.036.373-.018.746-.045 1.111-.009.097-.109.179-.163.268-.073-.09-.2-.187-.208-.276a25.196 25.196 0 0 1 0-1.654c0-.105.081-.203.126-.3a5.4 5.4 0 0 0 .263.138zm74.362-.251c.125.085.249.171.372.26.253-.058.47-.123.697-.147.055-.008.136.122.2.195-.064.048-.136.154-.19.146-.626-.065-.671.324-.698.705-.019.324 0 .657-.019.981 0 .073-.108.146-.163.227-.072-.065-.199-.121-.199-.186-.009-.69 0-1.363 0-2.181zm-44.032.843c0 .413.01.835-.009 1.248 0 .09-.118.17-.18.26-.064-.081-.191-.162-.191-.243a59.692 59.692 0 0 1 0-2.546c0-.098.136-.187.2-.276.053.09.162.178.162.268.027.43.018.86.018 1.289zm-15.432.389c0 .3.018.592-.009.892-.01.081-.136.154-.208.227-.055-.073-.155-.146-.164-.227a39 39 0 0 1 0-1.784c0-.08.127-.154.2-.227.054.073.154.146.163.227.027.3.018.6.018.892zm-5.51-.016c0 .308.01.624-.009.932-.009.073-.118.138-.181.203-.063-.065-.181-.138-.181-.203a30.653 30.653 0 0 1 0-1.824c0-.073.118-.138.181-.203.063.065.172.13.181.203.018.3.01.592.01.892zm73.646.073c0 .267.018.535-.009.802-.009.09-.109.179-.163.26-.072-.081-.2-.154-.2-.235a29.042 29.042 0 0 1 0-1.776c0-.073.11-.146.173-.219.072.081.19.154.2.235.017.308 0 .625 0 .933z"/></g></g></g></svg>