<svg xmlns="http://www.w3.org/2000/svg" width="91" height="44" viewBox="0 0 91 44"><g><g><g><path fill="#32448c" d="M90.56 13.616c-.028 7.45-6.633 13.343-14.769 13.408-8.308.065-14.994-5.877-15.148-13.06C60.489 6.645 66.985.346 75.375.282 83.819.208 90.56 6.182 90.56 13.616zm-14.497 4.483c0 1.694-.009 3.388.01 5.083.008.802.534 1.102 1.286.713 2.751-1.401 5.496-2.812 8.235-4.232.77-.397 1.16-.997 1.16-1.832-.018-2.918-.009-5.845-.009-8.763 0-1.143-.48-1.419-1.622-.916-2.627 1.16-5.246 2.327-7.873 3.478-.815.356-1.196.891-1.187 1.702.018 1.589 0 3.178 0 4.767zm-.951.073c0-1.63-.027-3.26.009-4.888.018-.811-.372-1.306-1.15-1.646-2.7-1.176-5.383-2.367-8.073-3.55-1.033-.455-1.468-.22-1.468.802-.01 2.796.018 5.585-.018 8.382-.018 1.248.552 2.116 1.785 2.724 2.518 1.248 5 2.561 7.501 3.842.888.454 1.405.203 1.414-.705.009-1.654 0-3.307 0-4.961zm.553-7.02c.326-.106.67-.187.987-.325 2.79-1.199 5.575-2.41 8.354-3.631.226-.098.39-.325.58-.487-.2-.13-.381-.308-.598-.397-2.537-.924-5.083-1.824-7.62-2.764-1.16-.43-2.283-.438-3.434-.009-2.492.908-4.992 1.8-7.484 2.724-.244.09-.407.34-.616.52.19.161.353.372.59.477 2.753 1.216 5.517 2.416 8.28 3.608.3.121.625.186.96.284z"/></g><g><path fill="#32448c" d="M41.373 18.194c.036-4.913.064-9.833.109-14.746 0-.624-.136-1.184-.698-1.589-.58-.421-1.26-.47-1.939-.251-.697.227-1.123.705-1.15 1.386a166.085 166.085 0 0 0-.064 3.68c-.045 5.359-.1 10.717-.127 16.076-.009 1.272.925 1.986 2.31 1.743.508-.09 1.015-.438 1.414-.77 2.555-2.14 5.074-4.321 7.602-6.486l9.839-8.439a1129.41 1129.41 0 0 0 4.865-4.175c.68-.591.825-1.467.39-2.148-.417-.665-1.377-1.078-2.193-.778-.588.21-1.105.632-1.576 1.03-5.31 4.49-10.6 9.006-15.9 13.513-.916.778-1.831 1.565-2.837 2.416-.018-.235-.045-.349-.045-.462zm-34.402.486v-2.643c0-3.704.01-7.417.019-11.122 0-.68.072-1.362-.01-2.026-.108-.916-.851-1.41-1.93-1.387-.996.017-1.685.568-1.793 1.468-.046.437-.073.883-.073 1.33-.054 6.079-.1 12.15-.154 18.23-.009.828.236 1.54 1.15 1.865.898.316 1.704.138 2.41-.47 3.072-2.643 6.153-5.27 9.224-7.904 3.09-2.65 6.188-5.301 9.278-7.952 1.34-1.143 2.673-2.278 4.004-3.421.599-.51.798-1.135.571-1.848-.217-.657-.752-1.022-1.467-1.152-.88-.162-1.54.227-2.148.746-3.624 3.105-7.257 6.194-10.89 9.29-2.7 2.31-5.4 4.613-8.19 6.996z"/></g><g><path fill="#32448c" d="M72.098 32.01c0-.908 0-1.824.009-2.732.009-.82.498-1.305 1.295-1.297.78.008 1.26.51 1.26 1.321-.027 4.24-.073 8.471-.1 12.711 0 .6-.145 1.094-.842 1.321-.68.22-1.187-.024-1.65-.446-3.85-3.526-7.7-7.06-11.551-10.587a10.385 10.385 0 0 0-.48-.397c-.027.324-.055.535-.055.746l-.108 9.339c-.01.835-.462 1.313-1.233 1.321-.833.008-1.313-.47-1.304-1.346.036-4.296.072-8.6.154-12.897.009-.349.317-.795.634-1.022.462-.324 1.051-.21 1.504.122.362.268.68.584 1.006.892l10.854 9.955c.109.105.235.186.353.283.09-.024.172-.04.254-.056zm-29.156 1.832c2.002-1.792 3.923-3.519 5.853-5.245.163-.146.335-.3.516-.438.48-.365 1.006-.446 1.586-.219.562.219.707.657.707 1.151.009.851.009 1.694 0 2.546-.037 3.429-.082 6.866-.127 10.295-.01.9-.517 1.346-1.414 1.28-.752-.056-1.132-.486-1.132-1.272.009-3.113.027-6.234.036-9.347v-.786l-.752.64c-1.386 1.24-2.754 2.505-4.159 3.73-.724.632-1.522.6-2.237-.05a287.048 287.048 0 0 1-4.114-3.777c-.208-.195-.335-.454-.498-.689l-.354.17v1.808l-.027 8.074c0 .56-.136 1.07-.779 1.313-.915.34-1.785-.186-1.794-1.118-.009-1.443.027-2.878.037-4.321.018-2.756.018-5.513.027-8.269 0-.13 0-.251.009-.38.045-.552.28-.982.897-1.184.589-.187 1.078-.025 1.485.356 1.477 1.346 2.936 2.7 4.404 4.054.589.559 1.187 1.094 1.83 1.678zm-12.974 4.58c-2.238 0-4.412.048-6.587-.024-.96-.033-1.63.21-2.283.826-1.214 1.127-2.51 2.19-3.787 3.26-.236.194-.526.38-.834.453-.616.146-1.196.04-1.531-.519-.317-.535-.181-1.03.29-1.443a434.31 434.31 0 0 1 3.017-2.594c3.896-3.34 7.792-6.671 11.688-10.011.172-.147.354-.285.543-.414.453-.316.942-.348 1.468-.137.525.21.698.624.698 1.086-.036 4.296-.073 8.6-.127 12.897-.01.86-.453 1.281-1.287 1.273-.842 0-1.277-.43-1.286-1.28.018-1.07.018-2.15.018-3.373zm.009-2.213V31.66c-1.794 1.54-3.47 2.991-5.273 4.548zm60.468 4.248c-.045.389-.263.843-.58 1.094-2.691 2.132-5.799 2.643-9.115 1.524-3.288-1.11-5.137-3.356-5.535-6.493-.535-4.216 2.763-8.034 7.556-8.585 2.69-.308 5.11.34 7.14 2.01.77.633.878 1.29.307 1.816-.616.576-1.34.543-2.12-.09-1.757-1.426-3.796-1.888-6.043-1.24-2.265.657-3.697 2.076-4.204 4.175-.534 2.205.516 4.386 2.7 5.732 1.939 1.191 4.675 1.208 6.705.057.462-.26.697-.544.68-1.062-.037-.827.017-1.654.053-2.473.028-.754.472-1.135 1.287-1.135.734 0 1.232.422 1.268 1.11.028.447.01.893.01 1.338h-.082c0 .738.063 1.484-.027 2.222zm-75.064-2.27c0 .34-.045.68.009 1.013.181 1.062-.399 1.735-1.296 2.343-5.21 3.55-13.01.713-13.934-5.083-.698-4.37 2.328-8.196 7.193-8.941 2.836-.438 5.4.243 7.539 2.026.625.519.715 1.273.235 1.76-.516.518-1.422.502-2.084-.041-1.875-1.557-4.05-1.986-6.432-1.168-2.456.843-3.86 2.546-3.996 4.88-.208 3.721 3.515 6.3 7.121 5.756.3-.049.607-.089.897-.178 2.02-.592 2.184-.803 2.193-2.66 0-.51-.01-1.02.018-1.523.045-.69.544-1.127 1.26-1.127.724-.008 1.268.47 1.304 1.167.018.292-.027.592-.027.892 0 .284.009.584 0 .884.009 0 0 0 0 0z"/></g><g><path fill="#32448c" d="M35.347 12.69c0 2.456.01 4.912 0 7.369 0 .997-.045 1.986-.063 2.983-.018.956-.752 1.654-1.794 1.702-1.015.049-1.993-.673-2.003-1.605-.027-2.27.028-4.532.046-6.801.018-1.549.045-3.089.054-4.637.027-2.708.09-5.423.064-8.131-.019-1.338.978-1.913 1.93-1.93 1.14-.024 1.902.754 1.902 1.954-.01 2.586-.045 5.172-.063 7.75v1.338c-.028.008-.046.008-.073.008z"/></g><g><path fill="#32448c" d="M55.886 35.626c0 2.14.01 4.272 0 6.412 0 .795-.48 1.257-1.25 1.265-.788.008-1.305-.487-1.296-1.297.036-4.321.082-8.634.127-12.955.009-.721.507-1.183 1.25-1.183.798 0 1.287.446 1.296 1.224.009 2.18 0 4.361 0 6.542-.036-.008-.082-.008-.127-.008zm29.6-24.06c-.163.437-.3.98-.58 1.45-.136.228-.562.455-.843.43-.262-.016-.607-.316-.715-.567-.363-.835-.245-1.678.28-2.424.173-.251.59-.527.87-.502.272.024.571.372.743.64.163.251.154.576.245.973zm-5.21 7.952c-.163.406-.299.973-.607 1.451-.407.633-1.214.527-1.513-.154-.38-.883-.226-1.759.326-2.537.163-.227.58-.462.843-.438.263.024.562.34.707.6.154.26.154.6.244 1.078zm2.927-4.004c-.2.535-.336 1.094-.616 1.589-.127.227-.562.462-.834.445-.254-.016-.589-.332-.707-.575-.344-.762-.262-1.557.182-2.254.19-.308.652-.689.96-.665.299.025.589.495.806.811.118.162.073.414.1.616.036.008.072.024.109.033zm-9.803 4.62c-.064.268-.064.568-.2.795-.154.251-.426.608-.67.624-.3.016-.752-.195-.915-.438-.544-.786-.68-1.662-.308-2.553.28-.665 1.069-.779 1.477-.162.335.51.489 1.118.715 1.678a.382.382 0 0 1-.1.056zm-2.465-6.071c.163-.957.48-1.492 1.024-1.516.516-.033 1.105.494 1.223 1.297.082.567.063 1.191-.109 1.735-.226.705-1.014.786-1.431.162-.335-.511-.48-1.12-.707-1.678zm-2.564-1.654c-.118.835-.444 1.386-.924 1.435-.544.056-1.033-.373-1.178-1.208a3.696 3.696 0 0 1 .072-1.605c.182-.632.952-.738 1.333-.179.335.47.48 1.038.697 1.557zm0 5.407c-.118.438-.154.802-.317 1.119-.254.494-.852.527-1.26.113-.561-.56-.751-1.97-.362-2.635.326-.559 1.024-.591 1.386-.008.281.438.39.965.553 1.41zm7.411-9.695c-.68-.203-1.322-.3-1.866-.56-.834-.413-.852-1.24-.109-1.783.933-.69 3.008-.673 3.932.024.67.503.68 1.313-.072 1.702-.562.3-1.241.422-1.885.617z"/></g></g></g></svg>