<svg xmlns="http://www.w3.org/2000/svg" width="91" height="18" viewBox="0 0 91 18"><g><g><g><path fill="#32448c" d="M13.652 5.42a.663.663 0 0 0 .112-.064c.132-.112.296-.189.447-.283.033-.017.046-.047.06-.07-.139.012-.264.07-.382.13a.765.765 0 0 0-.197.14c-.04.041-.033.094-.04.147zm-.184.1c.027 0 .046.006.066.006.033-.159.072-.311.066-.47-.007-.13.006-.26-.053-.383-.006.006-.026.018-.033.024-.02.106-.006.212-.026.318-.033.166-.04.337-.02.505zm-.098-2.076c.092.018.19.006.282-.006.132-.012.277-.047.355-.147-.111-.018-.21.047-.315.053-.105.006-.21 0-.316.024 0 .023 0 .053-.006.076zm-.296.188c.085-.017.105-.112.112-.182.013-.2-.013-.406-.007-.606-.02.006-.046.006-.066.012-.02.106-.026.218-.026.323 0 .153-.02.306-.013.453zm-5.075-.935c.06.235.158.488.388.624-.007-.03-.013-.06-.026-.083-.277-.417-.296-.93-.21-1.394-.027.018-.06.041-.073.07-.132.242-.118.524-.079.783zm-.177-.488c-.053-.1-.158-.17-.244-.253a.81.81 0 0 0-.217-.165c.04.106.152.171.23.247.073.065.132.147.23.171zm.815 1.641a1.962 1.962 0 0 0-.44-.582c-.119-.1-.172-.242-.244-.37-.06-.107-.092-.218-.151-.318-.013.04-.027.088-.013.129.079.465.407.888.848 1.141zm-5.463.559c-.079-.07-.184-.112-.256-.183a.843.843 0 0 0-.165-.129.57.57 0 0 0 .42.312zm.526.153c-.026-.006-.053-.018-.079-.024a2.136 2.136 0 0 0-.513-.006c-.111.018-.236-.012-.322.065.151.012.303.006.447.012.158.011.316.006.467-.047zM2.188 5.956c.04.088.092.2.21.223zm.434.776a.799.799 0 0 0-.29-.388c-.144-.088-.302-.177-.48-.2-.13-.018-.289.012-.348.13.099-.036.198-.083.31-.071.249.011.453.17.604.335.06.065.118.141.204.194zm11.464 10.105c.06.076.165.1.263.117-.052-.147-.151-.305-.335-.335-.013.076.033.147.072.218zm-.434-10.034c-.197.064-.4.123-.598.188-.072.023-.164.035-.217.094.158.03.329.041.487-.006.19-.047.348-.159.512-.247.145-.07.283-.141.388-.259.112-.112.151-.265.165-.412.006-.111.04-.223.013-.329-.02.035-.046.07-.053.112-.04.165-.085.33-.158.482-.105.194-.322.306-.539.377zm-.539.011c.165-.011.323-.053.48-.094.106-.035.224-.059.296-.14-.204.028-.42-.007-.611.064a.331.331 0 0 0-.165.17zm.21-.8c.014 0 .034-.005.047-.005.026-.112.02-.23.02-.342-.014-.164-.007-.329-.007-.494-.033.03-.072.06-.079.1-.072.247-.033.5.02.741zm-.413.465c-.125.194-.33.324-.52.453a.875.875 0 0 0 .46-.1.673.673 0 0 0 .33-.524c.012-.211 0-.429 0-.64 0-.107.025-.212.032-.318-.026.03-.06.064-.079.106-.138.329-.04.705-.223 1.023zm-.927.388l.026.024a.837.837 0 0 0 .296-.077c.29-.135.532-.37.592-.664.02-.106.059-.206.032-.312-.072.07-.092.165-.138.253a1.66 1.66 0 0 1-.808.776zm-.848.188c.092-.005.217-.011.256-.1a.905.905 0 0 0 .066-.37c-.073.076-.105.176-.165.259-.052.07-.111.14-.157.211zm-1.256-.323c.125.012.243-.024.362-.041zm.408-.623c-.23.029-.46.076-.664.182-.224.106-.408.294-.46.517.124-.04.216-.14.335-.194.282-.14.552-.306.789-.505zm-.934 1.04c.013-.123.099-.229.171-.335a.836.836 0 0 0-.447.63c.099-.018.19-.041.29-.07 0-.071-.014-.148-.014-.224zm2.367-1.711c-.158.018-.296.088-.44.123a4.427 4.427 0 0 1-.678.136c-.23.012-.467.017-.697.065-.322.094-.644.24-.854.488-.138.164-.145.376-.224.564-.085.206-.177.412-.243.624-.033.1-.079.2-.059.306.112-.065.237-.136.29-.253.052-.124.045-.265.085-.394.04-.118.072-.242.118-.36a.946.946 0 0 1 .256-.376c.152-.14.336-.264.546-.335.217-.082.454-.1.684-.135.355-.047.71-.141 1.019-.306.072-.047.144-.088.197-.147zm-2.17 8.664c0 .03 0 .059.007.082.099.23.256.441.44.624.152.17.316.335.46.511.086.1.145.224.244.306a.861.861 0 0 0 .335.182c.033.012.086.03.118.03-.078-.1-.203-.218-.276-.324a4.547 4.547 0 0 1-.328-.529c-.027-.059-.349-.418-.395-.453-.105-.076-.204-.17-.289-.223-.112-.065-.204-.141-.316-.206zm-2.406 1.047c.198-.065.408-.136.585-.241.046-.024.08-.053.093-.095-.152 0-.296.006-.447 0-.125-.006-.507.1-.586.136-.341.164-.61.423-.907.64-.223.171-.453.336-.73.424-.118.041-.242.03-.367.053a.06.06 0 0 1-.014.036c.066.047.152.047.23.047a1.48 1.48 0 0 0 .776-.253c.243-.165.487-.342.763-.47.197-.095.388-.2.604-.277zm-.65.5c-.145.082-.29.164-.421.253-.125.088-.256.17-.401.229-.138.059-.29.047-.42.112.216.106.486.159.722.088a.622.622 0 0 0 .316-.153.88.88 0 0 0 .355-.582c-.053.011-.112.023-.151.053zm-.67-2.312a.594.594 0 0 0-.132.418 5.8 5.8 0 0 1 .02.335c.006.206-.047.382-.08.523.06-.076.237-.288.303-.429a.205.205 0 0 0 .007-.123c-.08-.165-.106-.594-.119-.724zm.617-.217c.026.135.033.288.072.423.02.077.04.182.092.247.073-.076.145-.2.138-.306-.013-.288-.21-.523-.295-.794-.033-.094-.06-.13-.08-.23.014.118.007.177.02.295.014.141.033.312.053.365zm1.137.517c-.013.041-.046.177-.085.235-.053.077-.263.194-.27.212.138.035.303.077.434.024.092-.036.118-.088.086-.218 0 0-.02-.082-.165-.253zm-.69-.994a2.745 2.745 0 0 1-.322-.682 1.72 1.72 0 0 1-.033-.518c.007-.147.066-.282.086-.43-.06.036-.08.1-.099.16-.066.182-.118.37-.105.564.02.147.072.283.118.418.046.147.118.276.171.418.079.2.171.4.243.605.04.118.053.242.053.365-.007.206-.132.359-.105.359a.849.849 0 0 0 .322-.041s.131-.047.151-.147c.033-.142-.02-.336-.099-.46 0 0-.322-.523-.38-.61zm.993.83c-.19-.265-.388-.53-.599-.783-.243-.3-.525-.864-.545-1.24 0-.06-.033-.19-.046-.248a.705.705 0 0 0-.033.153 1.7 1.7 0 0 0-.007.447c.053.37.651 1.17.717 1.235.23.236.486.706.486.706s.178.306 0 .435c-.138.118-.348.13-.526.141-.111.012-.348.006-.44.006-.052 0-.204.036-.27.053-.19.059-.315.212-.453.335-.079.065-.322.412-.394.495-.198.258-.434.505-.743.664a.743.743 0 0 0-.112.083c.105.023.197-.03.283-.065.131-.059.256-.13.361-.224.132-.117.276-.23.401-.347.119-.111.25-.211.375-.311.092-.071.197-.13.302-.183 0 0 .276-.135.349-.153.084-.023.17-.04.256-.053h.158c.197.012.427.06.572-.064.079-.07.197-.124.217-.294.013-.118-.21-.647-.31-.789zm.486-.03c-.23-.465-1.17-1.541-1.236-1.63a6.249 6.249 0 0 0-.19-.246c.04.147.125.388.184.488.02.035.17.324.23.406.217.276.44.553.644.835.085.112.447.753.473 1.123.013.106-.006.195-.013.294-.02.23-.125.665-.04.924.053.165.178.3.316.406.08.064.171.117.283.117.138 0 .25-.076.361-.14.204-.124.46-.165.704-.142.112.006.204.065.309.094-.013-.135-.171-.212-.309-.23-.184-.017-.375 0-.559.036-.204.041-.434.053-.624-.041-.204-.106-.29-.324-.329-.524-.02-.094-.007-.535 0-.605.006-.124.013-.253.013-.383 0-.188-.066-.4-.118-.54a3.129 3.129 0 0 0-.099-.242zm.565 1.712a1.568 1.568 0 0 1-.118-.57c-.046.27-.059.634.053.805.105.164.335.241.545.217-.059-.07-.164-.1-.236-.158a1 1 0 0 1-.244-.294zm.185-.212a.55.55 0 0 0 .243.33c.204.117.436.194.677.223l.026-.03c-.184-.194-.473-.253-.664-.429-.131-.135-.19-.306-.276-.465-.052.118-.033.242-.006.37zm-1.052-2.93c-.158-.117-.29-.264-.434-.393a5.178 5.178 0 0 1-1-1.165c-.052-.076-.072-.182-.157-.235.007.112.06.217.105.323.145.347.349.67.565.983.119.158.244.317.375.464.118.136.533.588.69.8.107.146.208.295.303.447.052.082.17.353.19.4.092.23.125.682.138.906.027-.135.092-.453.125-.577a1.434 1.434 0 0 0-.17-1.076c-.145-.23-.619-.788-.73-.876zM6.48 8.539c-.007-.286.02-.572.078-.853.065-.293.12-.587.165-.882.026-.183.052-.371.026-.553a1.068 1.068 0 0 0-.25.306c-.131.247-.144.523-.164.794-.013.2.02.4-.04.594-.026.106-.092.2-.144.3.118.088.223.188.329.294zm-.119.288a.76.76 0 0 0-.4-.247c-.283-.07-.586.012-.83.147-.098.053-.203.1-.249.2.165-.03.31-.112.474-.13a2.26 2.26 0 0 1 .348-.005c.243.017.467.123.677.229.072-.059.026-.141-.02-.194zm.25-.194c.026.27.06.54.125.806.053.29.17.567.342.817.19.277.473.483.762.67.31.218.651.4.92.665.132.13.264.27.342.436.046.1.106.2.138.305.007.036.04.112.046.147 0-.082-.046-.44-.059-.482-.052-.194-.184-.353-.309-.511a3.078 3.078 0 0 0-.585-.553c-.27-.206-.565-.395-.775-.66a2.606 2.606 0 0 1-.526-1.017c-.053-.2-.06-.406-.066-.611-.04-.318-.099-.636-.112-.96 0-.152.033-.3.033-.452a2.613 2.613 0 0 1 .099-.782c.052-.212-.007-.436.04-.647-.086.1-.185.206-.185.335-.006.182.02.365 0 .547-.013.094-.013.194-.02.294-.046.324-.131.641-.177.965-.046.223-.026.453-.033.688zm2.675 2.629c-.105-.306-.38-.535-.644-.735-.112-.1-.256-.17-.381-.265a2.476 2.476 0 0 1-.335-.288c-.132-.13-.224-.282-.336-.424-.197-.288-.243-.629-.302-.958a2.076 2.076 0 0 0-.204-.647c-.04-.077-.065-.165-.125-.236.007.224.073.436.106.653.026.177.065.353.078.53.014.2.066.394.125.582.141.414.424.778.809 1.04.17.123.339.246.506.371.283.23.579.477.73.8.02.036.046.065.072.094.013-.17-.033-.34-.099-.517zm-1.242-2.9a.556.556 0 0 0 .164-.388c0-.153.06-.3.106-.447.052-.153.098-.306.164-.459.085-.194.131-.406.145-.617.006-.13.039-.253.065-.383.013-.07.033-.147.013-.223-.032-.147-.111-.294-.118-.447-.007-.1-.007-.2-.053-.288-.085-.2-.177-.4-.295-.583-.02.106.013.212.026.318.013.118.053.235.085.353.106.412.244.83.198 1.253-.04.3-.237.553-.375.817-.112.247-.151.524-.164.788 0 .106-.02.218.04.306zm4.102-4.164c.007.006.013.024.02.03.17-.054.361-.083.5-.195.137-.088.19-.24.23-.382a.279.279 0 0 0-.007-.147c-.092.082-.118.206-.204.294-.079.082-.19.123-.283.182a1.46 1.46 0 0 0-.256.218zm-.066-.747c.033.106.092.2.112.312.013.07 0 .147 0 .223.046-.023.105-.04.132-.088 0-.065-.046-.118-.066-.176-.046-.095-.066-.212-.178-.271zm-.683 1.623a.923.923 0 0 0 .388-.182c.118-.082.21-.2.341-.265.105-.058.224-.088.342-.123a.614.614 0 0 0 .316-.224c.026-.029.02-.07.02-.106-.1.048-.191.112-.303.147-.138.048-.29.071-.408.148-.078.047-.124.123-.177.194-.099.135-.23.24-.381.323-.053.024-.099.059-.138.088zm-1.131.06c.092.005.131-.071.171-.13.052-.083.118-.17.125-.277-.072.065-.105.153-.165.224-.046.059-.092.117-.131.182zm-1.282.752c-.053.112-.112.224-.118.341.006 0 .02.006.026.006.066-.07.105-.147.178-.212.131-.117.276-.223.44-.294.164-.082.348-.117.526-.159.151-.035.302-.029.453-.053.125-.023.257-.04.382-.064.23-.041.447-.118.664-.194.276-.112.532-.26.75-.447a.518.518 0 0 0 .144-.189.456.456 0 0 0-.217.083c-.178.135-.322.294-.506.412-.16.089-.34.145-.526.164-.21.03-.434.012-.651 0a2.44 2.44 0 0 0-.802.047c-.316.083-.605.283-.743.559zm1.341-2.217c-.112.064-.21.14-.315.211-.152.1-.29.212-.408.342-.184.235-.237.523-.322.788-.046.147-.118.282-.178.423.086-.059.178-.118.276-.159.053-.023.112-.035.158-.076.013-.106 0-.212.013-.318.033-.217.125-.423.25-.606.073-.094.151-.188.23-.282.092-.112.217-.2.296-.323zm.171.04c.131-.035.283-.052.388-.14zm.44-1.246c.086-.088.1-.212.106-.324zm-.262-.324a.568.568 0 0 0-.316-.394c0 .012-.007.03-.007.041.046.065.119.106.158.171.046.065.092.141.164.182zm-1.033 1.73c-.052.052-.111.106-.131.176.092-.035.151-.106.223-.159.25-.182.526-.347.743-.564.112-.106.184-.241.276-.36a.533.533 0 0 0 .1-.429c-.027-.1-.054-.205-.139-.276 0 .118.046.23.026.341a1.307 1.307 0 0 1-.066.277.6.6 0 0 1-.21.24 5.265 5.265 0 0 0-.822.754zm-.88 1.376c.006.082.02.17.026.253.006.076.013.153.066.217.059-.252.203-.476.295-.717.04-.106.046-.218.053-.33.026-.205 0-.423.105-.611.072-.159.23-.27.316-.424-.105.047-.19.124-.27.194-.118.106-.21.242-.27.383-.078.211-.105.435-.21.635a.92.92 0 0 0-.111.4zm-2.38-2.788c-.04-.123-.164-.194-.29-.235zm.04-.206c.111.083.243.165.387.2-.046-.088-.151-.13-.236-.182-.092-.053-.171-.124-.277-.165.028.058.07.108.125.147zm1.038.712a.92.92 0 0 0-.486-.37c-.125-.048-.25-.095-.369-.16-.052-.029-.098-.07-.157-.07.138.2.368.335.604.435.132.059.263.13.408.165zm.795 1.311c.092.17.21.33.29.506.026.053.059.1.092.147.065-.111.138-.23.15-.358a.833.833 0 0 1-.302-.224c-.111-.123-.236-.235-.341-.359-.132-.153-.27-.312-.349-.494-.092-.235-.328-.406-.578-.488.052.112.138.206.204.312.078.13.19.24.302.353.105.1.237.182.329.294.078.094.138.206.203.311zm-.854 2.965c.04.106.184.165.296.123.157-.047.25-.176.328-.294.086-.141.184-.276.23-.435.053-.178.073-.363.06-.547-.02-.235-.066-.47-.106-.7h-.046c-.033.23-.052.465-.072.694-.033.235-.079.47-.158.7a.665.665 0 0 1-.394.394c-.046.018-.099.03-.138.065zm.131.317c.067.135.13.27.191.406.026-.13.052-.259.06-.388a1.859 1.859 0 0 0-.25-.018zm-.473-.688a.773.773 0 0 0-.02.347c.013.118.027.241.066.353.06.183.158.347.223.53.066.14.132.288.158.44.066.318.132.642.303.93.065.112.118.235.23.318-.033-.16-.112-.306-.132-.465-.033-.23-.059-.465-.125-.688-.039-.177-.118-.347-.184-.524-.085-.217-.203-.417-.282-.63a3.795 3.795 0 0 1-.152-.434.563.563 0 0 0-.085-.177zm.033-2.547c.052.2-.026.395-.092.583.072-.06.151-.112.217-.177.026-.076.006-.158-.007-.235-.033-.13-.046-.27-.144-.376-.033-.042-.086-.06-.132-.077.06.094.138.177.158.282zM6.75 5.532c.092-.112.178-.241.276-.353.125-.153.342-.212.493-.34a.567.567 0 0 0 .158-.248c-.105.07-.197.153-.302.218-.132.082-.237.188-.355.288-.066.053-.145.082-.217.123a.728.728 0 0 0-.053.312zm-.329.577c-.138.188-.27.388-.328.605-.053.194-.06.394-.099.588-.013.065-.033.136.013.189a.326.326 0 0 0 .151.1c.014-.177.014-.353.033-.53.007-.253.125-.494.283-.7.117-.14.225-.288.322-.44.046-.071.112-.136.171-.2.085-.095.099-.236.204-.324.105-.1.25-.194.27-.335a.992.992 0 0 0-.389.282c-.092.106-.144.235-.236.335-.132.141-.29.27-.395.43zm-.25-.012c.073-.07.112-.16.165-.241.125-.189.217-.4.237-.624a.629.629 0 0 0-.112-.353c-.013.1-.007.206-.02.306-.052.318-.263.594-.27.912zm-.19-1.906c.013.106.033.212.04.318.006.194-.02.394-.014.588 0 .17-.02.347.046.506a.985.985 0 0 0 .138-.289c.08-.2.119-.411.08-.623-.027-.188-.113-.388-.29-.5zm-.164-.318c.006.071.065.124.138.153-.033-.076-.066-.153-.066-.235 0-.076.007-.153-.013-.223-.072.082-.072.2-.06.305zm-.171.518c.013.065.006.147.052.206.046.018.099.012.152.012a1.207 1.207 0 0 0-.263-.794c-.066.194.046.382.059.576zm.197.406c-.138-.018-.27-.053-.408-.082.073.082.171.147.244.229.046.053.085.106.15.141a.713.713 0 0 0 .014-.288zm-.907-1.53c-.013-.04-.013-.088-.04-.123-.052-.041-.111-.059-.17-.088-.139-.059-.264-.13-.408-.182.079.105.217.158.335.229.099.047.171.13.283.165zm.44.912c.04.083.06.183.145.241-.013-.129-.053-.252-.066-.382a2.615 2.615 0 0 0-.085-.441c-.066-.247-.244-.459-.303-.706a1.808 1.808 0 0 1-.059-.376c0-.106.02-.212-.02-.312-.131.282-.026.582.04.859.105.37.217.747.348 1.117zm-.762-.235c.026.07.065.141.125.2a.665.665 0 0 0 .282.2c-.111-.153-.23-.312-.407-.4zm-.342-.106c.046.065.098.136.125.212a.752.752 0 0 1 .04.27c0 .065-.06.112-.1.165.132.024.264.012.395.03.151.011.296.058.447.088a.334.334 0 0 0-.138-.106 1.293 1.293 0 0 1-.368-.259c-.086-.094-.105-.212-.178-.312a.235.235 0 0 0-.223-.088zm-.118.288c.039.047.059.106.118.13a.419.419 0 0 0-.19-.435c-.185-.112-.382-.2-.527-.353a.945.945 0 0 1-.21-.353c-.04-.124-.04-.253-.092-.37a.864.864 0 0 0 .046.587c.099.2.276.353.46.489.132.105.302.176.395.305zm1.38.93c.105.082.17.194.263.282 0-.035.007-.065-.013-.094a1.253 1.253 0 0 0-.493-.459 1.937 1.937 0 0 0-.855-.188c-.21 0-.414.012-.624.023.052.06.144.036.223.042.243.005.487.017.717.07.282.059.558.159.782.324zm-.828.37c.065.153.25.235.296.4.039.118-.027.241-.02.365.013.082.059.165.105.241.033.047.099.077.151.1a.748.748 0 0 1 .329.253c.092.147.131.312.197.47.007 0 .026.006.04.006.065-.27.092-.558.052-.835-.02-.118.026-.23.053-.341.02-.082-.053-.147-.08-.218-.098-.223-.196-.447-.374-.629a1.272 1.272 0 0 0-.447-.259c-.033.047-.079.088-.092.141.007.06.026.112.04.171a1.944 1.944 0 0 1-.257-.035c-.02.053-.033.117.007.17zm.138.677c.026-.124.046-.253-.033-.36-.02.177-.105.348-.086.53 0 .065.08.083.138.1a.63.63 0 0 1-.02-.27zm-.684.1c.132.182.362.27.572.352.204.077.4.183.546.336.157.17.19.4.282.594.06.13.099.265.19.376.086.1.165.2.25.294a.493.493 0 0 0 .132-.288c-.046-.106-.17-.159-.263-.23-.184-.123-.27-.323-.322-.517-.033-.123-.085-.253-.197-.335-.19-.135-.408-.224-.618-.33-.19-.1-.381-.217-.52-.376-.072-.082-.098-.182-.164-.265a.54.54 0 0 0 .112.389zm1.387 1.664c-.092-.147-.131-.323-.25-.459-.006.1.027.194.053.289.04.147.092.3.217.405.052.042.125.03.184.03-.053-.1-.145-.177-.204-.265zM4.055 6.52c.059.041.138.036.21.03-.079-.089-.21-.106-.282-.2-.132-.16-.112-.377-.237-.536-.092-.117-.217-.247-.388-.258.072.064.17.1.237.176.106.125.184.266.23.418.046.135.098.282.23.37zm-.414.4c.164-.023.315-.076.48-.1.184-.03.374-.064.565-.035.099.012.19.047.29.041-.145-.141-.382-.176-.586-.176a1.192 1.192 0 0 0-.75.27zm1.124.106c.105.006.197.059.296.088-.112-.147-.322-.217-.513-.223-.322-.012-.638.064-.947.13-.125.029-.25.023-.374.034.052.048.131.053.203.065.125.018.244.012.369-.006.322-.04.637-.123.966-.088zm-.335.547c.111.012.21-.035.315-.059.112-.023.217-.011.329-.011a.443.443 0 0 0-.237-.253c-.184-.083-.394-.048-.591-.024 0 .094-.027.188 0 .277.046.047.118.058.184.07zm.427.077a.912.912 0 0 0 .177-.071c-.184-.03-.348.059-.512.123-.053.018-.092.048-.132.077.165-.006.309-.088.467-.13zm.486.488a.667.667 0 0 1-.111-.212c-.027-.07-.046-.159-.132-.194-.098-.035-.21 0-.296.041.105.053.224.088.303.17.072.077.138.153.236.195zm-1.8.023c.032.124.058.253.124.365.026.041.086.03.132.035-.04-.082-.1-.159-.139-.247-.026-.059-.052-.117-.085-.176a.14.14 0 0 1-.033.023zm-.823.177l-.256-.124c.046.124.178.212.296.282a.868.868 0 0 0 .565.136c-.092-.065-.21-.083-.309-.13-.105-.04-.19-.117-.296-.164zm-.545-1c.006.065.006.13.026.194.033.035.086.041.132.053-.04-.088-.066-.182-.158-.247zm-.21.359a.976.976 0 0 1 .308.176c.092.07.158.165.277.206-.053-.106-.132-.194-.21-.282a.593.593 0 0 0-.356-.183c-.223-.023-.453-.006-.683-.035-.093-.012-.191-.03-.257-.088-.046-.036-.092-.083-.151-.1.02.053.046.112.099.147.124.088.289.106.447.106.177-.006.354.011.525.053zm.815 1.011c.072.065.092.153.118.236a.833.833 0 0 0 .21-.042c.119-.04.244-.076.362-.123a1.542 1.542 0 0 0-.23-.03 1.305 1.305 0 0 1-.704-.264c-.197-.153-.223-.406-.4-.565-.1-.094-.244-.13-.382-.153-.046-.006-.085.006-.131.018.085.053.21.035.289.1.21.13.21.394.394.547.132.123.342.141.474.276zm-1.223.288c.118-.005.237-.047.361-.023.191.035.369.118.56.153.249.047.499.023.749-.012.17-.023.341-.082.506-.135.059-.018.125-.041.158-.088a1.639 1.639 0 0 0-.447.064 4.719 4.719 0 0 1-.5.124c-.217.04-.44.012-.644-.065-.165-.053-.329-.13-.513-.112-.085.006-.178.024-.23.094zm1.413.365c.493.018 1-.076 1.414-.317.15-.095.289-.206.427-.306.158-.112.329-.206.513-.27.15-.054.322-.054.48-.048.118.006.23.059.348.082a.699.699 0 0 0-.256-.158c-.132-.053-.277-.03-.408 0-.42.1-.789.311-1.137.529a2.537 2.537 0 0 1-.77.312c-.335.064-.683.123-1.031.076-.277-.035-.494-.235-.776-.223-.165 0-.283.123-.362.24-.04.065-.105.13-.111.207.085-.065.144-.147.236-.206a.612.612 0 0 1 .381-.13c.158-.006.277.1.421.136.204.053.42.07.631.076zm-1.15 1.523c-.105.024-.204.048-.31.065 0 .012.007.03.007.041.112.018.244-.006.303-.106zm.473-.046c-.02-.071-.026-.148-.046-.224-.066.076-.125.17-.105.276.013.142.158.242.296.289-.046-.118-.119-.224-.145-.341zm.342-.942a.587.587 0 0 0-.178.077 1.857 1.857 0 0 0-.42.406c-.132.176-.303.329-.474.476.06 0 .119.006.171-.024.165-.082.257-.24.382-.364.164-.2.355-.377.519-.57zm.243-.264c-.059-.042-.144-.036-.217-.047-.131-.012-.27-.03-.381.04a.681.681 0 0 0-.256.342c-.033.088-.086.17-.066.264.085-.082.145-.188.237-.264.184-.165.433-.259.683-.335zm6.324 4.393c.007.153.013.294.072.441.046.124.099.253.191.36.105.123.256.211.414.276-.112-.218-.302-.394-.42-.606-.047-.088-.152-.177-.198-.53-.046-.329.046-.652-.013-.87-.053-.182-.066-.365-.112-.547-.046-.176-.092-.359-.197-.512-.256-.394-.677-.67-1.085-.929-.302-.194-.604-.406-.808-.688-.237-.33-.408-.694-.618-1.035a.762.762 0 0 0-.414-.33c-.178-.053-.368-.106-.559-.094-.256 0-.473.124-.697.212-.17.059-.342.141-.52.182-.367.088-.748.165-1.13.153-.164 0-.342-.03-.506.018.138.012.283.017.42.035.198.018.395-.018.592-.03.152-.011.29-.076.44-.093.369-.024.691-.206 1.053-.23.157-.006.322-.012.473.041.316.1.559.324.756.56.125.146.21.31.315.464.119.176.27.323.401.488.132.147.25.306.401.441.145.13.296.247.447.365.125.1.257.188.375.294.138.123.276.241.381.388.119.176.237.353.316.541.079.188.158.382.204.583.052.235.033.6.026.652zm-4.786-3.54c-.223.076-.427.188-.65.264a.561.561 0 0 1-.52-.065c-.072-.052-.098-.14-.164-.205-.02.14.112.24.23.305.086.042.184.095.29.071.157-.03.282-.123.427-.17.092-.036.19-.048.282-.077.06-.024.08-.076.105-.123zm.605-.095a.945.945 0 0 1 .316-.111.674.674 0 0 0-.119-.147 1.154 1.154 0 0 0-.46.288 1.92 1.92 0 0 0-.388.459c.237-.136.421-.336.651-.489zm.362.147c-.08-.094-.224-.058-.329-.04.008.01.013.022.013.035.105.005.21.011.316.005zm.302-.658c.112.03.257.04.355-.03a.807.807 0 0 0-.236-.27c-.165-.141-.401-.188-.625-.188-.164.011-.329.017-.493.047 0 .005-.007.023-.007.035.132.017.257.035.375.088.217.094.408.235.631.318zm-.04.323c.178.112.382.218.605.2a.39.39 0 0 0-.072-.24h-.276c-.145 0-.263-.077-.401-.107.007.077.086.112.145.147zm.73.741a.411.411 0 0 0 .086-.205c.006-.053-.04-.089-.066-.13-.112 0-.237.018-.348-.018-.145-.04-.263-.129-.388-.2.013.065.033.13.079.183a.948.948 0 0 0 .342.211c.105.048.197.112.295.16zm-.368 2.518c.007.03.138.452.184.5.066-.018.105-.036.171-.06-.112-.27-.144-1.11-.151-1.187-.033.006-.066.047-.092.07a.522.522 0 0 0-.131.277c-.014.094-.02.253.02.4zm-.361 1.423c-.178.259-.31.541-.487.8.007 0 .027.012.04.018.276-.212.453-.5.664-.76.033-.046.098-.134.131-.176.171-.205.375-.411.65-.482A4.01 4.01 0 0 1 7 14.19c-.099-.065-.237-.053-.355-.059-.21-.006-.395.106-.552.224-.04.035-.257.276-.257.276-.085.065-.131.165-.19.253zm-.967.97c.014.012.02.03.033.042a.98.98 0 0 0 .27-.236 3.19 3.19 0 0 0 .27-.447c.052-.1.118-.188.164-.288-.04.012-.092.006-.112.041a1.807 1.807 0 0 1-.145.165c-.118.118-.17.27-.25.406-.061.114-.139.22-.23.318zm-1.682.489c-.165.047-.244.194-.342.306-.033.047-.092.094-.066.153.066-.053.118-.124.177-.189.08-.088.178-.165.23-.27zm.696-.041a.72.72 0 0 0-.427.088c-.099.076-.171.176-.243.27.098.053.21.077.322.06.066-.013.105-.071.138-.118.066-.1.138-.2.21-.3zm1.414.105c-.125-.07-.27-.1-.401-.147a.69.69 0 0 0-.31-.04c-.157.017-.321.046-.433.146-.132.106-.197.265-.316.383a.96.96 0 0 0-.131.14c.059-.011.118-.035.151-.082.105-.123.23-.24.408-.276.23-.035.46-.018.683-.035.119-.012.244-.024.349-.089zm.052.512c.053-.106.158-.182.198-.294-.06.006-.125.012-.178.035-.085.035-.138.1-.19.165a7.94 7.94 0 0 1-.224.265l.026.04a.434.434 0 0 0 .368-.21zm.737-.3c.177-.006.374-.006.519-.112.059-.059.131-.135.105-.217-.118.059-.217.147-.348.194-.165.059-.355.053-.513.13a1.04 1.04 0 0 0-.296.246.716.716 0 0 0-.17.283c.091.047.216.029.275-.053.027-.065.027-.142.053-.206a.444.444 0 0 1 .375-.265zm1.518-.8c-.02.018-.046.035-.06.065-.065.147-.085.312-.124.47a1.17 1.17 0 0 1-.224.448c-.026.017-.032.058.007.064.131-.088.256-.188.322-.323a.92.92 0 0 0 .086-.418c0-.1.02-.206-.007-.306zm.355.088c0-.117.04-.223.06-.335-.132.047-.192.177-.205.294-.013.183-.013.365-.046.547-.006.041 0 .077.007.118a.286.286 0 0 0 .17-.2c.034-.135.02-.282.014-.423zm.394-1.129s-.138.206-.263.294c-.15.106-.335.17-.512.23-.158.058-.342.117-.428.264-.157.247-.111.547-.21.812a.669.669 0 0 1-.25.341c-.098.065-.236.053-.348.088.079.024.158.042.237.06.078.017.157.04.236.01.164-.058.27-.205.342-.346.099-.218.092-.459.184-.676a.912.912 0 0 1 .217-.318c.164-.13.407-.135.565-.276.197-.13.23-.483.23-.483zm.737 1.553c-.092-.053-.204-.088-.29-.159-.111-.1-.23-.194-.289-.33-.112-.229-.079-.523-.052-.764a2.52 2.52 0 0 0-.106.259c-.059.224-.079.459-.046.688.033.135.086.294.23.365.184.058.388.011.553-.06zm.736.165c-.263-.112-.552.006-.776.14.099.03.197.024.29.007a2 2 0 0 0 .486-.147zm1.302.535c-.066-.082-.165-.124-.244-.182-.072-.048-.092-.136-.138-.206a3.348 3.348 0 0 1-.15-.253c-.067-.106-.146-.23-.284-.277-.184-.076-.394-.035-.558.06.092.058.203.064.295.117.14.072.267.163.375.27.092.089.204.16.31.236.091.064.13.164.216.235.053.035.125.03.178 0zm1.55-.494a1.044 1.044 0 0 0-.394-.165c-.19-.023-.361.059-.539.106-.118.041-.25.053-.374.065v.047c.125.012.256.012.388-.012a2.61 2.61 0 0 1 .525-.053c.132 0 .263.053.395.012zm.231.1c.131.07.283.106.427.123a.744.744 0 0 0 .5-.164c-.033-.012-.06-.03-.092-.03-.125-.006-.243.018-.368.036-.152.023-.31-.006-.467.035zm-.151-.753c.138.147.296.282.48.388.006-.03.006-.059-.013-.082a.767.767 0 0 0-.369-.3.18.18 0 0 0-.098-.006zm-1.256.065a.957.957 0 0 1-.388-.012c-.118-.035-.217-.106-.328-.147.026.082.079.159.125.23.046.07.065.152.098.229.02.035.066.04.099.053a.873.873 0 0 0 .46.006c.204-.065.401-.165.618-.195.276.006.48.206.736.253-.079-.112-.184-.2-.283-.3-.092-.088-.19-.182-.315-.23-.099-.034-.204-.058-.309-.034-.178.04-.335.117-.513.147zm-.986-1.518c.118.088.197.2.29.33l.124.2c.125.211.237.417.401.576a.483.483 0 0 0 .395.135c-.06-.07-.158-.141-.224-.218-.145-.164-.15-.3-.19-.47-.033-.135-.158-.33-.25-.441a1.274 1.274 0 0 0-.349-.253 3.096 3.096 0 0 0-.486-.153c-.072-.018-.125-.041-.197-.059.072.059.15.094.243.165.033.023.223.188.243.188zm.217-.582c-.145-.1-.348-.112-.513-.153-.197-.024-.374-.13-.506-.176a.685.685 0 0 0 .303.358c.302.165.5.136.723.23.046.017.164.047.21.059a.568.568 0 0 0-.217-.318zm-.25-.406c-.085-.053-.25-.082-.322-.106-.112-.03-.368-.153-.467-.2a.409.409 0 0 0 .04.23c.02.035.21.123.236.129.211.07.467.094.69.123a.487.487 0 0 0-.177-.176zM6.25 12.149c.02-.123-.065-.223-.072-.318-.013-.152 0-.311.013-.464a.341.341 0 0 0-.111-.294c-.119-.095-.276-.147-.408-.224-.072-.04-.138-.106-.23-.112-.19-.023-.381-.07-.572-.064-.085 0-.151.053-.21.094-.099.076-.224.135-.283.241-.033.059-.06.135-.02.194.04.059.08.124.125.182.033.047.112.06.165.042.039-.012.046-.065.085-.083.013-.006.04-.012.046-.006.033.03-.007.077-.04.106-.065.053-.19.012-.243.07-.065.077.06.19.04.283-.026.094-.138.282-.21.2-.047-.053.091-.112.105-.182.02-.118-.04-.23-.053-.347-.02-.141-.19-.224-.21-.365-.013-.094.02-.188.026-.282-.184-.006-.329.13-.513.147-.151.017-.315.011-.44-.07-.105-.071-.217-.16-.243-.277-.007-.053-.02-.112-.007-.165.033-.059.131-.094.118-.159-.006-.053-.131-.04-.131-.088-.007-.106.23-.023.315-.106.04-.035.092-.094.158-.076.053.017.06.07.026.106-.046.058-.144.017-.19.058-.033.03-.007.083-.027.124-.032.041-.085.07-.111.118-.013.117.079.223.19.264.099.035.21.03.316.012.256-.059.46-.235.723-.294.125-.024.21-.112.296-.188.105-.094.21-.2.23-.341.007-.077-.053-.148-.132-.177a1.305 1.305 0 0 0-.335-.07 1.436 1.436 0 0 0-.42.005c-.158.036-.31.1-.474.1-.125 0-.25 0-.368.048-.184.07-.348.176-.5.294-.131.105-.263.229-.309.388-.085.253 0 .523.152.74.046.077.203.048.236.124.007.018-.006.036-.026.047-.066.036-.145-.04-.21-.076a.74.74 0 0 1-.092.153c-.033.035-.112.076-.145.041-.06-.07.164-.135.138-.23-.053-.076-.151-.105-.223-.164-.1-.065-.112-.182-.152-.277-.125.106-.236.253-.42.265-.119.018-.198-.088-.31-.112-.072-.011-.197.018-.216-.047-.013-.04.059-.064.092-.1-.066-.111-.138-.223-.257-.294-.072-.04-.17-.059-.217-.123-.04-.053.06-.141.106-.106.033.023-.007.094.033.123.092.065.203.118.276.2.065.071.138.16.25.171a.448.448 0 0 0 .322-.218c.098-.194.092-.423.177-.623.053-.13.112-.265.224-.365.072-.07.164-.117.256-.17a2.208 2.208 0 0 0-.368-.16c-.138-.04-.276.007-.388.077-.164.106-.302.26-.506.306a.896.896 0 0 1-.513-.07c-.105-.06-.21-.136-.243-.247-.027-.095-.092-.224-.013-.289.006-.011.039-.005.052 0 .092.065-.04.218.026.318a.454.454 0 0 0 .342.206c-.046-.1-.177-.241-.079-.312.007-.006.04 0 .046.006.099.082.066.265.21.312.093.006.191-.047.224-.124.06-.123.066-.264.145-.382a.562.562 0 0 1 .348-.235c.152-.018.316-.006.46.04.191.06.382.142.586.1 0-.058 0-.117-.046-.158-.112-.112-.296-.13-.408-.241-.145-.124-.204-.3-.276-.459-.06-.123-.204-.2-.349-.223a.506.506 0 0 0-.276.07c-.105.053-.17.141-.263.2-.078.053-.21.077-.263.012a.058.058 0 0 1 0-.047c.06-.07.21-.03.29-.094.059-.047.111-.1.177-.135.066-.036.138-.071.197-.118-.177-.083-.407-.065-.558-.194-.158-.124-.092-.336-.21-.477-.027-.035-.08-.035-.12-.035-.084 0-.196.053-.255 0-.007-.006-.007-.035 0-.041.098-.083.256-.083.394-.041.02-.053.026-.112.04-.165.013-.041.091-.065.118-.041.059.053-.08.153-.06.235a.627.627 0 0 0 .27.406c.118.082.283.076.427.065.158-.012.316.011.48 0 .04-.153-.079-.3-.033-.453 0-.065.053-.147-.006-.2-.046-.053-.099-.106-.086-.177a.135.135 0 0 1 .046-.011c.027.052.046.111.092.158.073.047.185.024.257.083.02.011.04.04.013.053-.046-.006-.085-.024-.131-.036-.046.041-.112.094-.106.16.033.105.138.17.21.258.139.153.158.353.29.506.085.106.145.23.243.33.119.117.27.193.427.264a.857.857 0 0 0 .277.07c-.014-.123-.046-.247-.073-.37a.684.684 0 0 0-.111-.288c-.112-.112-.31-.136-.382-.283-.026-.053.046-.094.099-.1 0 .047-.013.094.006.141.033.03.08.042.119.06.013-.054-.013-.13.052-.16.053-.029.106 0 .138.036l-.098.106c.085.088.21.147.282.247.145.176.198.406.369.57.046.047.105.1.184.094.23-.023.434-.135.657-.194.138-.041.283-.059.42-.1-.13-.123-.216-.294-.387-.382-.138-.07-.296-.047-.447-.053-.099 0-.197.035-.303.035-.157-.006-.302-.106-.341-.24-.02-.066.072-.124.138-.09-.013.054-.046.1-.033.154.033.059.105.082.17.088.106.006.218-.006.297-.07-.007-.053-.08-.077-.106-.118-.085-.094-.006-.218-.006-.324-.19-.017-.381.036-.572.03-.263.006-.52-.094-.75-.2-.23-.136-.4-.335-.571-.524a1.117 1.117 0 0 0-.33-.259c-.124-.064-.295-.047-.387.048-.04.04-.099.1-.066.158.02.094.184.07.224.142.026.047-.046.088-.112.088-.125 0-.145-.112-.197-.183-.072.012-.138.03-.21.018-.1-.047-.25-.088-.27-.188 0-.012.013-.035.026-.035.092-.018.145.111.217.158a.13.13 0 0 0 .151-.011c-.105-.036-.223-.077-.27-.177-.012-.059 0-.123-.012-.182-.02-.035-.099-.06-.086-.1.02-.053.151-.041.184.017.046.077-.033.183.04.26.026.04.092.029.125.011.079-.053.118-.135.184-.194a.556.556 0 0 1 .407-.124c.105.012.204.047.303.065-.073-.159-.244-.265-.428-.306-.125-.035-.263-.035-.381-.088-.112-.047-.145-.206-.29-.206-.052-.006-.144.03-.157-.017-.02-.071.138-.042.27-.03.02-.041.032-.094.072-.118.026-.011.059-.017.085-.005.027.011.046.047.033.064-.02.03-.092-.023-.118 0-.099.094.145.23.283.26.105.017.217.017.322.04.184.041.342.141.48.253.118.1.19.235.282.353.073.1.171.182.224.288.072.136.125.283.263.37.111.071.256.03.374-.017a2.48 2.48 0 0 0 .408-.241c-.092-.047-.184-.088-.256-.153-.086-.076-.165-.159-.276-.206-.08-.047-.178.06-.125.124.032.035.125.065.105.106-.053.1-.204-.094-.21-.194-.007-.06.052-.1.085-.142-.02-.035-.053-.064-.066-.1-.013-.04.026-.088.066-.105.04-.018.105-.012.131.017.007.006.007.03 0 .035-.032.036-.131.006-.144.053-.027.112.197.112.296.171a.757.757 0 0 0 .374.123c-.079-.182-.098-.382-.23-.546a.634.634 0 0 0-.263-.212c-.144-.065-.315-.03-.46-.083-.204-.064-.407-.1-.605-.164.013-.083 0-.16.027-.236.032-.058.105-.07.17-.064 0 .012.007.035.007.047-.053.065-.131.123-.112.212.152.04.31.105.474.076.194-.03.394-.022.585.024a.859.859 0 0 1 .328.194c.086.07.125.17.204.247 0-.118-.006-.236-.04-.353-.039-.13-.19-.183-.262-.294-.033-.047-.053-.1-.105-.13-.1-.011-.237.089-.303.024-.04-.03 0-.1.04-.135.046-.042.118-.071.177-.036.053.03.099.07.151.112.046-.041.112-.135.165-.1.072.047-.02.165 0 .247.033.1.17.124.217.212.072.123.15.247.217.376.098.165.203.347.4.435.02-.135.066-.258.093-.394.02-.14-.106-.247-.184-.358-.08-.1-.066-.271.059-.342.085-.047.19-.076.276-.123-.007-.035 0-.07 0-.106-.375-.106-.77-.123-1.157-.141-.204-.018-.401-.088-.612-.082-.197 0-.4-.018-.591.029-.125.03-.25.059-.362.112-.079.04-.158.088-.25.111-.105.024-.216-.035-.328-.005-.08.023-.191.1-.243.04-.027-.029.006-.088.052-.105.046-.018.125.006.151-.035.046-.077-.217-.136-.164-.206.013-.018.066 0 .092.017.072.042.079.142.151.195.092.058.21.023.303-.012.124-.053.25-.106.361-.183-.118-.088-.276-.111-.407-.176a.883.883 0 0 1-.204-.165c-.06-.064-.23-.035-.237-.111-.006-.065.125-.089.19-.065.106.04.1.206.218.253.263.117.572.182.867.135.138-.024.283-.035.421-.07-.085-.06-.184-.095-.256-.171a3.667 3.667 0 0 0-.316-.306c-.046-.035-.125-.1-.184-.065-.052.024-.066.147-.118.112-.046-.03-.04-.112 0-.153.046-.047.144-.03.217-.006.079.024.158.06.236.089a.662.662 0 0 0 .138-.342c0-.07-.138-.094-.131-.158 0-.048.085-.095.131-.071.047.023-.006.094.014.135.033.059.072.124.065.194 0 .13-.052.277.033.394.099.147.283.224.46.277.217.059.46.04.677-.018a.428.428 0 0 0-.118-.2c-.17-.17-.375-.306-.552-.464-.197-.153-.388-.342-.638-.43-.21-.088-.453.006-.664-.076-.046-.012-.105-.053-.15-.012-.073.059.045.141-.007.206-.033.047-.119.088-.145.047-.026-.035.079-.059.092-.1.007-.047-.04-.088-.04-.135-.006-.053.02-.1.02-.153 0-.042-.065-.1-.026-.124.112-.082.197.182.348.194.21.018.421.03.631.047.112.012.21.06.323.07a1.09 1.09 0 0 0 0-.205c-.014-.106 0-.212-.014-.318-.006-.117-.092-.205-.131-.311-.026-.065-.046-.141-.118-.177-.099-.047-.336-.023-.303-.117.027-.095.21.03.322.035.053-.118.099-.241.204-.324.007-.005.033-.011.04-.005.105.07-.112.2-.132.311-.02.141.171.241.237.37.098.195.131.407.217.607.04.1.085.2.17.276.08.07.152.159.264.194.177.065.368.082.539.147.131.053.27.1.374.194.132.118.21.277.368.365a.368.368 0 0 0-.02-.118c-.078-.205-.078-.423-.164-.623-.098-.2-.295-.335-.493-.447-.23-.147-.48-.312-.558-.57-.014-.136.059-.26.105-.377.026-.053.059-.141.138-.118.085.024.144.159.072.188-.046.018-.092-.035-.138-.058-.105.135-.158.34-.02.476.19.177.447.265.71.318.007-.077 0-.153-.006-.23-.007-.335.105-.658.19-.982.033-.124.092-.259.02-.376-.079-.094-.237-.112-.322-.2-.046-.053-.118-.147-.06-.195.014-.005.04.006.047.012.059.053.046.147.112.194a.363.363 0 0 0 .177.077c0-.053-.026-.118.007-.165.065-.082.177-.235.263-.176.098.07-.198.13-.23.235.006.182.197.318.197.506-.013.159-.105.294-.119.453-.052.43.086.87.336 1.24.085.113.157.23.27.324.052-.123.085-.253.177-.358.092-.106.263-.218.223-.36-.02-.07-.243-.064-.197-.135.04-.053.158 0 .21.047.04.042.066.089.092.136.033-.053.053-.177.119-.153.059.023 0 .123-.033.17-.06.083-.158.136-.21.224-.112.17-.1.388-.073.582.046.259.224.47.362.694.059.094.157.16.223.247.053.065.079.147.145.206.118-.17.217-.359.243-.559.026-.182-.079-.358-.243-.458-.112-.065-.401-.1-.322-.218.02-.03.079-.047.111-.03.033.018.007.071.027.1.026.03.072.03.111.036.02-.047.027-.112.092-.13.066-.017.165-.017.171.036.014.053-.078.082-.118.117.138.065.296.124.388.247.125.147.112.342.138.518a.624.624 0 0 0 .348-.33c.013-.046-.026-.082-.046-.123-.046-.006-.098 0-.131-.03-.013-.035-.013-.088.033-.111.118-.065.289-.006.335.106.079.159-.013.317-.04.476.066.012.171-.006.204.065.033.041 0 .094-.039.118-.072.029-.132-.06-.204-.06-.151.095-.197.26-.27.4-.085.154-.282.242-.322.418-.046.253-.092.512-.046.77.04.189.073.377.119.56.013.058.04.105.059.158.19-.029.335-.182.414-.335.118-.247.118-.53.164-.794.04-.217.086-.432.138-.647.027-.182.073-.365.053-.553-.02-.17-.02-.347-.112-.5-.098-.194-.296-.33-.486-.447-.132-.076-.257-.159-.395-.217-.157-.071-.328-.094-.5-.124-.065-.012-.13-.023-.196-.012-.086.03-.046.147-.105.189a.08.08 0 0 1-.053 0c-.053-.036-.033-.124.006-.177.033-.035.086-.053.132-.076 0-.053-.007-.106.007-.153.02-.047.072-.124.111-.094.046.029-.04.094-.059.14.033.024.066.06.112.054.125-.018.256-.047.388-.03.131.006.243.088.374.077-.098-.247-.322-.447-.565-.583a3.26 3.26 0 0 1-.46-.294c-.145-.106-.276-.247-.467-.288-.118-.03-.197.07-.29.106-.071.012-.137-.012-.203-.023a.146.146 0 0 1 .092-.165.268.268 0 0 0-.013.123c.158-.023.27-.158.44-.153.139-.005.25.071.375.112-.013-.165-.118-.306-.125-.47-.006-.13.151-.206.158-.336.007-.035.007-.07.007-.105l.052-.03c.027.059.06.124.027.182-.046.071-.125.136-.152.218-.04.094 0 .2.073.27.092.102.203.187.328.254.086.047.178.082.25.147.079.07.105.182.217.217.197.07.348.206.493.341.25.27.342.63.592.9.17.17.341.347.512.518a.57.57 0 0 0 .145.088.734.734 0 0 0-.21-.341c-.132-.13-.27-.247-.408-.365a1.155 1.155 0 0 1-.296-.382c-.072-.153-.158-.306-.184-.47a1.64 1.64 0 0 1 .007-.36c.006-.046.013-.088-.013-.129-.066-.117-.204-.182-.296-.282-.132-.141-.25-.3-.322-.47-.06-.154-.027-.318.04-.465.025-.083.078-.17.045-.26-.066-.04-.131-.075-.197-.123-.066-.04-.17-.006-.224-.058-.013-.018-.013-.042 0-.053.106-.094.257.082.369.159C7.19.715 7.092.656 7.072.58c-.033-.136.066-.424.184-.347.099.064-.131.188-.131.3-.007.064.052.106.092.153a.356.356 0 0 1 .105.34c-.026.1-.086.195-.112.295-.02.064.033.13.072.182.1.112.217.212.336.306.085.065.157.147.243.218.06-.112.092-.242.171-.341.072-.095.158-.183.237-.277.065-.082.17-.123.236-.2.06-.082.053-.188.06-.282l.118.07c.052-.076.105-.159.19-.205.125-.071.283-.106.349-.23-.053-.07-.158-.123-.158-.218 0-.035-.007-.105.033-.1.052.012.006.1.033.142.04.053.125.064.157.117a.18.18 0 0 1-.039.224c-.105.088-.256.117-.342.223-.066.089-.085.2-.158.288-.078.1-.23.13-.302.236a.996.996 0 0 0-.125.335c-.033.19-.04.384-.02.576.02.212.119.412.152.618.032.135.052.282.157.388.06-.082.119-.17.198-.241.131-.112.276-.218.374-.353.06-.07.02-.165-.026-.235-.079-.112-.112-.282-.256-.324-.053-.017-.112.03-.165.024-.04-.006-.079-.035-.079-.065 0-.04.066-.07.119-.076.072-.006.125.04.164.082l.079.07a.637.637 0 0 1 .118-.188c.046-.04.125-.017.145.018.06.106-.158.07-.25.177a.764.764 0 0 1 .138.147c.053.094.164.164.151.276-.02.159-.138.282-.223.412-.099.158-.23.306-.27.488-.033.13-.052.27.013.394a.78.78 0 0 0 .106.147c.072-.07.098-.17.164-.247.197-.235.5-.376.782-.512.099-.04.197-.112.224-.211.033-.153-.04-.306-.125-.436-.112-.17-.25-.34-.27-.54-.02-.13.066-.248.04-.371-.007-.042-.046-.065-.073-.089-.046.053-.065.124-.124.16-.02.01-.053.017-.073.005-.065-.035 0-.13.013-.194-.072-.006-.157-.006-.217-.053-.032-.03-.059-.076-.039-.112a.073.073 0 0 1 .032-.02.08.08 0 0 1 .04-.003c.053.017.04.094.086.13.105.023.236-.019.328.052.06.047.125.106.139.182-.014.095-.106.171-.093.271a.49.49 0 0 0 .211.359h.04c.012-.07.02-.147.026-.218.006-.041-.08-.076-.06-.117.04-.071.165-.042.25-.053.151-.018.23.376.086.294-.06-.036.046-.118.026-.177s-.112-.017-.158.012c-.02.012-.052.03-.046.059.007.123.053.235.092.353.046.117.073.24.138.353.145-.106.263-.26.283-.43a.615.615 0 0 0-.046-.359 1.681 1.681 0 0 0-.164-.247 2.42 2.42 0 0 0-.355-.405c-.184-.16-.401-.312-.454-.547-.02-.112-.033-.247.046-.347.053-.071.112-.247.197-.195.112.071-.164.183-.19.3-.053.236.065.477.276.612.065-.106.059-.341.197-.323.118.017-.06.176-.086.264-.039.095.06.17.125.236.145.129.368.176.467.347.06.111.118.23.204.329.066-.059.079-.141.099-.218a.819.819 0 0 1 .17-.352c.046-.06.119-.118.112-.2 0-.124-.158-.183-.164-.306.065.035.105.1.164.147.06.04.125-.012.178-.036.065-.04.15-.035.23-.064.059-.024.112-.06.17-.083-.045.124-.21.142-.328.177-.118.03-.138.147-.164.235-.02.1-.092.188-.132.288-.046.118-.026.241-.04.36-.026.223-.111.44-.19.652-.046.118-.138.212-.177.33-.033.093-.093.182-.132.276.243.017.48.035.723.047.08.012.125-.065.151-.118.027-.059-.046-.094-.085-.135-.033-.041-.046-.118 0-.118.131 0 .184.16.27.247.052.053.138.083.184.147.032.071.006.153-.04.218-.026.041-.099.065-.131.035-.053-.053.046-.147.052-.217.007-.042-.02-.094-.072-.083-.112.047-.184.153-.309.177-.138.017-.276-.006-.414.017a1.63 1.63 0 0 0-1.118.73.963.963 0 0 0-.138.417c-.013.106-.046.218-.026.324a.214.214 0 0 0 .237-.17c.04-.154.013-.324.098-.465.053-.118.19-.16.257-.265a2.34 2.34 0 0 0-.204.012c.026-.136.276-.094.282.023-.046.083-.17.124-.21.218a.434.434 0 0 0 .04.4c.23-.212.309-.506.473-.747a.465.465 0 0 1 .473-.2c.112.041.125.176.237.217.04 0 .079-.029.118-.04a.135.135 0 0 1 .046.011c-.026.041-.04.088-.085.118-.053.03-.125.03-.171-.006-.079-.053-.099-.147-.125-.23-.132-.029-.263.053-.322.153-.06.112-.08.236-.112.353-.046.2-.099.4-.17.594.341-.017.663-.14.926-.33.138-.093.263-.2.348-.334.132-.17.23-.377.244-.589.006-.188-.092-.358-.198-.517-.144-.235-.27-.512-.203-.788.02-.1.052-.212.157-.265.106-.018.21.024.31-.018.072-.029.15-.058.177-.123.033-.088-.046-.27.06-.27.065 0 .019.111.012.164-.006.065 0 .135-.046.194-.066.088-.164.135-.263.182.013.13.132.336.283.277.052-.024.026-.118.079-.141.04-.018.098.006.112.047.032.106-.145.182-.257.147-.158-.047-.23-.188-.309-.3-.144.035-.25.182-.21.312a.616.616 0 0 0 .17.3c.139.123.27.253.382.4.072.094.092.211.184.294.105-.095.145-.23.224-.342.059-.088.177-.135.203-.235.04-.13.04-.264.086-.388.04-.118.125-.218.177-.33.046-.094.066-.2.007-.293-.066.017-.138.064-.21.047-.125-.036-.027-.336.072-.277.059.035-.092.153-.04.2.04.041.119-.035.184-.03a.203.203 0 0 1 .1.177c0 .07-.02.135-.027.206.085.012.19.006.256.07.046.042.105.118.06.171-.027.03-.093.041-.12.018-.038-.035.04-.106.008-.147-.08-.094-.224.1-.21.2.012.13.039.253.052.376.131.006.263.006.394.006.08 0 .158 0 .23-.035.125-.07.25-.159.296-.288.066-.153-.079-.312-.02-.465.033-.07.099-.153.198-.124-.04.048-.092.094-.132.147-.013.06.013.118.02.177a.753.753 0 0 1-.026.382c.072.035.15.077.184.147.033.06.111.089.15.141-.045 0-.085.006-.124-.006-.066-.035-.092-.105-.151-.14-.073-.018-.119.058-.138.105a.492.492 0 0 1-.25.265c-.105.035-.224.047-.329.082-.131.041-.243.13-.368.194-.092.053-.197.112-.25.206-.02.065 0 .136 0 .2.007.118-.065.224-.138.318-.052.07-.138.123-.204.188-.144.159-.243.335-.361.506a.52.52 0 0 1-.099.106c-.118.1-.223.2-.355.288a2.917 2.917 0 0 1-1.005.418c-.141.029-.274.085-.388.164a2.886 2.886 0 0 0-.421.353c.079.024.151.053.23.077.125.047.296.053.381-.03.06-.059.013-.153.013-.23-.006-.058.092-.093.138-.052.119.07.093.241-.013.312-.085.058-.197.076-.295.117.046.03.092.077.157.077.073-.024.151-.141.21-.094.027.023.014.076-.019.105a.205.205 0 0 1-.164.053c-.099-.011-.178-.076-.27-.1-.112.006-.217.053-.329.071a.52.52 0 0 0-.374.23c-.04.064-.04.14-.04.217.224-.006.434-.082.658-.1.21-.012.414-.088.591-.188.171-.1.29-.26.375-.424.053-.1.112-.2.138-.305.02-.065-.046-.153-.125-.136-.02.006-.046.006-.066.012.027-.041.046-.094.099-.118.053-.011.105-.006.158-.011.065-.042.111-.124.204-.112.111.012.15.123.216.194.053.07.21.076.237-.018.026-.064-.046-.117-.085-.164.052-.089.197-.024.197.064.013.13-.118.283-.276.253-.125-.023-.171-.153-.263-.223-.04.017-.092.035-.112.076-.033.059-.033.13-.046.194-.04.212.007.424-.026.635a.863.863 0 0 0 .217-.088c.27-.141.545-.3.743-.53.118-.129.184-.281.276-.423.052-.088.157-.135.184-.229.026-.088.046-.182.105-.259.072-.112.21-.176.263-.3a.683.683 0 0 0 .026-.47c-.033-.118-.125-.218-.125-.341-.013-.171.125-.512.276-.406.112.076-.19.164-.184.294 0 .1.02.212.112.276.02-.059.033-.117.066-.17a.39.39 0 0 1 .21-.141c.072-.024.151-.012.224-.012.098.006.217-.112.282-.047.053.053-.105.1-.17.117-.1.03-.204-.023-.303.006a.351.351 0 0 0-.158.212c-.006.153.086.294.092.447.007.082-.02.165 0 .241.086-.041.165-.094.257-.118.164-.04.341-.035.506-.094a.607.607 0 0 0 .204-.235c.052-.1-.106-.2-.053-.294.013-.024.033-.059.059-.053.112.035.06.212.06.318 0 .1-.08.176-.126.259.106.023.217.046.323.035.085-.006.19-.136.243-.077.046.053-.086.112-.165.124-.144.023-.282-.03-.427-.036-.098.018-.164.1-.25.153-.151.095-.328.16-.466.271-.092.07-.145.165-.204.253-.06.112-.132.217-.145.341a1.04 1.04 0 0 1-.125.418c-.04.064-.079.123-.118.188.105-.018.204-.035.309-.041.112-.006.23-.006.335-.047a.629.629 0 0 0 .184-.118.413.413 0 0 0 .086-.176c.046-.17.098-.348.21-.495.079-.111.118-.258.27-.305.17-.042.341.053.512.047.158 0 .276-.089.42-.118-.032.112-.15.165-.262.212.046.053.092.106.105.176.013.089.066.17.112.253-.033-.012-.072-.012-.092-.035-.092-.1-.046-.253-.158-.347-.092-.082-.236-.088-.355-.07-.138.017-.282.07-.368.17-.046.065-.046.147-.052.223-.007.153-.007.312-.04.465-.02.082-.06.159-.092.241.138-.035.283-.082.434-.088.296-.018.578.088.874.1.138.012.263-.041.395-.065-.027.03-.046.065-.086.083-.125.064-.276.053-.407.088.072.053.157.112.177.2a.757.757 0 0 1-.006.364c-.06-.035-.04-.105-.046-.158 0-.094-.02-.206-.112-.27-.145-.071-.316-.071-.474-.066-.131.012-.276.006-.394.06-.217.087-.342.282-.526.41a1.757 1.757 0 0 1-.789.295c-.144.012-.27.088-.407.124a.799.799 0 0 0-.165.07c.106.082.244.088.362.147.177.088.375.159.532.27.099.071.224.136.355.118.112-.011.178-.105.217-.188.06-.135-.013-.294.086-.412.052-.064.15-.076.223-.035.04.024.053.077.013.106-.065.035-.138.047-.21.07.007.095.053.195.007.289-.033.1-.132.164-.204.247.066-.024.131-.047.17-.1.08-.1.119-.241.257-.294.118-.03.243-.035.368-.03-.085.1-.243.047-.355.094-.125.083-.157.23-.263.33-.085.07-.203.088-.315.106a.65.65 0 0 1-.395-.053c-.164-.088-.315-.188-.493-.247-.164-.047-.348-.036-.506-.094-.197-.077-.388-.189-.611-.189-.237 0-.474.018-.697.094.04.112.105.212.145.318.046.094.092.194.177.265.112.053.302.006.316-.124-.014-.07-.145-.135-.092-.182.078-.076.157.135.197.223.072-.023.151-.076.23-.052.099.023.19.123.158.217-.027.059-.158.094-.178.041-.013-.047.092-.059.105-.1.02-.059-.079-.111-.144-.082-.099.041-.132.147-.21.206-.066.059-.172.059-.264.053-.092-.006-.164-.07-.236-.112-.086-.053-.19-.07-.27-.13-.138-.1-.217-.246-.348-.352a.241.241 0 0 0-.121-.056.257.257 0 0 0-.136.014 3.529 3.529 0 0 0-.834.43c-.106.082-.21.17-.277.282a1.026 1.026 0 0 0-.118.694c.02.1.086.224.217.235.151.012.296-.029.434-.076.27-.106.42-.359.48-.606.013-.1.026-.2-.007-.3-.059-.1-.197-.088-.302-.082a.232.232 0 0 0-.138.053c.02.082.118.07.184.094.079.088-.066.276-.178.182-.131-.117-.144-.37.046-.453.132-.07.277.012.408.042.04-.1.066-.218.145-.306.065-.083.223-.07.276.017.046.07.059.153.059.236-.046-.047-.079-.1-.118-.147-.033-.042-.112-.053-.152-.012a.404.404 0 0 0-.092.253c-.013.064.046.111.08.159.065.07.078.164.104.247.112-.047.21-.112.33-.142.236-.064.492-.064.735-.011.132.03.263.082.401.076.171-.006.355-.023.52.041.19.077.368.183.565.241.066.024.145.024.19-.023.126-.112.119-.282.198-.412.059-.094.184-.117.263-.194.02-.035.006-.076.013-.118.04.012.112-.005.118.042-.046.053-.092.094-.138.14.125.042.243.095.362.142.079.03.118-.059.19-.082-.006.04.007.088-.026.117-.046.047-.125.07-.184.036-.118-.065-.25-.142-.394-.124-.073.047-.066.135-.066.206.008.108.005.216-.007.323.145-.011.283-.07.408-.129a4.66 4.66 0 0 0 .48-.276c.118-.077.204-.183.315-.265.099-.065.224-.077.336-.112.111-.041.23-.217.322-.147.079.059-.099.147-.178.194-.125.083-.29.077-.42.153-.112.065-.171.17-.257.259a7.16 7.16 0 0 1-.394.359c.131.076.263.153.374.247.066.053.112.135.204.158.04-.04.073-.123.132-.111.02.006.026.035.02.053-.014.04-.066.053-.093.082.007.035.046.077.02.106-.02.03-.072.035-.099.018-.026-.018-.006-.06-.006-.089-.08-.03-.164-.053-.224-.111-.059-.053-.098-.112-.17-.147-.257-.06-.5.052-.75.076-.151.024-.335.041-.42.177-.106.123-.073.288-.066.429.006.123-.053.235-.066.353a.46.46 0 0 0 .118.282c.099.077.25.041.355-.012.184-.088.342-.217.5-.335a2.07 2.07 0 0 1 .545-.294c.171-.059.362.035.533-.018.079-.035.164-.164.23-.111.105.082-.164.158-.276.2.033.088.033.2.098.27.04.041.152.047.145.1-.006.035-.079.041-.125.018-.118-.065-.125-.188-.204-.27a.475.475 0 0 0-.276-.1c-.21.058-.374.2-.512.346-.087.108-.166.22-.237.336.118.023.25.029.361.088.106.053.21.135.336.135.092-.012.125-.112.21-.135.033-.012.086-.041.099-.012.046.082-.132.147-.198.218-.052.053-.138.035-.21.04.013.136.033.442-.138.389-.125-.035.092-.188.066-.294-.026-.1-.099-.212-.224-.224a1.237 1.237 0 0 0-.565.106c-.178.07-.335.189-.533.2a.425.425 0 0 1-.302-.088c-.105-.082-.256-.059-.361-.13-.112-.076-.224-.176-.244-.305-.046-.26.112-.512.08-.77-.02-.124-.04-.26-.132-.36-.053-.058-.119-.117-.204-.111-.158.005-.329.011-.473.082a.728.728 0 0 0-.349.335c-.046.094-.105.189-.138.289.099.029.204.058.276.135.178.165.27.435.132.64a.744.744 0 0 0-.086.195c-.02.07-.098.112-.125.182-.033.077.046.2-.026.247-.013.006-.046 0-.06-.006-.058-.035-.058-.129-.032-.194.026-.07.085-.135.118-.206-.15.077-.295.183-.48.206-.065.012-.138-.07-.065-.106.098-.046.21-.058.302-.123.118-.082.263-.159.31-.294.025-.07.045-.153 0-.218-.04-.064-.126-.106-.205-.117-.15-.03-.302-.006-.453.017-.171.024-.355.006-.52.065a1.08 1.08 0 0 0-.46.33c-.138.158-.138.376-.276.535-.066.088-.158.205-.105.311.025.046.046.093.066.141.111.247.04.53.21.73.145.164.401.312.54.411.11.083.341.489.374.56.105.164.079.376.21.535.224.27.25.876.427.97.198.124.428.141.612.159.138.018.276.053.414.082.19.041.388.112.52.253.124.124.157.3.275.424.119.023.257-.018.375.029.079.035.118.106.19.147.112.012.244.012.33.094.072.059.098.153.137.23.04.082.112.152.119.247-.132.064-.283.029-.408-.03-.144-.07-.236-.2-.342-.312-.118.047-.223.13-.355.16-.243.076-.506.023-.736-.054-.335-.111-.697-.106-1.039-.047-.177.03-.368-.006-.552.024.053.082.119.182.08.282-.014.07-.106.041-.165.047-.105-.006-.217.041-.322.012-.125-.065-.197-.182-.329-.235-.29-.124-.625-.147-.94-.112-.217.018-.434.065-.65.041-.211-.023-.422-.053-.639-.07a1.246 1.246 0 0 0-.361.047c-.17.035-.322.117-.493.164-.151.047-.309.065-.46.1a1.417 1.417 0 0 1-.546.018c-.144-.018-.289-.083-.44-.059-.125.03-.19.147-.296.206-.131.047-.256-.024-.381-.041-.099.017-.178.088-.283.088-.105-.006-.19-.076-.302-.065-.073.006-.152-.011-.191-.07-.013-.071.066-.112.118-.153.06-.053.152-.036.224-.06.046-.017.059-.064.072-.105-.125-.012-.243-.006-.361-.012-.119-.011-.23-.053-.349-.03-.138.03-.263.1-.374.177-.066.041-.145.083-.224.06-.164-.048-.316-.136-.48-.2-.131-.042-.25.058-.361.1-.112.046-.237.023-.355.029-.092.005-.178.035-.27.029.092-.153.329-.077.447-.194.132-.124.21-.277.302-.418a.534.534 0 0 1 .27-.223c.237-.088.506-.083.756-.141.316-.077.631-.212.835-.453.125-.141.184-.312.289-.465.053-.088.132-.165.204-.247 0 0 .138-.112.158-.13a.712.712 0 0 0 .223-.446c.013-.13-.006-.236 0-.36l.007-.187c-.013-.165.072-.318.184-.453.046-.065.072-.147.105-.218.066-.141.099-.235.204-.347.046-.047.118-.082.164-.159a.857.857 0 0 0 .085-.388zm3.346.106c-.046.023-.065.212-.065.247.006.282-.027.406.098.512.04.035.198.112.25.112-.046-.06-.164-.26-.177-.33-.027-.13-.053-.406-.106-.541zm2.65-2.617a.939.939 0 0 0-.605.123c-.335.212-.559.535-.92.724-.23.129-.5.229-.632.452.106-.064.204-.147.316-.205.25-.142.565-.142.809-.294.17-.118.184-.33.315-.477.105-.118.243-.23.414-.259.099-.023.204-.017.303-.064zm.992.217c-.04.135-.026.277-.072.412-.053.17-.158.318-.23.482-.086.183.013.418.21.506-.006-.1-.02-.2 0-.3.026-.153.099-.294.138-.447.06-.218.06-.453-.046-.653zm.119 1.018c-.027.106-.046.223-.007.33.053.1.19.129.302.105a.907.907 0 0 0 .533-.33c.026-.035.085-.076.066-.129-.178.1-.362.23-.579.206-.131-.012-.223-.106-.315-.182zm.519-1.618c.118-.053.105-.182.092-.282zm-1.078-.123c.079.13.25.159.361.253.066.047.112.123.204.123.184.006.362-.012.54-.041.236-.041.46-.13.663-.247.092-.053.19-.1.257-.182-.062.022-.122.05-.178.082a1.992 1.992 0 0 1-.585.235c-.23.047-.467.041-.69-.023-.198-.053-.368-.165-.572-.2zm-1.854.335c.131-.088.23-.212.368-.294.092-.065.204-.1.29-.17-.224.011-.415.123-.579.246-.072.053-.072.142-.079.218zm-1.262.5a.45.45 0 0 0 .204.13c.197.058.407-.018.565-.124.164-.106.243-.288.296-.459.026-.112.052-.223.02-.335-.066.13-.119.264-.21.382-.113.159-.297.27-.487.347-.119.047-.25.047-.388.059zm.25-1.788c-.5.135-.907.576-.9 1.053-.014.317.137.623.334.888.152.235.342.465.421.735a.3.3 0 0 0 .079-.076c.131-.189.355-.312.565-.418.224-.135.447-.276.618-.465.15-.157.334-.287.54-.382.196-.082.42-.141.643-.1a.994.994 0 0 1 .572.312c.066.076.066.188.152.253a.67.67 0 0 0-.08-.389c-.11-.188-.328-.305-.552-.37a1.088 1.088 0 0 0-.67.03c-.112.046-.21.117-.302.193-.178.136-.296.312-.447.465-.165.177-.362.353-.618.412a1.585 1.585 0 0 1-.5-.006c-.243-.065-.414-.259-.506-.465-.105-.211-.105-.453-.086-.676.046-.341.27-.659.579-.865a.532.532 0 0 0 .158-.13zm1.328-.447c-.184-.035-.368-.03-.553-.03-.236 0-.473-.011-.71.03-.466.059-.913.3-1.143.676A1.475 1.475 0 0 0 8.8 9.967c.138.288.348.541.486.823.066.13.145.26.185.4.026.083.078.23.105.289a.647.647 0 0 0 .046-.206c0-.106.013-.2-.02-.306-.164-.377-.46-.694-.618-1.07a1.366 1.366 0 0 1-.118-.853c.052-.189.125-.371.256-.53.178-.23.454-.382.75-.47.308-.083.624-.147.94-.218.144-.03.302-.024.447-.094zm.065.47c-.039-.07-.072-.14-.138-.194-.052-.011-.098.012-.144.018.046.076.118.141.17.218.073.1.139.217.27.264-.046-.106-.105-.206-.158-.306zm.526-.552c-.112-.048-.236-.071-.355-.106-.112-.036-.217-.07-.329-.1-.118-.036-.236-.077-.36-.083-.211-.006-.428-.011-.632.042-.296.07-.605.1-.888.205-.124.047-.256.094-.368.16-.15.093-.315.181-.427.317a1.541 1.541 0 0 0-.388 1.153c.04.27.132.535.29.77.111.153.223.306.394.406-.145-.241-.329-.465-.388-.73-.085-.382-.079-.793.105-1.152.178-.394.559-.688 1-.835.23-.07.466-.124.71-.124.295-.006.591.035.887.065.25.012.5.064.75.012zm.618-.171c-.151-.065-.322-.076-.48-.13-.223-.07-.453-.123-.69-.088.04.024.085.047.131.06.336.1.69.193 1.04.158zm1.15-.318c-.183.047-.374.112-.571.1-.29-.011-.546-.14-.829-.14-.118 0-.243-.007-.361.029.158.082.335.111.506.158.283.065.585.147.868.06.138-.048.276-.107.388-.207zm1.513-.529c-.171 0-.355-.03-.513.041a2.42 2.42 0 0 0-.67.459c-.093.088-.224.147-.303.253.256-.07.473-.23.664-.4.118-.094.23-.212.381-.265.138-.047.29-.047.434-.047.006-.006.013-.03.006-.041z"/></g><g><g><path fill="#32448c" d="M24.434 2.693c-.119 0-.342.048-.52.13-.25.106-.374.23-.637.517-.395.424-2.051 2.912-2.262 3.365-.177.382-.177.712-.177 1.058v.871c0 .17 0 .612.033 1.059.026.306.131.54.486.582.164.018.427.041.592.041.131 0 .19.03.19.082 0 .077-.098.106-.25.106-.742 0-1.485-.029-1.807-.029-.296 0-1.039.03-1.48.03-.17 0-.262-.024-.262-.107 0-.052.059-.082.19-.082.165 0 .31-.018.415-.041.236-.041.341-.276.368-.582.033-.447.033-.888.033-1.059v-.87c0-.571-.119-.806-.27-1.112-.085-.165-1.67-2.494-2.084-3.047-.296-.388-.591-.653-.815-.77-.158-.071-.355-.136-.5-.136-.092 0-.177-.017-.177-.094 0-.064.079-.094.223-.094.217 0 1.105.03 1.493.03.25 0 .736-.03 1.268-.03.119 0 .178.03.178.094 0 .065-.086.077-.263.118a.193.193 0 0 0-.164.188c0 .082.059.212.144.359.165.317 1.821 2.87 2.012 3.164.118-.253 1.61-2.582 1.775-2.911.118-.235.164-.418.164-.553 0-.106-.046-.224-.25-.265-.105-.023-.21-.041-.21-.106 0-.07.06-.094.204-.094.388 0 .769.03 1.11.03.264 0 1.046-.03 1.27-.03.124 0 .21.018.21.083 0 .076-.092.105-.23.105zm9.426 3.953c0 .059-.065.082-.15.082-.1 0-.178.006-.323.03-.316.053-.434.235-.447.606-.013.317-.013.74-.013 1.27v1.153c0 .288-.007.306-.151.382-.77.359-1.933.477-2.853.477-2.9 0-5.47-1.23-5.47-4.153 0-1.694.98-2.882 2.058-3.464 1.137-.612 2.189-.688 3.182-.688.821 0 1.86.129 2.096.17.25.041.664.106.934.118.138.012.164.053.164.13 0 .117-.085.41-.085 1.734 0 .17-.04.224-.132.224-.085 0-.105-.053-.118-.136-.033-.24-.092-.582-.4-.876-.356-.335-1.303-.823-2.637-.823-.65 0-1.512.047-2.34.658-.664.5-1.091 1.294-1.091 2.594 0 2.276 1.617 3.982 4.115 3.982.309 0 .723 0 1.005-.117.178-.077.224-.212.224-.394V8.61c0-.53 0-.93-.013-1.247-.007-.365-.118-.53-.506-.606a3.167 3.167 0 0 0-.46-.03c-.106 0-.178-.017-.178-.082 0-.082.085-.106.25-.106.618 0 1.36.03 1.716.03.368 0 .999-.03 1.387-.03.15 0 .236.018.236.106zm10.268 0c0 .059-.065.082-.15.082-.1 0-.178.006-.323.03-.315.053-.434.235-.447.606-.013.317-.013.74-.013 1.27v1.153c0 .288-.007.306-.151.382-.77.359-1.933.477-2.853.477-2.9 0-5.47-1.23-5.47-4.153 0-1.694.98-2.882 2.058-3.464 1.137-.612 2.189-.688 3.182-.688.821 0 1.86.129 2.097.17.25.041.664.106.933.118.138.012.164.053.164.13 0 .117-.085.41-.085 1.734 0 .17-.04.224-.132.224-.085 0-.105-.053-.118-.136-.033-.24-.092-.582-.4-.876-.356-.335-1.302-.823-2.637-.823-.65 0-1.512.047-2.34.658-.664.5-1.091 1.294-1.091 2.594 0 2.276 1.617 3.982 4.115 3.982.309 0 .723 0 1.006-.117.177-.077.223-.212.223-.394V8.61c0-.53 0-.93-.013-1.247-.007-.365-.118-.53-.506-.606a3.163 3.163 0 0 0-.46-.03c-.106 0-.178-.017-.178-.082 0-.082.086-.106.25-.106.618 0 1.36.03 1.716.03.368 0 .999-.03 1.387-.03.151 0 .236.018.236.106zm9.486-2.935c.592.547 1.15 1.43 1.15 2.688a3.98 3.98 0 0 1-1.288 2.953c-.545.494-1.775 1.247-3.964 1.247-.427 0-.913-.03-1.36-.065a16.585 16.585 0 0 0-1.157-.065c-.132 0-.395 0-.678.012-.269 0-.578.023-.815.023-.15 0-.236-.029-.236-.106 0-.052.046-.082.19-.082.178 0 .322-.018.427-.041.237-.041.296-.276.342-.582.06-.441.06-1.277.06-2.253V5.576c0-1.612 0-1.906-.027-2.247-.02-.365-.118-.53-.506-.606a3.145 3.145 0 0 0-.46-.03c-.132 0-.204-.017-.204-.094 0-.07.086-.094.263-.094.625 0 1.374.03 1.703.03.368 0 1.11-.03 1.82-.03 1.48 0 3.452 0 4.74 1.206zm-.434 2.994c0-1.347-.63-2.212-1.137-2.647-1.085-.93-2.439-1.059-3.36-1.059-.236 0-.676.036-.768.077-.112.041-.145.094-.145.212-.013.358-.013 1.282-.013 2.117V6.74c0 1.123.013 1.941.026 2.141.013.265.04.688.132.806.158.2.618.423 1.551.423 1.21 0 2.012-.211 2.722-.764.756-.583.992-1.547.992-2.641zm19.728 3.711c0 .083-.105.106-.546.106-.427 0-1.288 0-2.235-.023-.21-.006-.355-.006-.355-.083 0-.064.046-.082.165-.094.079-.018.164-.112.105-.241l-.947-2.247c-.026-.053-.059-.076-.118-.076H66.34c-.06 0-.08.017-.105.082l-.638 1.512c-.118.264-.177.517-.177.647 0 .194.105.329.473.329h.177c.145 0 .178.018.178.082 0 .083-.072.106-.204.106-.243 0-.54-.012-.815-.023a.447.447 0 0 1-.171.023h-1.67c-.098 0-.164-.012-.197-.041a1.69 1.69 0 0 1-.52-.159c-.512-.247-.96-.74-1.623-1.558-.473-.583-1.019-1.3-1.17-1.46-.06-.064-.125-.076-.21-.076L58.635 7.2c-.059 0-.092.018-.092.082v.141c0 .983 0 1.818.06 2.265.032.306.105.54.46.582.177.018.434.041.578.041.099 0 .145.03.145.083 0 .076-.086.106-.237.106-.69 0-1.564-.03-1.742-.03-.23 0-.973.03-1.446.03-.151 0-.237-.03-.237-.106 0-.053.046-.083.191-.083.177 0 .322-.017.427-.04.237-.042.296-.277.342-.583.06-.441.06-1.277.06-2.253V5.57c0-1.612 0-1.906-.027-2.247-.02-.365-.118-.53-.506-.606a3.145 3.145 0 0 0-.46-.03c-.132 0-.204-.017-.204-.093 0-.071.085-.095.263-.095.63 0 1.374.03 1.623.03.401 0 1.302-.03 1.67-.03.743 0 1.538.06 2.176.453.329.206.802.741.802 1.453 0 .782-.368 1.5-1.565 2.37 1.059 1.183 1.874 2.124 2.57 2.782.277.253.514.412.717.518.204-.165.342-.418.48-.735l2.972-6.647c.138-.305.21-.423.328-.423.105 0 .178.1.296.341.283.582 2.176 4.9 2.932 6.511.447.953.789 1.1 1.038 1.153.178.03.355.041.5.041.099 0 .158.012.158.1zM61.075 4.94c0-1.5-1.11-1.935-1.808-1.935-.295 0-.506.012-.624.041-.079.018-.105.065-.105.147v3.224c0 .111.02.158.105.188.25.076.605.106.9.106.474 0 .632-.047.842-.183.355-.235.697-.723.69-1.588zm7.678 2.277c.06 0 .073-.036.066-.065l-1.065-2.617c-.013-.042-.02-.095-.059-.095-.04 0-.06.053-.072.095L66.53 7.14c-.013.047 0 .077.046.077zm7.31-1.536c1.433.965 1.94 1.694 1.94 2.694 0 .612-.257 1.341-1.111 1.841-.592.341-1.256.435-1.88.435-.69 0-1.223-.076-1.73-.276-.19-.07-.223-.123-.223-.359 0-.582.046-1.217.06-1.388.012-.159.052-.276.144-.276.105 0 .118.1.118.182 0 .141.046.359.105.541.257.782.954 1.07 1.69 1.07 1.065 0 1.584-.646 1.584-1.205 0-.518-.177-1.006-1.157-1.694l-.545-.382c-1.302-.912-1.749-1.653-1.749-2.512 0-1.165 1.091-2 2.735-2 .769 0 1.262.106 1.57.183.106.023.165.053.165.129 0 .135-.046.447-.046 1.27 0 .236-.04.318-.131.318-.086 0-.119-.059-.119-.188 0-.094-.059-.423-.309-.7-.177-.2-.52-.518-1.288-.518-.875 0-1.407.453-1.407 1.089 0 .488.276.858 1.256 1.523zM83.4 10.4c0 .076-.093.105-.224.105-.782 0-1.525-.029-1.847-.029-.276 0-1.02.03-1.492.03-.151 0-.237-.03-.237-.107 0-.052.046-.082.19-.082.178 0 .323-.018.428-.041.237-.041.309-.224.342-.53.059-.44.059-1.276.059-2.305V5.575c0-1.611 0-1.905-.026-2.246-.02-.36-.138-.541-.401-.594a2.016 2.016 0 0 0-.428-.042c-.118 0-.19-.023-.19-.105 0-.06.092-.083.282-.083.447 0 1.197.03 1.539.03.295 0 .999-.03 1.446-.03.158 0 .25.018.25.083 0 .082-.073.105-.191.105-.12 0-.238.01-.355.03-.322.053-.414.235-.44.606-.027.34-.027.635-.027 2.247V7.44c0 1.024 0 1.865.046 2.317.033.283.119.477.474.518.164.018.427.041.604.041.125 0 .184.036.198.083zM90.8 9.021c0 .118-.085.912-.177 1.218-.066.235-.125.288-.743.288-.848 0-1.466-.018-1.998-.03-.533-.017-.96-.029-1.446-.029-.132 0-.395 0-.678.012-.269 0-.578.023-.815.023-.15 0-.236-.029-.236-.105 0-.053.046-.083.19-.083.178 0 .322-.018.428-.041.236-.041.295-.276.341-.582.06-.441.06-1.277.06-2.253V5.576c0-1.612 0-1.906-.027-2.247-.02-.365-.118-.53-.506-.606a2.259 2.259 0 0 0-.388-.03c-.131 0-.204-.017-.204-.094 0-.07.086-.094.263-.094.56 0 1.302.03 1.624.03.283 0 1.15-.03 1.61-.03.165 0 .25.018.25.094 0 .071-.065.094-.21.094-.131 0-.315.006-.46.03-.322.053-.414.235-.44.606-.027.34-.027.635-.027 2.247v1.858c0 1.353 0 2.088.25 2.276.204.16.513.236 1.433.236.631 0 1.091-.006 1.387-.294.145-.136.283-.436.31-.636.012-.094.039-.158.13-.158.086 0 .1.052.08.164z"/></g></g><g><path fill="#32448c" d="M16.694 14.03h1.124v.083a.632.632 0 0 0-.257.035.159.159 0 0 0-.085.112 2.13 2.13 0 0 0-.02.382v.247c-.033-.006-.059-.006-.085-.006-.099 0-.23.03-.388.083-.217.07-.42.111-.605.111-.375 0-.684-.111-.933-.329-.25-.218-.375-.5-.375-.835 0-.335.118-.63.355-.877.237-.252.559-.376.96-.376.348 0 .637.118.867.347a.709.709 0 0 0 .08-.259h.091v.77h-.085a.913.913 0 0 0-.303-.57.9.9 0 0 0-.604-.211.94.94 0 0 0-.645.247c-.184.164-.276.452-.276.87s.086.706.263.882c.178.17.395.26.658.26a.893.893 0 0 0 .361-.072.434.434 0 0 0 .224-.176c.04-.07.059-.159.059-.265a.75.75 0 0 0-.026-.253c-.02-.04-.046-.07-.086-.082a.79.79 0 0 0-.21-.023h-.06v-.095z"/></g><g><path fill="#32448c" d="M30.31 14.168l-.066.147c-.098.217-.151.352-.151.417 0 .07.026.124.079.159a.37.37 0 0 0 .204.053v.076H29.6v-.076c.118-.018.204-.053.256-.112.06-.059.125-.176.204-.359.007-.017.04-.082.092-.2l.756-1.623h.073l.874 1.859.118.247c.027.053.066.1.112.129.046.03.112.053.204.059v.076h-1.026v-.076c.125 0 .21-.006.257-.024.046-.017.065-.047.065-.1 0-.023-.026-.1-.085-.223l-.197-.43zm.5-1.077l-.46.994h.92z"/></g><g><path fill="#32448c" d="M45.785 14.625l.953-1.935h.802v.077h-.098a.703.703 0 0 0-.25.029c-.04.018-.066.053-.08.106-.012.053-.019.176-.019.37v1.147c0 .183.007.306.013.36.007.052.04.099.08.128.039.03.124.042.236.042h.118v.076h-1.249v-.076h.092a.53.53 0 0 0 .23-.036.169.169 0 0 0 .086-.117c.013-.053.02-.177.02-.37v-1.489l-1.033 2.094h-.092l-1.038-2.094v1.37c0 .189.006.318.02.383a.29.29 0 0 0 .118.176.518.518 0 0 0 .283.088v.077h-.947v-.077a.509.509 0 0 0 .27-.082.298.298 0 0 0 .124-.182c.013-.07.027-.206.027-.394v-1.018c0-.188-.007-.306-.02-.359-.013-.053-.04-.094-.079-.111a.744.744 0 0 0-.256-.03h-.066v-.082h.795l.96 1.93z"/></g><g><path fill="#32448c" d="M59.39 12.776V12.7h1.196v.076h-.052a.698.698 0 0 0-.25.03c-.04.018-.066.053-.079.106a2.05 2.05 0 0 0-.02.37v1.147c0 .183.007.306.014.359.006.053.032.1.079.13.046.029.124.04.236.04h.079v.077h-1.196v-.076h.079c.111 0 .19-.012.23-.036a.161.161 0 0 0 .079-.117c.006-.053.02-.177.02-.37v-1.148a1.94 1.94 0 0 0-.02-.359c-.014-.053-.04-.094-.08-.111a.744.744 0 0 0-.256-.03h-.059v-.012z"/></g><g><path fill="#32448c" d="M74.797 15.088L72.949 12.9v1.623c0 .136.007.224.02.265.013.041.06.082.125.118a.69.69 0 0 0 .309.053v.076h-.973v-.076a.785.785 0 0 0 .283-.06c.065-.029.105-.07.118-.105.013-.035.02-.13.02-.27v-1.242c0-.176-.007-.3-.026-.359-.02-.058-.046-.1-.086-.117-.04-.018-.131-.024-.27-.024V12.7h.77l1.544 1.83v-1.4a.538.538 0 0 0-.032-.218c-.02-.042-.073-.077-.145-.1a.873.873 0 0 0-.263-.036V12.7h.947v.076a.73.73 0 0 0-.263.06c-.066.029-.105.064-.119.105a.724.724 0 0 0-.026.212v1.935h-.085z"/></g><g><path fill="#32448c" d="M88.834 14.03h1.124v.083a.633.633 0 0 0-.257.035.158.158 0 0 0-.085.112c-.013.053-.02.176-.02.382v.247c-.033-.006-.059-.006-.085-.006-.099 0-.23.03-.388.083-.217.07-.42.111-.605.111-.375 0-.684-.111-.933-.329-.25-.218-.375-.5-.375-.835 0-.335.118-.63.355-.877s.559-.376.96-.376c.348 0 .637.118.867.347a.706.706 0 0 0 .08-.259h.091v.77h-.092a.913.913 0 0 0-.302-.57.9.9 0 0 0-.605-.211.94.94 0 0 0-.644.247c-.184.164-.276.452-.276.87s.085.706.263.882a.887.887 0 0 0 .657.26.893.893 0 0 0 .362-.072.463.463 0 0 0 .223-.176c.04-.07.06-.159.06-.265a.751.751 0 0 0-.027-.253c-.02-.047-.046-.07-.085-.082a.788.788 0 0 0-.21-.023h-.06v-.095h.007z"/></g></g></g></svg>