<svg xmlns="http://www.w3.org/2000/svg" width="25" height="25"><path fill="#f0f0f0" d="M12.5 25C19.404 25 25 19.404 25 12.5S19.404 0 12.5 0 0 5.596 0 12.5 5.596 25 12.5 25z"/><path fill="#d80027" d="M11.96 12.5h13.043c0-1.127-.15-2.22-.43-3.26H11.96zM11.96 5.98h11.209a12.566 12.566 0 00-2.884-3.26H11.96zM12.501 24.997c2.942 0 5.646-1.016 7.781-2.717H4.72a12.446 12.446 0 007.781 2.717zM1.834 19.02h21.33a12.428 12.428 0 001.405-3.26H.43c.313 1.163.79 2.259 1.404 3.26z"/><path fill="#0052b4" d="M5.79 1.952A12.441 12.441 0 0112.5 0v12.5H0c0-.528.033-1.048.097-1.559l.634-.46 1.06.769-.405-1.246 1.06-.77h-1.31L.781 8.143c.123-.33.26-.653.409-.97l.6.437-.321-.992a12.8 12.8 0 01.302-.534l.675-.49H2.08a12.569 12.569 0 012.424-2.702l-.35 1.076 1.06-.77 1.06.77-.405-1.245 1.06-.77zm.08 8.052l1.06-.77H5.62L5.215 7.99 4.81 9.235H3.5l1.06.77-.405 1.245 1.06-.77 1.06.77zm1.06-4.41H5.62l-.405-1.246-.405 1.245H3.5l1.06.77-.405 1.246 1.06-.77 1.06.77-.405-1.246zm3.424 4.41l1.059-.77h-1.31L9.7 7.99l-.405 1.246h-1.31l1.06.77-.405 1.245 1.06-.77 1.06.77zm1.059-4.41h-1.31L9.7 4.347l-.405 1.245h-1.31l1.06.77-.405 1.246 1.06-.77 1.06.77-.406-1.246zm0-3.642h-1.31L9.7.706l-.405 1.246h-1.31l1.06.77-.405 1.245 1.06-.77 1.06.77-.406-1.245z"/></svg>