<svg xmlns="http://www.w3.org/2000/svg" width="53" height="42" viewBox="0 0 53 42"><g><g><path fill="#fff" d="M8.84 41.078V38.63c0-.734-.365-1.102-.972-1.102h-.122c-.486 0-.971.49-.85 1.102v2.448h-.971V38.63c0-.734-.365-1.102-.972-1.102h-.121c-.486 0-.972.49-.85 1.102v2.448H3.01v-4.284h.972v.49c.242-.368.728-.613 1.214-.613.607 0 1.214.245 1.457.735.243-.49.85-.735 1.458-.735h.242c.85.123 1.58.857 1.458 1.714v2.693zm14.936-3.55h-1.578v1.959c0 .49.121.735.607.735.364 0 .607-.123.85-.245l.243.857a2.04 2.04 0 0 1-1.214.367c-1.093 0-1.458-.612-1.458-1.592v-1.958h-.85v-.857h.85v-1.347h.972v1.347h1.578zm8.623-.734l-.243.857c-.243-.123-.364-.123-.607-.123-.729 0-.972.368-.972 1.102v2.448h-.971v-4.284h.971v.49c.243-.368.607-.613 1.093-.613.243 0 .486 0 .729.123zm-13.237 1.102c-.365-.245-.85-.368-1.336-.368-.607 0-.85.123-.85.49s.364.49.729.49h.485c.85.122 1.457.49 1.457 1.224s-.728 1.346-1.942 1.346a3.255 3.255 0 0 1-1.822-.612l.486-.734c.485.367.971.49 1.457.49.607 0 .971-.245.971-.49s-.243-.367-.728-.49h-.486c-.972-.122-1.457-.367-1.457-1.224s.728-1.347 1.821-1.347c.607 0 1.215.123 1.7.49zm26.231-1.102l-.243.857c-.243-.123-.364-.123-.607-.123-.729 0-.971.368-.971 1.102v2.448H42.6v-4.284h.972v.49c.242-.368.607-.613 1.093-.613.242 0 .485 0 .728.123zm-12.751 2.203c.121-1.224 1.093-2.203 2.307-2.08.607 0 1.093.122 1.579.489l-.486.734c-.243-.244-.729-.367-1.093-.367-.728 0-1.336.612-1.336 1.347 0 .734.608 1.346 1.336 1.346.365 0 .729-.122 1.093-.367l.486.735c-.486.367-.972.49-1.579.49h-.243c-1.214-.123-2.064-1.102-2.064-2.327 0-.122 0-.122 0 0zm8.744 2.204h-.972v-.49c-.364.367-.85.612-1.336.612-1.336 0-2.307-.98-2.307-2.326a2.315 2.315 0 0 1 2.307-2.326c.486 0 .972.245 1.336.613v-.49h.972zm-2.308-.857c.729 0 1.336-.49 1.336-1.224 0-.735-.486-1.347-1.214-1.347-.729 0-1.336.49-1.336 1.224 0 .857.607 1.347 1.214 1.347zM26.934 36.67c1.093.123 1.943 1.102 1.822 2.204v.367h-3.158c.122.612.607 1.102 1.215 1.102.485 0 .85-.245 1.214-.49l.486.735c-.486.367-1.093.612-1.7.612-1.215 0-2.308-.98-2.308-2.204 0-1.224.972-2.326 2.186-2.326.122.123.243.123.243 0zm-1.336 1.96h2.186a1.093 1.093 0 1 0-2.186 0zm24.41 2.692h-.972v-.49c-.364.368-.85.613-1.335.613-1.336 0-2.308-.98-2.308-2.326a2.315 2.315 0 0 1 2.308-2.326c.485 0 .971.245 1.335.612V35.08h.972zm-2.307-.98c.728 0 1.335-.489 1.335-1.223 0-.735-.485-1.347-1.214-1.347s-1.336.49-1.336 1.224c.122.857.607 1.347 1.215 1.347zm-32.668.858h-.972v-.49c-.364.367-.85.612-1.336.612-1.336 0-2.307-.98-2.307-2.326a2.315 2.315 0 0 1 2.307-2.326c.486 0 .972.245 1.336.613v-.49h.972zm-2.186-.857c.728 0 1.336-.49 1.336-1.224 0-.735-.486-1.347-1.215-1.347-.728 0-1.336.49-1.336 1.224 0 .857.608 1.347 1.215 1.347z"/></g><g><path fill="#ff5f00" d="M33.847 3.45H19.76v25.585h14.087z"/></g><g><path fill="#eb001b" d="M20.61 16.304c0-5.019 2.307-9.67 6.193-12.853C19.759-2.06 9.679-.834 4.093 6.144c-5.465 7.1-4.25 17.26 2.672 22.892a15.956 15.956 0 0 0 19.916 0 16.432 16.432 0 0 1-6.072-12.732z"/></g><g><path fill="#f79e1b" d="M52.9 16.09c0 8.936-7.165 16.28-16.152 16.28-3.643 0-7.165-1.223-9.958-3.427 7.044-5.508 8.258-15.791 2.672-22.77-.85-.979-1.7-1.958-2.672-2.692 7.044-5.51 17.123-4.285 22.588 2.693 2.308 2.693 3.522 6.243 3.522 9.916z"/></g></g></svg>