<svg xmlns="http://www.w3.org/2000/svg" width="103" height="34" viewBox="0 0 103 34"><g><g><path fill="#00579f" d="M45.023 33.395h-8.287L41.92 1.26h8.287z"/></g><g><path fill="#00579f" d="M75.068 2.047C73.434 1.397 70.841.68 67.635.68c-8.184 0-13.948 4.376-13.983 10.632-.068 4.615 4.126 7.178 7.263 8.717 3.207 1.573 4.297 2.6 4.297 4.001-.033 2.153-2.591 3.145-4.977 3.145-3.31 0-5.082-.511-7.776-1.71l-1.092-.513-1.16 7.214c1.944.888 5.526 1.676 9.244 1.71 8.696 0 14.357-4.308 14.424-10.974.033-3.658-2.182-6.461-6.956-8.752-2.9-1.47-4.674-2.461-4.674-3.966.034-1.367 1.501-2.768 4.773-2.768 2.695-.069 4.674.58 6.174 1.23l.75.341 1.126-6.939z"/></g><g><path fill="#00579f" d="M86.082 22.01c.683-1.845 3.31-8.99 3.31-8.99-.035.069.68-1.88 1.09-3.077l.579 2.77s1.57 7.691 1.91 9.298h-6.889zm3.82-20.75c-1.977 0-3.479.581-4.332 2.667L73.26 33.394h8.696l1.74-4.82h10.64c.238 1.128.989 4.82.989 4.82h7.673L96.312 1.261z"/></g><g><path fill="#00579f" d="M29.814 1.26l-8.116 21.913-.887-4.444c-1.5-5.128-6.207-10.7-11.459-13.47l7.435 28.102h8.764l13.027-32.1h-8.764z"/></g><g><path fill="#faa61a" d="M14.162 1.263H.828l-.137.65c10.402 2.666 17.29 9.094 20.12 16.82L17.914 3.964c-.477-2.052-1.944-2.633-3.751-2.701z"/></g></g></svg>