<svg xmlns="http://www.w3.org/2000/svg" width="134" height="31" viewBox="0 0 134 31"><g><g><path fill="red" d="M5.433 25.734v-8.08L.04 3.183h2.712l3.975 11.164L11.301.85h2.491L7.916 17.755v7.98z"/></g><g><path fill="#fff" d="M19.34 25.73a7.488 7.488 0 0 1-.22-1.26h-.158a3.532 3.532 0 0 1-2.965 1.48c-2.27 0-3.817-1.703-3.817-4.825 0-3.413 1.735-5.55 6.183-5.55h.347v-.945c0-2.082-.696-2.967-2.082-2.967-1.263 0-2.334.664-3.151 1.389l-.478-2.177a6.34 6.34 0 0 1 3.786-1.26c2.807 0 4.353 1.197 4.353 5.046v7.475c0 1.204.095 2.406.284 3.594zm-.63-8.294h-.284c-3.061 0-3.723 1.355-3.723 3.413 0 1.838.599 3.028 1.862 3.028a2.717 2.717 0 0 0 2.145-1.26zm7.947 8.294h-2.468V9.804h2.46v1.386h.158a4.177 4.177 0 0 1 3.121-1.575c2.082 0 3.185 1.166 3.185 3.594V25.73h-2.489v-12.3c0-1.197-.538-1.61-1.483-1.61-1.05 0-1.925.788-2.492 1.576zm8.893-7.351c0-5.897 2.208-8.767 5.395-8.767a3.636 3.636 0 0 1 2.016.6V3.18h2.46v22.55h-1.838l-.189-1.26h-.157c-.696.882-1.575 1.48-2.872 1.48-3.112 0-4.816-2.648-4.816-7.568zm7.411-5.98a2.392 2.392 0 0 0-1.859-.76c-1.987 0-2.935 2.999-2.935 6.246 0 3.72.696 5.992 2.494 5.992a2.551 2.551 0 0 0 2.3-1.24zm10.221 13.56c-3.282 0-5.3-2.626-5.3-7.506 0-5.11 1.42-8.83 4.794-8.83 2.649 0 4.384 1.985 4.384 7.378v1.357h-6.616c0 3.594 1.01 5.487 2.967 5.487a5.186 5.186 0 0 0 3.027-1.071l.57 1.885a5.986 5.986 0 0 1-3.826 1.292zm1.355-9.623c0-2.712-.441-4.7-1.861-4.7-1.513-.005-2.051 1.857-2.206 4.7zm13.214-6.495l-2.964 7.438 3.31 8.451h-2.551l-2.463-6.563-2.397 6.563H58.26l3.31-8.23-2.987-7.664h2.554l2.051 5.776 2.174-5.776z"/></g><g><path fill="#fff" d="M76.543 10.148l-.661 15.422H74.59l.977-22.55H77.3l3.376 13.915c.254 1.026.43 2.07.525 3.122h.063c.11-1.053.3-2.097.567-3.122L85.31 3.03h1.764l.98 22.55h-1.515l-.662-15.547c-.095-1.767-.063-3.125-.063-4.51h-.095c-.167 1.37-.42 2.73-.756 4.069l-3.15 12.457h-1.229L77.46 9.592a26.255 26.255 0 0 1-.728-4.038h-.086c0 1.228-.04 3.058-.103 4.594z"/></g><g><path fill="#fff" d="M90.58 17.88c0-5.299 2.114-8.36 4.857-8.36 2.744 0 4.857 2.715 4.857 8.17 0 5.267-2.1 8.357-4.857 8.357s-4.857-2.743-4.857-8.167zm8.234-.095c0-4.988-1.515-7.034-3.377-7.034-1.861 0-3.374 2.208-3.374 7.034 0 4.952 1.513 7.065 3.374 7.065 1.862 0 3.377-2.27 3.377-7.065z"/></g><g><path fill="#fff" d="M104.493 14.123V25.73h-1.483V9.836h1.357l.063 2.625h.063c.441-1.176 1.702-2.951 3.847-2.951s3.345 1.313 3.345 3.849V25.73H110.2V13.556c0-1.893-.693-2.775-2.145-2.775-1.578 0-2.775 1.326-3.563 3.342z"/></g><g><path fill="#fff" d="M119.222 24.754c2.1 0 3.216-1.704 3.216-1.704l.472 1.197a4.587 4.587 0 0 1-3.72 1.804c-3.366 0-4.92-3.064-4.92-8.268 0-5.204 1.953-8.273 4.637-8.273 2.743 0 4.508 2.888 4.006 8.525h-7.194c.063 4.353 1.2 6.719 3.503 6.719zm2.305-7.893c.262-4.224-1.011-6.117-2.626-6.117-1.667.005-3.024 2.15-3.15 6.117z"/></g><g><path fill="#fff" d="M125.243 30.708l-.157-1.389c.317.087.644.134.974.14 1.073 0 1.837-1.051 2.302-2.808l.126-.472-3.938-16.336h1.48l2.524 10.376c.282 1.181.5 2.377.656 3.581h.095c.218-1.26.472-2.428.756-3.594l2.46-10.376h1.326l-4.062 16.714c-.538 2.145-1.483 4.227-3.723 4.227-.274 0-.548-.021-.819-.063z"/></g></g></svg>