<svg xmlns="http://www.w3.org/2000/svg" width="75" height="75" viewBox="0 0 75 75"><g><g><path fill="#87e389" d="M11.766 19.159a1.237 1.237 0 0 1 .452-1.69l4.284-2.473a1.236 1.236 0 0 1 1.69.453l3.091 5.356a1.236 1.236 0 0 1-.452 1.688l-4.284 2.474a1.236 1.236 0 0 1-1.688-.456zm2.763-.169l1.854 3.215 2.142-1.236-1.855-3.216z"/></g><g><path fill="#87e389" d="M18.85 26.487l2.142-1.237 1.236 2.142-2.142 1.236z"/></g><g><path fill="#87e389" d="M43.757 11.586a3.713 3.713 0 0 1 .37-2.818l.618-1.07a3.712 3.712 0 1 1 6.43 3.71l-.618 1.07a3.693 3.693 0 0 1-3.219 1.855 3.71 3.71 0 0 1-3.581-2.747zm2.518-1.58a1.237 1.237 0 0 0 2.14 1.236l.619-1.07a1.237 1.237 0 1 0-2.14-1.238z"/></g><g><path fill="#87e389" d="M41.95 17.502l1.237-2.142 2.141 1.237-1.236 2.141z"/></g><g><path fill="#87e389" d="M73.83 21.628L62.065 42.014c.304.62.499 1.29.575 1.978l1.27 1.528a13.582 13.582 0 0 1 3.338 8.928v19.736h-2.474V54.448a11.125 11.125 0 0 0-2.635-7.183 6.116 6.116 0 0 1-2.311 2.663v3.234a6.083 6.083 0 0 1-.254 1.708l1.172 1.172-1.749 1.748-11.13-11.13a3.215 3.215 0 0 0-4.434 0 3.141 3.141 0 0 0 0 4.435l8.656 8.656c.436.436.485 1.125.116 1.617a9.523 9.523 0 0 0-1.14 9.41l1.441 3.406H49.82l-1.028-2.438a11.983 11.983 0 0 1-.138-8.968 6.147 6.147 0 0 1-2.42.508c-.043 0-.082-.009-.123-.009a9.562 9.562 0 0 0-.037 7.5l1.424 3.407h-2.68l-1.012-2.447a12.036 12.036 0 0 1-.124-9.028c-.185-.085-.37-.169-.55-.272l-2.471-1.419-2.473 1.427a6.118 6.118 0 0 1-4.687.62 6.125 6.125 0 0 1-3.756-2.88l-.484-.84h-.35a6.191 6.191 0 0 1-6.183-6.183v-2.498l-1.013-.587a6.193 6.193 0 0 1-3.052-4.698L3.56 36.66a6.185 6.185 0 0 1-2.255-8.457l5.373-9.317a6.152 6.152 0 0 1 3.071-5.7l.335-.19 3.586-6.208a6.169 6.169 0 0 1 8.44-2.257l1.316.758.517-.298a6.136 6.136 0 0 1 4.283-2.479L31.163.82a6.176 6.176 0 0 1 8.005 1.641h2.983A6.176 6.176 0 0 1 50.159.821l2.837 1.64h.648a6.184 6.184 0 0 1 5.595 3.603l12.336 7.122a6.131 6.131 0 0 1 2.881 3.757 6.116 6.116 0 0 1-.625 4.685zM25.202 31.665l6.151-10.655h-1.204v-2.474h2.473v.274l1.628-2.819c-.126.045-.258.07-.391.072H28.91a1.237 1.237 0 0 1-1.143-1.7l2.473-6.182a1.236 1.236 0 0 1 2.297 0l2.474 6.183c.025.07.044.142.055.215l5.565-9.646h-11.72a3.684 3.684 0 0 0-3.094 1.676c-.196.295-.352.615-.462.952-.105.351-.157.716-.155 1.082zm6.183-19.693l-.646 1.618h1.294zm-17.01-1.463l6.576-3.793-.077-.044a3.7 3.7 0 0 0-5.062 1.353zm4.598 32.192c.078-.227.17-.45.274-.666l-.067-.112a1.742 1.742 0 0 1-.064-.123l-4.975-8.63-1.062 1.84a1.237 1.237 0 0 1-1.69.453l-5.354-3.091a1.24 1.24 0 0 1-.459-1.691l1.237-2.142a3.673 3.673 0 0 1 3.597-1.828l-2.7-4.682-4.272 7.413a3.718 3.718 0 0 0 1.36 5.078l14.175 8.183zm-8.325-13.377a1.237 1.237 0 0 0-1.688.453l-.619 1.071 3.216 1.855.618-1.071a1.237 1.237 0 0 0-.453-1.69l-1.072-.618zm10.015 10.204l2.066-3.579V8.642c0-.035.008-.067.008-.101l-10.995 6.34c-.044.034-.09.064-.137.09l-.631.36a3.688 3.688 0 0 0-1.82 3.676l.007.072c.074.463.233.908.469 1.312zm12.825 17.344l-8.286-4.78v1.07a3.71 3.71 0 0 0 3.71 3.71zm4.7 2.72l-.422-.247h-5.596a3.669 3.669 0 0 0 4.78.958zm19.162-9.41l-.865 1.508-.037.053.907.907zm2.478-3.803c.165-.336.279-.695.335-1.065l-.335.582zM71.69 20.39a3.699 3.699 0 0 0-1.349-5.069L48.922 2.956a3.72 3.72 0 0 0-5.077 1.36l-22.26 38.552a3.665 3.665 0 0 0-.494 1.792 3.719 3.719 0 0 0 1.855 3.275L44.363 60.3a3.657 3.657 0 0 0 4.319-.455l-7.004-7.002a5.61 5.61 0 0 1 7.932-7.932l5.025 5.024 4.913-8.515.032-.057z"/></g><g><path fill="#87e389" d="M56.65 30.86a4.625 4.625 0 0 1-6.678 5.542l-.461-.267a4.614 4.614 0 0 1-1.766-1.842 10.278 10.278 0 0 0 .218 4.222 1.238 1.238 0 0 1-1.813 1.391l-6.43-3.71a1.237 1.237 0 0 1 .298-2.265 10.289 10.289 0 0 0 3.765-1.923 4.632 4.632 0 0 1-2.48-.608l-.46-.267a4.626 4.626 0 0 1 1.462-8.551l9.674-1.81c.6-.113 1.192.229 1.394.804zm-11.503 5.614c-.04-.821-.001-1.644.117-2.457-.646.51-1.34.955-2.073 1.331zm9.157-4.796l-2.916-8.286-8.634 1.616a2.153 2.153 0 0 0-.68 3.978l.461.266c.368.211.79.31 1.214.284l3.431-.221c.08-.002.16.005.238.02.037 0 .074.003.112.008.244.057.466.186.636.371.034.042.064.086.092.133.041.05.078.103.11.16l1.523 3.076c.188.381.485.698.853.91l.46.266a2.155 2.155 0 0 0 2.94-.786 2.153 2.153 0 0 0 .16-1.795z"/></g></g></svg>